<?xml version="1.0" encoding="UTF-8"?>
<svg width="110px" height="110px" viewBox="0 0 110 110" version="1.1" xmlns="http://www.w3.org/2000/svg" xmlns:xlink="http://www.w3.org/1999/xlink">
    <title>ACME</title>
    <defs>
        <polygon id="path-1" points="43.2685943 22.4869258 50.8488697 22.4869258 50.8488697 35.2947743 43.2685943 35.2947743"></polygon>
    </defs>
    <g id="ACME" stroke="none" stroke-width="1" fill="none" fill-rule="evenodd">
        <g id="Group-10" transform="translate(29.090088, 26.175795)">
            <path d="M27.329288,51.5502748 C24.151211,50.343633 21.9406899,47.2507047 21.9986708,43.9069985 L22.0022946,43.1728369 C22.0059184,42.4568477 22.0421564,41.9625607 22.1218801,41.4464669 L10.8301037,41.4501013 C5.37990094,41.4791771 5.07550131,41.0066968 5.07550131,45.6042929 L5.07550131,45.6515409 C5.04651087,47.2288979 6.40181395,49.0352262 8.57609697,49.7548499 L23.0785647,56.5476618 C24.5280867,56.9910663 26.2059084,56.9910663 27.6518066,56.5476618 L31.491104,54.7518976 C31.7412373,54.6349021 31.8491668,54.3372854 31.7321714,54.0871521 C31.6866683,53.9898677 31.6110495,53.9098205 31.5165093,53.8588604 L26.8763123,51.3576482 L26.8763123,51.3576482 L27.329288,51.5502748 Z" id="Fill-14" fill="#3F75EF"></path>
            <path d="M46.8673951,41.449011 L45.8309869,41.4344732 L39.9314323,41.4381076 L30.4334393,41.4453765 L29.8101449,41.4381076 L28.4910798,41.4417421 C27.5199001,41.4817212 27.3930669,41.7506715 27.3821955,43.1862845 L27.3821955,44.0040387 C27.3677003,44.8545031 27.9330139,45.8212703 28.8679556,46.3373641 L29.2375837,46.5081839 L36.9272979,50.6405686 C37.539721,50.8622709 38.2318677,50.9058844 38.876905,50.7714093 L39.3516235,50.6405686 L44.9975117,47.6021573 L47.0413378,46.5081839 C48.2335696,45.850346 48.932964,44.916289 48.9039735,43.9458873 L48.9184688,43.3425664 C48.9402116,42.4448539 48.7300309,41.4453765 46.8673951,41.449011" id="Fill-17" fill="#3F75EF"></path>
            <path d="M5.15305074,30.0575128 C5.68212628,28.0476546 6.02638775,26.7029032 6.17858756,26.0196241 C6.33441118,25.336345 6.43587772,24.8456924 6.4902348,24.5476664 C6.54821568,24.8674992 6.66780124,25.4017653 6.8526153,26.1395614 C7.03742935,26.8809919 7.18962916,27.4879472 7.32008615,27.9531585 L7.87090451,30.0575128 L5.15305074,30.0575128 Z M9.21533617,35.2947743 L12.9877172,35.2947743 L8.76960815,22.4360433 L4.16737578,22.4360433 L-1.41830741e-13,35.2947743 L3.79050005,35.2947743 L4.43553735,32.8960286 L8.5847941,32.8960286 L9.21533617,35.2947743 Z" id="Fill-1" fill="#3F75EF"></path>
            <path d="M20.0534122,25.143355 C20.5933592,25.143355 21.1006919,25.2196787 21.5717865,25.3686917 C22.046505,25.5213392 22.5175996,25.7103313 22.9886943,25.9320335 L24.0468454,23.2061861 C22.7857612,22.6064996 21.47032,22.3048392 20.0896503,22.3048392 C18.8249423,22.3048392 17.7233056,22.5737894 16.7919877,23.1153245 C15.857046,23.6568595 15.1395326,24.4273657 14.6430713,25.434112 C14.14661,26.4372239 13.8965675,27.6002522 13.8965675,28.9268312 C13.8965675,31.0493578 14.407524,32.666694 15.4366846,33.7897431 C16.4658453,34.9127923 17.9407339,35.4724996 19.8685982,35.4724996 C21.2130298,35.4724996 22.4197569,35.232625 23.4851556,34.7601448 L23.4851556,31.8344019 C22.9488324,32.0561041 22.4161331,32.2487307 21.8870576,32.4050126 C21.357982,32.5612945 20.8107875,32.6412527 20.2454739,32.6412527 C18.3755905,32.6412527 17.4406488,31.4091697 17.4406488,28.9450036 C17.4406488,27.7601685 17.6725723,26.8297459 18.1327956,26.1537358 C18.5930188,25.4813601 19.2308085,25.143355 20.0534122,25.143355" id="Fill-3" fill="#3F75EF"></path>
            <path d="M22.1193435,16.282897 C22.0432436,15.7668032 22.0070055,15.2725162 22.0033817,14.5528925 L21.9997579,13.8187309 C21.941777,10.4750247 24.1522981,7.38573088 27.3303751,6.17908907 L26.8773995,6.37171562 L31.5174845,3.87362146 C31.7606289,3.74271919 31.8516192,3.43949444 31.7207169,3.19635002 C31.6698146,3.1018016 31.5898263,3.02615214 31.4925888,2.98059646 L27.6528937,1.18170207 L27.6528937,1.18170207 C26.2069955,0.738297552 24.52555,0.738297552 23.0796518,1.18170207 L8.57718411,7.97451393 C6.39927729,8.69413766 5.04397421,10.5004659 5.07658846,12.077823 L5.07658846,12.125071 C5.07658846,16.722667 5.38098808,16.2501868 10.8311908,16.2792625 L22.1193435,16.282897 Z" id="Fill-5" fill="#3F75EF"></path>
            <path d="M37.3480217,29.6813458 L37.3480217,35.2929571 L40.5188511,35.2929571 L40.5188511,23.9170871 L40.5188511,22.488743 L35.9129949,22.488743 L35.5035049,23.9134526 L33.3038553,31.5821701 L33.2313792,31.5821701 L30.9846201,23.9098181 L30.5715063,22.488743 L25.9765215,22.488743 L25.9765215,23.477317 L25.9765215,35.2929571 L29.0313892,35.2929571 L29.0313892,29.7322283 C29.0313892,28.8635916 28.9697845,27.6424119 28.8501989,26.0723238 L28.9262988,26.0723238 L31.5390623,35.2929571 L34.8258534,35.2929571 L37.4023788,26.0904961 L37.4784787,26.0904961 C37.4096264,27.4788611 37.3697645,28.3511323 37.3625169,28.7073097 C37.3516455,29.0671215 37.3480217,29.3869543 37.3480217,29.6813458" id="Fill-7" fill="#3F75EF"></path>
            <path d="M28.8690427,11.3934535 C27.934101,11.9059128 27.3651636,12.8726801 27.3796588,13.7231445 L27.3832827,14.5445332 C27.3941541,15.9765117 27.5209872,16.2490965 28.492167,16.2890756 L29.8003606,16.2890756 L30.4345265,16.2854411 L39.9325194,16.29271 L45.832074,16.2963445 L46.8684823,16.2781722 C48.7274942,16.2963445 48.8760702,15.3005015 48.9195559,14.3882513 L48.9050607,13.7849304 C48.9340511,12.8145287 48.1440616,11.8077823 47.0424249,11.2226338 L44.9985989,10.1250258 L39.3527106,7.08661455 L38.8779922,6.95577387 C38.2329549,6.82493319 37.5408081,6.86854675 36.9283851,7.08661455 L29.2386708,11.2226338 L28.8690427,11.3934535 Z" id="Fill-9" fill="#3F75EF"></path>
            <mask id="mask-2" fill="white">
                <use xlink:href="#path-1"></use>
            </mask>
            <g id="Clip-12"></g>
            <polygon id="Fill-11" fill="#3F75EF" mask="url(#mask-2)" points="43.2685943 23.9189043 43.2685943 35.2947743 50.8495945 35.2947743 50.8495945 32.4744308 46.7184567 32.4744308 46.7184567 30.0575128 50.5451948 30.0575128 50.5451948 27.2807828 46.7184567 27.2807828 46.7184567 25.2672902 50.8495945 25.2672902 50.8495945 23.0938811 50.8495945 22.4869258 43.2685943 22.4869258"></polygon>
        </g>
    </g>
</svg>