<svg width="38" height="42" viewBox="0 0 38 42" fill="none" xmlns="http://www.w3.org/2000/svg">
  <path fill-rule="evenodd" clip-rule="evenodd" d="M37.5915 28.6648V13.874C37.5914 11.5112 36.3363 9.3201 34.2814 8.09534L22.3505 0.977127C20.1659 -0.325709 17.4257 -0.325709 15.2411 0.977127L3.31451 8.09534C1.25728 9.32146 0.000538792 11.515 0 13.8805V28.6691C0.00104518 31.0317 1.25594 33.2224 3.31013 34.4478L13.5959 40.5716C16.792 42.4761 20.7996 42.4761 23.9957 40.5716L34.2814 34.4392C36.3373 33.2133 37.5925 31.0204 37.5915 28.6562" fill="#3F75EF"/>
  <path d="M32.5867 30.3367L28.6383 32.5781C27.5977 33.3185 26.1741 33.3185 25.1334 32.5781L21.1851 30.3367C20.2199 29.5982 20.2199 28.3873 21.1851 27.6487L25.1334 25.2871C26.1748 24.5488 27.597 24.5488 28.6383 25.2871L32.5867 27.6487C33.5497 28.3851 33.5497 29.5982 32.5867 30.3367Z" fill="white"/>
  <path d="M26.6519 29.8665C25.8556 29.8756 25.0782 29.6248 24.4387 29.1524L20.6016 26.8931L20.5473 26.8498C19.8943 26.3663 19.5095 25.604 19.5095 24.7939C19.5095 23.9839 19.8943 23.2215 20.5473 22.7381L20.5886 22.7034L24.4257 20.323C25.7495 19.3591 27.5477 19.3591 28.8715 20.323L32.7087 22.7034L32.75 22.7381C33.4013 23.2226 33.7848 23.9846 33.7848 24.7939C33.7848 25.6033 33.4013 26.3653 32.75 26.8498L32.7 26.8909L28.8628 29.1524C28.2237 29.6239 27.4474 29.8747 26.6519 29.8665Z" fill="white"/>
  <path fill-rule="evenodd" clip-rule="evenodd" d="M23.8998 19.5494C24.6969 18.9681 25.6613 18.6586 26.6494 18.6669V18.6734C27.6382 18.6646 28.6035 18.9742 29.4011 19.5559L33.1662 21.8905L33.258 21.9491L33.3431 22.0165C34.2205 22.6736 34.7365 23.7028 34.7365 24.7956C34.7365 25.8883 34.2205 26.9176 33.3431 27.5746L33.2427 27.6528L33.1335 27.7181L29.3771 29.933C27.7425 31.0891 25.5519 31.0891 23.9173 29.933L20.1609 27.7181L20.0495 27.6528L19.9512 27.5746C19.0739 26.9176 18.5579 25.8883 18.5579 24.7956C18.5579 23.7028 19.0739 22.6736 19.9512 22.0165L20.0342 21.9491L20.1259 21.8905L23.8998 19.5494ZM28.3594 21.0493C27.8688 20.6766 27.2665 20.4791 26.6494 20.4884V20.4819C26.033 20.473 25.4316 20.6705 24.9415 21.0427L21.0912 23.4338C20.15 24.1815 20.15 25.4075 21.0912 26.1552L24.9415 28.4288C25.9561 29.1792 27.3448 29.1792 28.3594 28.4288L32.2097 26.1617C33.1488 25.414 33.1488 24.188 32.2097 23.4403L28.3594 21.0493Z" fill="#3F75EF"/>
  <path d="M16.8841 30.3366L12.9359 32.5779C11.8946 33.3186 10.4702 33.3186 9.42893 32.5779L5.48077 30.3366C4.5178 29.5981 4.5178 28.3873 5.48077 27.6488L9.42893 25.2874C10.471 24.5487 11.8939 24.5487 12.9359 25.2874L16.8841 27.6488C17.847 28.3852 17.847 29.5981 16.8841 30.3366Z" fill="white"/>
  <path d="M11.4045 29.8664C10.6076 29.8755 9.82951 29.6247 9.1892 29.1523L5.35861 26.893L5.3173 26.8498C4.66601 26.3652 4.28247 25.6033 4.28247 24.7939C4.28247 23.9845 4.66601 23.2226 5.3173 22.738L5.36078 22.7034L9.19572 20.323C10.5195 19.3591 12.3178 19.3591 13.6416 20.323L17.4787 22.7034L17.52 22.738C18.1729 23.2215 18.5577 23.9839 18.5577 24.7939C18.5577 25.6039 18.1729 26.3663 17.52 26.8498L17.4722 26.8909L13.6263 29.1523C12.9843 29.6261 12.2037 29.877 11.4045 29.8664Z" fill="white"/>
  <path fill-rule="evenodd" clip-rule="evenodd" d="M8.66546 19.5499C9.46339 18.9686 10.4282 18.6589 11.4169 18.667C12.4077 18.6575 13.3751 18.9672 14.1748 19.5499L17.9416 21.8854L18.0333 21.9442L18.1163 22.0116C18.9935 22.6689 19.5095 23.6986 19.5095 24.7919C19.5095 25.8851 18.9935 26.9148 18.1163 27.5722L18.018 27.6504L17.9066 27.7157L14.1508 29.9316C12.5168 31.0896 10.3256 31.0896 8.69167 29.9316L4.9358 27.7157L4.82443 27.6504L4.72398 27.5722C3.84678 26.9148 3.33081 25.8851 3.33081 24.7919C3.33081 23.6986 3.84678 22.6689 4.72398 22.0116L4.80915 21.9442L4.90086 21.8854L8.66546 19.5499ZM13.1266 21.0438C12.6359 20.6713 12.0338 20.4738 11.4169 20.4828C10.8029 20.473 10.2032 20.6682 9.71361 21.0373L5.86385 23.4294C4.92488 24.1775 4.92488 25.404 5.86385 26.1521L9.71361 28.4268C10.7287 29.1778 12.1181 29.1778 13.1332 28.4268L16.9764 26.1586C17.9154 25.4105 17.9154 24.184 16.9764 23.436L13.1266 21.0438Z" fill="#3F75EF"/>
  <path fill-rule="evenodd" clip-rule="evenodd" d="M24.9835 11.1145L23.4252 10.8829C23.3307 10.5588 23.1891 10.2346 23.0474 9.95673L23.9446 8.66003C24.039 8.56741 24.039 8.42848 23.9446 8.33586L22.8585 7.31703C22.7641 7.22441 22.6224 7.22441 22.528 7.27072L21.2058 8.19693C20.9224 8.058 20.6391 7.91907 20.3086 7.82645L20.0252 6.25189C20.0252 6.15927 19.8836 6.06665 19.7419 6.06665H18.2781C18.1364 6.06665 18.042 6.15927 17.9947 6.2982L17.7586 7.82645C17.4281 7.91907 17.1448 8.058 16.8142 8.19693L15.5393 7.27072C15.4448 7.22441 15.3031 7.22441 15.2087 7.31703L14.1226 8.33586C14.0282 8.42848 14.0282 8.56741 14.1226 8.66003L15.0198 9.95673C14.8782 10.2346 14.7365 10.5588 14.6421 10.8829L13.0838 11.1145C12.9421 11.1608 12.8477 11.2534 12.8477 11.3924V12.828C12.8477 12.9669 12.9421 13.0595 13.0838 13.1058L14.6421 13.3837C14.7365 13.7079 14.8782 13.9857 15.0198 14.2636L14.1226 15.5603C14.0282 15.6529 14.0282 15.7918 14.1226 15.8845L15.1615 16.9033C15.2559 16.9959 15.3976 17.0422 15.5393 16.9496L16.8142 16.0697C17.1448 16.2086 17.4281 16.3476 17.7586 16.4402L18.042 17.9684C18.042 18.1074 18.1364 18.2 18.2781 18.2H19.7419C19.8836 18.2 20.0252 18.1074 20.0252 17.9684L20.3086 16.4402C20.6391 16.3476 20.9224 16.2086 21.253 16.0234L22.5752 16.9496C22.6696 17.0422 22.8113 16.9959 22.9057 16.9033L23.9446 15.8845C24.039 15.7918 24.039 15.6529 23.9918 15.5603L23.0474 14.2636C23.1891 13.9857 23.3307 13.6616 23.4252 13.3837L24.9835 13.1058C25.1251 13.0595 25.2196 12.9669 25.2196 12.828V11.3924C25.2196 11.2534 25.1251 11.1608 24.9835 11.1145ZM19.0336 13.9857C17.9947 13.9857 17.1448 13.1521 17.1448 12.1333C17.1448 11.1145 17.9947 10.2809 19.0336 10.2809C20.0725 10.2809 20.9224 11.1145 20.9224 12.1333C20.9224 13.1521 20.0725 13.9857 19.0336 13.9857Z" fill="white"/>
</svg>