<?xml version="1.0" encoding="iso-8859-1"?>
<!-- Generator: Adobe Illustrator 19.0.0, SVG Export Plug-In . SVG Version: 6.00 Build 0)  -->
<svg version="1.1" id="Capa_1" xmlns="http://www.w3.org/2000/svg" xmlns:xlink="http://www.w3.org/1999/xlink" x="0px" y="0px"
	 viewBox="0 0 512 512" style="enable-background:new 0 0 512 512;" xml:space="preserve">
<path d="M28.8,44.8C12.96,44.8,0,57.76,0,73.6v25.44h512V73.6c0-15.84-12.96-28.8-28.8-28.8H28.8z"/>
<g style="opacity:0.25;enable-background:new    ;">
	<path style="fill:#FFFFFF;" d="M28.8,44.8C12.96,44.8,0,57.76,0,73.6v25.44h115.84l31.2-54.24H28.8z"/>
</g>
<rect x="8" y="107.2" style="fill:#FFFFFF;" width="496" height="352"/>
<path style="fill:#EFEFEF;" d="M496,115.2v336H16v-336L496,115.2 M512,99.2H0v368h512V99.2L512,99.2z"/>
<path style="fill:#DBDBDB;" d="M488,123.2v320H24v-320L488,123.2 M492,119.2H20v328h472V119.2L492,119.2z"/>
<circle style="fill:#FF0000;" cx="40.48" cy="72" r="8.16"/>
<circle style="fill:#CCCCCC;" cx="65.12" cy="72" r="8.16"/>
<circle style="fill:#E9EDF1;" cx="89.6" cy="72" r="8.16"/>
<path style="fill:#FFFFFF;" d="M428.32,86.4H170.88c-7.84,0-14.4-6.4-14.4-14.4l0,0c0-7.84,6.4-14.4,14.4-14.4h257.44
	c7.84,0,14.4,6.4,14.4,14.4l0,0C442.56,79.84,436.16,86.4,428.32,86.4z"/>
<path d="M180.64,64.84l1.92,7.52c0.48,1.6,0.8,3.2,1.12,4.8h0.16c0.32-1.44,0.8-3.04,1.28-4.64l2.4-7.52h2.24l2.24,7.52
	c0.48,1.76,0.96,3.36,1.28,4.8h0.16c0.32-1.44,0.64-3.04,1.12-4.8l2.08-7.52h2.72l-4.8,14.88h-2.4l-2.24-7.04
	c-0.48-1.6-0.96-3.2-1.28-4.96l0,0c-0.32,1.76-0.8,3.36-1.28,4.96l-2.4,7.04h-2.4L178.08,65h2.56L180.64,64.84L180.64,64.84z"/>
<path d="M203.52,64.84l1.92,7.52c0.48,1.6,0.8,3.2,1.12,4.8h0.16c0.32-1.44,0.8-3.04,1.28-4.64l2.4-7.52h2.24l2.24,7.52
	c0.48,1.76,0.96,3.36,1.28,4.8h0.16c0.32-1.44,0.64-3.04,1.12-4.8l2.08-7.52h2.72l-4.8,14.88h-2.4l-2.24-7.36
	c-0.48-1.6-0.96-3.2-1.28-4.96l0,0c-0.32,1.76-0.8,3.36-1.28,4.96l-2.4,7.04h-2.4l-4.48-14.88h2.56L203.52,64.84L203.52,64.84z"/>
<path d="M226.56,64.84l1.92,7.52c0.48,1.6,0.8,3.2,1.12,4.8h0.16c0.32-1.44,0.8-3.04,1.28-4.64l2.4-7.52h2.24l2.24,7.52
	c0.48,1.76,0.96,3.36,1.28,4.8h0.16c0.32-1.44,0.64-3.04,1.12-4.8l2.08-7.52h2.72l-4.8,14.88h-2.4l-2.24-7.04
	c-0.48-1.6-0.96-3.2-1.28-4.96l0,0c-0.32,1.76-0.8,3.36-1.28,4.96l-2.4,7.04h-2.4L224,65h2.56V64.84z"/>
<path d="M246.24,78.12c0-1.12,0.8-1.92,1.92-1.92s1.76,0.8,1.76,1.92c0,1.12-0.64,1.92-1.92,1.92
	C246.88,80.04,246.24,79.24,246.24,78.12z"/>
<g>
	<rect x="461.28" y="70.4" style="fill:#E9EDF1;" width="23.04" height="4"/>
	<polygon style="fill:#E9EDF1;" points="474.56,84.32 471.68,81.44 480.8,72.32 471.68,63.2 474.56,60.48 486.56,72.32 	"/>
</g>
<g>
	<polygon style="fill:#CCCCCC;" points="429.76,67.36 422.24,77.28 414.56,67.36 	"/>
	<path style="fill:#CCCCCC;" d="M419.616,279.176h-13.272v-47.824c0-15.264-12.416-27.68-27.68-27.68s-27.68,12.416-27.68,27.68
		v47.824h-13.272v-47.824c0-22.584,18.376-40.96,40.96-40.96s40.96,18.376,40.96,40.96v47.824H419.616z"/>
</g>
<g style="opacity:0.25;">
	<rect x="337.68" y="265.2" width="13.272" height="5.312"/>
</g>
<g style="opacity:0.25;">
	<rect x="406.336" y="265.2" width="13.272" height="5.312"/>
</g>
<g>
	<rect x="325.416" y="270.48" style="fill:#FF0000;" width="106.472" height="67.608"/>
	<rect x="319.288" y="338.08" style="fill:#FF0000;" width="118.736" height="22.128"/>
</g>
<g>
	<rect x="351.864" y="296.64" style="fill:#FFFFFF;" width="53.584" height="2.656"/>
	<rect x="351.864" y="313.92" style="fill:#FFFFFF;" width="53.584" height="2.656"/>
	<rect x="351.864" y="331.2" style="fill:#FFFFFF;" width="53.584" height="2.656"/>
</g>
<path d="M83.72,315.32c5.736,3.296,14.336,6.168,23.36,6.168c11.328,0,17.632-5.304,17.632-13.184c0-7.304-4.872-11.608-17.2-16.048
	c-15.904-5.736-26.08-14.184-26.08-28.096c0-15.768,13.176-27.8,34.112-27.8c10.464,0,18.192,2.288,23.208,4.864l-4.296,14.184
	c-3.44-1.856-10.168-4.584-19.2-4.584c-11.176,0-16.048,6.024-16.048,11.608c0,7.456,5.584,10.888,18.488,15.904
	c16.768,6.304,24.936,14.768,24.936,28.664c0,15.48-11.76,28.944-36.688,28.944c-10.176,0-20.784-2.856-26.088-6.016L83.72,315.32z"
	/>
<path d="M158.08,315.32c5.736,3.296,14.336,6.168,23.36,6.168c11.328,0,17.632-5.304,17.632-13.184
	c0-7.304-4.872-11.608-17.2-16.048c-15.904-5.736-26.08-14.184-26.08-28.096c0-15.768,13.176-27.8,34.112-27.8
	c10.464,0,18.192,2.288,23.208,4.864l-4.296,14.184c-3.44-1.856-10.168-4.584-19.2-4.584c-11.176,0-16.048,6.024-16.048,11.608
	c0,7.456,5.584,10.888,18.488,15.904c16.768,6.304,24.936,14.768,24.936,28.664c0,15.48-11.76,28.944-36.688,28.944
	c-10.176,0-20.784-2.856-26.088-6.016L158.08,315.32z"/>
<path d="M232.864,237.928h17.632v81.832h39.696v14.76h-57.328L232.864,237.928L232.864,237.928z"/>
<g>
</g>
<g>
</g>
<g>
</g>
<g>
</g>
<g>
</g>
<g>
</g>
<g>
</g>
<g>
</g>
<g>
</g>
<g>
</g>
<g>
</g>
<g>
</g>
<g>
</g>
<g>
</g>
<g>
</g>
</svg>
