<?xml version="1.0" encoding="UTF-8"?>
<svg width="110px" height="110px" viewBox="0 0 110 110" version="1.1" xmlns="http://www.w3.org/2000/svg" xmlns:xlink="http://www.w3.org/1999/xlink">
    <title>customize</title>
    <g id="customize" stroke="none" stroke-width="1" fill="none" fill-rule="evenodd">
        <g id="Group" transform="translate(24.500000, 26.408024)">
            <path d="M58.0564745,4.45952466 C59.4151652,4.45952466 60.5166016,5.57881279 60.5166016,6.95952466 C60.5166016,8.28500806 59.5015178,9.36956334 58.2182286,9.45420698 L58.0564745,9.45952466 L2.94962899,9.45952466 C1.59093834,9.45952466 0.489501953,8.34023654 0.489501953,6.95952466 C0.489501953,5.63404126 1.50458573,4.54948599 2.78787496,4.46484234 L2.94962899,4.45952466 L58.0564745,4.45952466 Z" id="Line-9" fill="#5B7899" fill-rule="nonzero"></path>
            <path d="M58.0564745,26.0919761 C59.4151652,26.0919761 60.5166016,27.2112642 60.5166016,28.5919761 C60.5166016,29.9174595 59.5015178,31.0020147 58.2182286,31.0866584 L58.0564745,31.0919761 L2.94962899,31.0919761 C1.59093834,31.0919761 0.489501953,29.9726879 0.489501953,28.5919761 C0.489501953,27.2664927 1.50458573,26.1819374 2.78787496,26.0972937 L2.94962899,26.0919761 L58.0564745,26.0919761 Z" id="Line-9-Copy" fill="#5B7899" fill-rule="nonzero"></path>
            <path d="M58.0564745,47.7244275 C59.4151652,47.7244275 60.5166016,48.8437156 60.5166016,50.2244275 C60.5166016,51.5499109 59.5015178,52.6344661 58.2182286,52.7191098 L58.0564745,52.7244275 L2.94962899,52.7244275 C1.59093834,52.7244275 0.489501953,51.6051393 0.489501953,50.2244275 C0.489501953,48.8989441 1.50458573,47.8143888 2.78787496,47.7297451 L2.94962899,47.7244275 L58.0564745,47.7244275 Z" id="Line-9-Copy-2" fill="#5B7899" fill-rule="nonzero"></path>
            <rect id="Rectangle" fill="#F7C26D" x="41.5" y="21.6324514" width="9.06782288" height="13.9190493" rx="2"></rect>
            <rect id="Rectangle-Copy" fill="#F7C26D" x="23.044103" y="43.2649028" width="9.06782288" height="13.9190493" rx="2"></rect>
            <rect id="Rectangle-Copy-2" fill="#F7C26D" x="12.9762801" y="-2.27373675e-13" width="9.06782288" height="13.9190493" rx="2"></rect>
        </g>
    </g>
</svg>