<?xml version="1.0" encoding="UTF-8"?>
<svg width="659px" height="80px" viewBox="0 0 659 80" version="1.1" xmlns="http://www.w3.org/2000/svg" xmlns:xlink="http://www.w3.org/1999/xlink">
    <title>Group 40</title>
    <defs>
        <rect id="path-1" x="0" y="0" width="114" height="65.5" rx="9"></rect>
        <filter x="-10.1%" y="-14.5%" width="120.2%" height="135.1%" filterUnits="objectBoundingBox" id="filter-2">
            <feOffset dx="0" dy="2" in="SourceAlpha" result="shadowOffsetOuter1"></feOffset>
            <feGaussianBlur stdDeviation="3.5" in="shadowOffsetOuter1" result="shadowBlurOuter1"></feGaussianBlur>
            <feColorMatrix values="0 0 0 0 0.247058824   0 0 0 0 0.251103798   0 0 0 0 0.403921569  0 0 0 0.294170673 0" type="matrix" in="shadowBlurOuter1"></feColorMatrix>
        </filter>
        <rect id="path-3" x="241" y="0" width="114" height="65.5" rx="9"></rect>
        <filter x="-10.1%" y="-14.5%" width="120.2%" height="135.1%" filterUnits="objectBoundingBox" id="filter-4">
            <feOffset dx="0" dy="2" in="SourceAlpha" result="shadowOffsetOuter1"></feOffset>
            <feGaussianBlur stdDeviation="3.5" in="shadowOffsetOuter1" result="shadowBlurOuter1"></feGaussianBlur>
            <feColorMatrix values="0 0 0 0 0.247058824   0 0 0 0 0.251103798   0 0 0 0 0.403921569  0 0 0 0.294170673 0" type="matrix" in="shadowBlurOuter1"></feColorMatrix>
        </filter>
        <rect id="path-5" x="385.965909" y="0" width="114" height="65.5" rx="9"></rect>
        <filter x="-10.1%" y="-14.5%" width="120.2%" height="135.1%" filterUnits="objectBoundingBox" id="filter-6">
            <feOffset dx="0" dy="2" in="SourceAlpha" result="shadowOffsetOuter1"></feOffset>
            <feGaussianBlur stdDeviation="3.5" in="shadowOffsetOuter1" result="shadowBlurOuter1"></feGaussianBlur>
            <feColorMatrix values="0 0 0 0 0.247058824   0 0 0 0 0.251103798   0 0 0 0 0.403921569  0 0 0 0.294170673 0" type="matrix" in="shadowBlurOuter1"></feColorMatrix>
        </filter>
        <rect id="path-7" x="530.931818" y="0" width="114" height="65.5" rx="9"></rect>
        <filter x="-10.1%" y="-14.5%" width="120.2%" height="135.1%" filterUnits="objectBoundingBox" id="filter-8">
            <feOffset dx="0" dy="2" in="SourceAlpha" result="shadowOffsetOuter1"></feOffset>
            <feGaussianBlur stdDeviation="3.5" in="shadowOffsetOuter1" result="shadowBlurOuter1"></feGaussianBlur>
            <feColorMatrix values="0 0 0 0 0.247058824   0 0 0 0 0.251103798   0 0 0 0 0.403921569  0 0 0 0.294170673 0" type="matrix" in="shadowBlurOuter1"></feColorMatrix>
        </filter>
        <path d="M154.978261,55.75 C154.223571,55.75 153.488204,55.5112655 152.877638,55.0679254 L152.877638,55.0679254 L146.796135,50.6523653 C146.185527,50.2090251 145.731058,49.583916 145.497837,48.866621 L145.497837,48.866621 L143.174915,41.7220907 C142.941695,41.0047537 142.941695,40.2320884 143.174915,39.5147934 L143.174915,39.5147934 L145.497837,32.3702631 C145.731058,31.6529261 146.185527,31.027817 146.796135,30.5845188 L146.796135,30.5845188 L151.605255,27.0920468 C151.412588,26.3726803 151.431521,25.6112435 151.662055,24.9001874 L151.662055,24.9001874 L154.163663,17.1840947 C154.414824,16.4093707 154.904252,15.7342528 155.561829,15.2554909 L155.561829,15.2554909 L162.11114,10.4866406 C162.768673,10.0078786 163.560607,9.75 164.37335,9.75 L164.37335,9.75 L172.468755,9.75 C173.281544,9.75 174.073433,10.0078786 174.73101,10.4866406 L174.73101,10.4866406 L181.280276,15.2554909 C181.937853,15.7342528 182.427282,16.4093707 182.678442,17.1840947 L182.678442,17.1840947 L182.9,17.869 L183.140796,17.6952325 C183.683521,17.3011897 184.324855,17.0687443 184.990716,17.0219545 L185.241419,17.0131579 L192.758581,17.0131579 C193.513313,17.0131579 194.248639,17.2519344 194.859246,17.6952325 L194.859246,17.6952325 L200.940707,22.1108346 C201.551315,22.5541327 202.005784,23.1792419 202.239005,23.8965789 L202.239005,23.8965789 L204.398,30.538 L208.641881,33.6043766 C209.122017,33.9511342 209.493019,34.4243066 209.714435,34.9685268 L209.790375,35.1758315 L211.845267,41.4630182 C212.051578,42.0942378 212.051578,42.7741833 211.845267,43.4054398 L211.845267,43.4054398 L209.790375,49.6926265 C209.584064,50.3238461 209.182034,50.8739421 208.641881,51.2640814 L208.641881,51.2640814 L203.262127,55.1497743 C202.721974,55.5399136 202.071494,55.75 201.403846,55.75 L201.403846,55.75 Z" id="path-9"></path>
        <filter x="-15.9%" y="-21.7%" width="131.9%" height="147.8%" filterUnits="objectBoundingBox" id="filter-10">
            <feMorphology radius="0.5" operator="dilate" in="SourceAlpha" result="shadowSpreadOuter1"></feMorphology>
            <feOffset dx="0" dy="1" in="shadowSpreadOuter1" result="shadowOffsetOuter1"></feOffset>
            <feGaussianBlur stdDeviation="3" in="shadowOffsetOuter1" result="shadowBlurOuter1"></feGaussianBlur>
            <feColorMatrix values="0 0 0 0 0.132449513   0 0 0 0 0.185970704   0 0 0 0 0.44446216  0 0 0 0.129561844 0" type="matrix" in="shadowBlurOuter1"></feColorMatrix>
        </filter>
    </defs>
    <g id="2021-June-Cert-Manager" stroke="none" stroke-width="1" fill="none" fill-rule="evenodd">
        <g id="Artboard" transform="translate(-28.000000, -35.000000)">
            <g id="Group-40" transform="translate(35.000000, 40.000000)">
                <line x1="86.5" y1="36.5" x2="567.857955" y2="36.5" id="Line-4" stroke="#D6E4F1" stroke-width="4" stroke-linecap="square"></line>
                <g id="Rectangle-Copy-6">
                    <use fill="black" fill-opacity="1" filter="url(#filter-2)" xlink:href="#path-1"></use>
                    <use fill="#EEF6FC" fill-rule="evenodd" xlink:href="#path-1"></use>
                </g>
                <g id="Rectangle-Copy-7">
                    <use fill="black" fill-opacity="1" filter="url(#filter-4)" xlink:href="#path-3"></use>
                    <use fill="#EEF6FC" fill-rule="evenodd" xlink:href="#path-3"></use>
                </g>
                <g id="Rectangle-Copy-8">
                    <use fill="black" fill-opacity="1" filter="url(#filter-6)" xlink:href="#path-5"></use>
                    <use fill="#FDF8EC" fill-rule="evenodd" xlink:href="#path-5"></use>
                </g>
                <g id="Rectangle-Copy-9">
                    <use fill="black" fill-opacity="1" filter="url(#filter-8)" xlink:href="#path-7"></use>
                    <use fill="#EEF6FC" fill-rule="evenodd" xlink:href="#path-7"></use>
                </g>
                <path d="M34.6939552,29.25 L34.6939552,21.3974609 L33.4102638,21.3974609 L33.4102638,29.25 L34.6939552,29.25 Z M38.6130664,29.3574219 C39.4008268,29.3574219 40.00597,29.2025553 40.4284961,28.8928223 C40.8510221,28.5830892 41.0622851,28.1381836 41.0622851,27.5581055 C41.0622851,27.2716471 41.0085742,27.025472 40.9011523,26.8195801 C40.7937304,26.6136882 40.6290169,26.4319661 40.4070117,26.2744141 C40.1850065,26.116862 39.8287239,25.9431966 39.338164,25.753418 C38.7545052,25.527832 38.3758431,25.3505859 38.2021777,25.2216797 C38.0285123,25.0927734 37.9416796,24.9352214 37.9416796,24.7490234 C37.9416796,24.3694661 38.2746875,24.1796875 38.9407031,24.1796875 C39.377552,24.1796875 39.9164518,24.3121745 40.5574023,24.5771484 L40.5574023,24.5771484 L40.9656054,23.6264648 C40.3425586,23.3435872 39.681914,23.2021484 38.9836718,23.2021484 C38.2782682,23.2021484 37.7205696,23.3426921 37.3105761,23.6237793 C36.9005826,23.9048665 36.6955859,24.2996419 36.6955859,24.8081055 C36.6955859,25.2306315 36.8164355,25.5743815 37.0581347,25.8393555 C37.2998339,26.1043294 37.7626432,26.3693034 38.4465625,26.6342773 C38.7974739,26.7703451 39.0713997,26.8920898 39.2683398,26.9995117 C39.4652799,27.1069336 39.6067187,27.2107747 39.6926562,27.3110352 C39.7785937,27.4112956 39.8215625,27.5366211 39.8215625,27.6870117 C39.8215625,28.1560872 39.4330533,28.390625 38.6560351,28.390625 C38.0544726,28.390625 37.4045703,28.2294922 36.7063281,27.9072266 L36.7063281,27.9072266 L36.7063281,28.9975586 C37.1861458,29.2374674 37.8217252,29.3574219 38.6130664,29.3574219 Z M44.4066893,29.3574219 C45.1944497,29.3574219 45.7995929,29.2025553 46.2221189,28.8928223 C46.644645,28.5830892 46.855908,28.1381836 46.855908,27.5581055 C46.855908,27.2716471 46.8021971,27.025472 46.6947752,26.8195801 C46.5873533,26.6136882 46.4226398,26.4319661 46.2006346,26.2744141 C45.9786294,26.116862 45.6223468,25.9431966 45.1317869,25.753418 C44.5481281,25.527832 44.1694659,25.3505859 43.9958006,25.2216797 C43.8221352,25.0927734 43.7353025,24.9352214 43.7353025,24.7490234 C43.7353025,24.3694661 44.0683103,24.1796875 44.734326,24.1796875 C45.1711749,24.1796875 45.7100747,24.3121745 46.3510252,24.5771484 L46.3510252,24.5771484 L46.7592283,23.6264648 C46.1361814,23.3435872 45.4755369,23.2021484 44.7772947,23.2021484 C44.0718911,23.2021484 43.5141925,23.3426921 43.104199,23.6237793 C42.6942055,23.9048665 42.4892088,24.2996419 42.4892088,24.8081055 C42.4892088,25.2306315 42.6100584,25.5743815 42.8517576,25.8393555 C43.0934568,26.1043294 43.5562661,26.3693034 44.2401853,26.6342773 C44.5910968,26.7703451 44.8650226,26.8920898 45.0619627,26.9995117 C45.2589028,27.1069336 45.4003416,27.2107747 45.4862791,27.3110352 C45.5722166,27.4112956 45.6151853,27.5366211 45.6151853,27.6870117 C45.6151853,28.1560872 45.2266762,28.390625 44.449658,28.390625 C43.8480955,28.390625 43.1981932,28.2294922 42.499951,27.9072266 L42.499951,27.9072266 L42.499951,28.9975586 C42.9797687,29.2374674 43.6153481,29.3574219 44.4066893,29.3574219 Z M50.7481637,29.3574219 C51.1635283,29.3574219 51.5332386,29.2786458 51.8572946,29.1210938 C52.1813505,28.9635417 52.4311064,28.7469076 52.6065621,28.4711914 L52.6065621,28.4711914 L52.6710153,28.4711914 L52.8482614,29.25 L53.8419137,29.25 L53.8419137,23.3095703 L52.5743356,23.3095703 L52.5743356,26.269043 C52.5743356,27.0138346 52.4499052,27.5446777 52.2010446,27.8615723 C51.9521839,28.1784668 51.5627796,28.3369141 51.0328317,28.3369141 C50.6353707,28.3369141 50.3435413,28.2232259 50.1573434,27.9958496 C49.9711455,27.7684733 49.8780465,27.4274089 49.8780465,26.9726562 L49.8780465,26.9726562 L49.8780465,23.3095703 L48.6050973,23.3095703 L48.6050973,27.1928711 C48.6050973,27.9197591 48.7823434,28.4622396 49.1368356,28.8203125 C49.4913278,29.1783854 50.0284371,29.3574219 50.7481637,29.3574219 Z M56.7190327,22.4287109 C56.9410379,22.4287109 57.1138081,22.3669434 57.2373432,22.2434082 C57.3608784,22.119873 57.422646,21.9506836 57.422646,21.7358398 C57.422646,21.5102539 57.3608784,21.3365885 57.2373432,21.2148438 C57.1138081,21.093099 56.9410379,21.0322266 56.7190327,21.0322266 C56.489866,21.0322266 56.3135151,21.093099 56.1899799,21.2148438 C56.0664448,21.3365885 56.0046772,21.5102539 56.0046772,21.7358398 C56.0046772,21.9506836 56.0664448,22.119873 56.1899799,22.2434082 C56.3135151,22.3669434 56.489866,22.4287109 56.7190327,22.4287109 Z M57.3420796,29.25 L57.3420796,23.3095703 L56.0798725,23.3095703 L56.0798725,29.25 L57.3420796,29.25 Z M60.8476165,29.25 L60.8476165,26.2905273 C60.8476165,25.5493164 60.9711517,25.0211589 61.218222,24.7060547 C61.4652923,24.3909505 61.8555918,24.2333984 62.3891204,24.2333984 C62.7901621,24.2333984 63.0828867,24.3461914 63.2672942,24.5717773 C63.4517018,24.7973633 63.5439056,25.1393229 63.5439056,25.5976562 L63.5439056,25.5976562 L63.5439056,29.25 L64.8114837,29.25 L64.8114837,25.3774414 C64.8114837,23.9272461 64.0989186,23.2021484 62.6737884,23.2021484 C62.2727467,23.2021484 61.9075123,23.2791341 61.5780853,23.4331055 C61.2486582,23.5870768 60.9944264,23.8055013 60.8153899,24.0883789 L60.8153899,24.0883789 L60.7509368,24.0883789 L60.5736907,23.3095703 L59.5854095,23.3095703 L59.5854095,29.25 L60.8476165,29.25 Z M68.7198527,31.8925781 C69.7690063,31.8925781 70.5710896,31.7099609 71.1261027,31.3447266 C71.6811157,30.9794922 71.9586222,30.4602865 71.9586222,29.7871094 C71.9586222,29.2607422 71.7885376,28.8579102 71.4483683,28.5786133 C71.108199,28.2993164 70.6104777,28.159668 69.9552042,28.159668 L69.9552042,28.159668 L68.9185831,28.159668 C68.5784139,28.159668 68.3447713,28.125651 68.2176554,28.0576172 C68.0905395,27.9895833 68.0269816,27.8875326 68.0269816,27.7514648 C68.0269816,27.5258789 68.1630493,27.3289388 68.4351847,27.1606445 C68.5891561,27.1892904 68.7610311,27.2036133 68.9508097,27.2036133 C69.6920206,27.2036133 70.2738891,27.0281576 70.6964152,26.6772461 C71.1189412,26.3263346 71.3302042,25.8447266 71.3302042,25.2324219 C71.3302042,25.0283203 71.299768,24.8349609 71.2388956,24.6523438 C71.1780232,24.4697266 71.1010376,24.3157552 71.0079386,24.1904297 L71.0079386,24.1904297 L72.0230753,24.0024414 L72.0230753,23.3095703 L69.9659464,23.3095703 C69.8728475,23.2845052 69.7340942,23.2603353 69.5496867,23.2370605 C69.3652791,23.2137858 69.1889282,23.2021484 69.0206339,23.2021484 C68.2686808,23.2021484 67.6894979,23.3793945 67.2830851,23.7338867 C66.8766723,24.0883789 66.6734659,24.5878906 66.6734659,25.2324219 C66.6734659,25.6334635 66.7692505,25.9834798 66.9608195,26.2824707 C67.1523885,26.5814616 67.4021443,26.7972005 67.710087,26.9296875 C67.4630167,27.0800781 67.2768188,27.2322591 67.1514933,27.3862305 C67.0261678,27.5402018 66.963505,27.7281901 66.963505,27.9501953 C66.963505,28.125651 67.0181111,28.2930501 67.1273234,28.4523926 C67.2365356,28.611735 67.3752889,28.7272135 67.5435831,28.7988281 C67.1282186,28.8955078 66.8050577,29.068278 66.5741007,29.3171387 C66.3431437,29.5659993 66.2276652,29.8730469 66.2276652,30.2382812 C66.2276652,30.7682292 66.4407186,31.1764323 66.8668253,31.4628906 C67.2929321,31.749349 67.9106079,31.8925781 68.7198527,31.8925781 Z M69.0098917,26.3925781 C68.6518188,26.3925781 68.3769979,26.2923177 68.1854288,26.0917969 C67.9938598,25.891276 67.8980753,25.6048177 67.8980753,25.2324219 C67.8980753,24.8349609 67.9920695,24.5323893 68.1800577,24.324707 C68.368046,24.1170247 68.6446574,24.0131836 69.0098917,24.0131836 C69.3787068,24.0131836 69.6535278,24.1179199 69.8343546,24.3273926 C70.0151814,24.5368652 70.1055949,24.8349609 70.1055949,25.2216797 C70.1055949,26.0022786 69.7403605,26.3925781 69.0098917,26.3925781 Z M68.7574503,31.0224609 C68.3134399,31.0224609 67.9687947,30.949056 67.7235148,30.8022461 C67.4782348,30.6554362 67.3555949,30.4459635 67.3555949,30.1738281 C67.3555949,29.8837891 67.4621215,29.6537272 67.6751749,29.4836426 C67.8882283,29.3135579 68.1755818,29.2285156 68.5372355,29.2285156 L68.5372355,29.2285156 L69.4932902,29.2285156 C69.9945923,29.2285156 70.3374471,29.2831217 70.5218546,29.392334 C70.7062622,29.5015462 70.7984659,29.6850586 70.7984659,29.9428711 C70.7984659,30.2687174 70.6301717,30.5301107 70.2935831,30.7270508 C69.9569946,30.9239909 69.4449503,31.0224609 68.7574503,31.0224609 Z M26.7411526,44.25 L27.509219,42.0693359 L30.5116604,42.0693359 L31.2958401,44.25 L32.6600979,44.25 L29.7221097,36.3652344 L28.3256253,36.3652344 L25.387637,44.25 L26.7411526,44.25 Z M30.1732815,40.9628906 L27.8851956,40.9628906 L28.59418,38.9165039 C28.7803779,38.3937174 28.9218167,37.9121094 29.0184964,37.4716797 C29.0543037,37.6149089 29.119652,37.8404948 29.2145413,38.1484375 C29.3094306,38.4563802 29.3837308,38.6819661 29.4374417,38.8251953 L29.4374417,38.8251953 L30.1732815,40.9628906 Z M36.0904396,44.3574219 C36.5058042,44.3574219 36.8755144,44.2786458 37.1995704,44.1210938 C37.5236264,43.9635417 37.7733823,43.7469076 37.948838,43.4711914 L37.948838,43.4711914 L38.0132911,43.4711914 L38.1905372,44.25 L39.1841896,44.25 L39.1841896,38.3095703 L37.9166114,38.3095703 L37.9166114,41.269043 C37.9166114,42.0138346 37.7921811,42.5446777 37.5433204,42.8615723 C37.2944598,43.1784668 36.9050555,43.3369141 36.3751075,43.3369141 C35.9776466,43.3369141 35.6858172,43.2232259 35.4996193,42.9958496 C35.3134213,42.7684733 35.2203224,42.4274089 35.2203224,41.9726562 L35.2203224,41.9726562 L35.2203224,38.3095703 L33.9473732,38.3095703 L33.9473732,42.1928711 C33.9473732,42.9197591 34.1246193,43.4622396 34.4791114,43.8203125 C34.8336036,44.1783854 35.370713,44.3574219 36.0904396,44.3574219 Z M43.3342578,44.3574219 C43.5705859,44.3574219 43.7988574,44.3368327 44.0190722,44.2956543 C44.2392871,44.2544759 44.4192187,44.2034505 44.5588671,44.1425781 L44.5588671,44.1425781 L44.5588671,43.1918945 C44.2509244,43.2885742 43.9429817,43.3369141 43.635039,43.3369141 C43.3879687,43.3369141 43.1883431,43.2644043 43.0361621,43.1193848 C42.8839811,42.9743652 42.8078906,42.7496745 42.8078906,42.4453125 L42.8078906,42.4453125 L42.8078906,39.265625 L44.4997851,39.265625 L44.4997851,38.3095703 L42.8078906,38.3095703 L42.8078906,36.9882812 L42.029082,36.9882812 L41.5993945,38.2451172 L40.7292773,38.7070312 L40.7292773,39.265625 L41.5403125,39.265625 L41.5403125,42.4667969 C41.5403125,43.7272135 42.1382942,44.3574219 43.3342578,44.3574219 Z M47.4467283,44.25 L47.4467283,41.3012695 C47.4467283,40.5564779 47.5711587,40.0256348 47.8200193,39.7087402 C48.06888,39.3918457 48.4582843,39.2333984 48.9882322,39.2333984 C49.3892739,39.2333984 49.6819985,39.3461914 49.866406,39.5717773 C50.0508136,39.7973633 50.1430174,40.1393229 50.1430174,40.5976562 L50.1430174,40.5976562 L50.1430174,44.25 L51.4105955,44.25 L51.4105955,40.3774414 C51.4105955,38.9272461 50.6908689,38.2021484 49.2514158,38.2021484 C48.8432127,38.2021484 48.486035,38.2809245 48.1798826,38.4384766 C47.8737303,38.5960286 47.6347166,38.8180339 47.4628416,39.1044922 L47.4628416,39.1044922 L47.3822752,39.1044922 C47.4252439,38.7177734 47.4467283,38.3543294 47.4467283,38.0141602 L47.4467283,38.0141602 L47.4467283,35.8925781 L46.1845213,35.8925781 L46.1845213,44.25 L47.4467283,44.25 Z M56.0494332,44.3574219 C56.9374541,44.3574219 57.6303252,44.0852865 58.1280465,43.5410156 C58.6257679,42.9967448 58.8746285,42.2394206 58.8746285,41.269043 C58.8746285,40.3308919 58.6239775,39.5852051 58.1226754,39.0319824 C57.6213733,38.4787598 56.9410348,38.2021484 56.0816598,38.2021484 C55.1828968,38.2021484 54.4864449,38.4724935 53.9923043,39.0131836 C53.4981637,39.5538737 53.2510934,40.3058268 53.2510934,41.269043 C53.2510934,41.8885091 53.3656767,42.4327799 53.5948434,42.9018555 C53.8240101,43.370931 54.1516468,43.7307943 54.5777535,43.9814453 C55.0038603,44.2320964 55.4944202,44.3574219 56.0494332,44.3574219 Z M56.0709176,43.3261719 C55.0575713,43.3261719 54.5508981,42.6404622 54.5508981,41.269043 C54.5508981,40.6137695 54.6699573,40.1106771 54.9080758,39.7597656 C55.1461943,39.4088542 55.5302275,39.2333984 56.0601754,39.2333984 C57.069941,39.2333984 57.5748239,39.9119466 57.5748239,41.269043 C57.5748239,42.6404622 57.0735218,43.3261719 56.0709176,43.3261719 Z M62.0256733,44.25 L62.0256733,41.1455078 C62.0256733,40.6191406 62.1823302,40.1912435 62.495644,39.8618164 C62.8089578,39.5323893 63.2180561,39.3676758 63.7229389,39.3676758 C63.9162983,39.3676758 64.1024962,39.3891602 64.2815327,39.4321289 L64.2815327,39.4321289 L64.4050678,38.2558594 C64.2403543,38.2200521 64.0308816,38.2021484 63.7766499,38.2021484 C63.4114155,38.2021484 63.070351,38.3059896 62.7534565,38.5136719 C62.436562,38.7213542 62.1796447,39.0024414 61.9827046,39.3569336 L61.9827046,39.3569336 L61.9182514,39.3569336 L61.7517475,38.3095703 L60.7634663,38.3095703 L60.7634663,44.25 L62.0256733,44.25 Z M66.5839446,37.4287109 C66.8059498,37.4287109 66.97872,37.3669434 67.1022552,37.2434082 C67.2257903,37.119873 67.2875579,36.9506836 67.2875579,36.7358398 C67.2875579,36.5102539 67.2257903,36.3365885 67.1022552,36.2148438 C66.97872,36.093099 66.8059498,36.0322266 66.5839446,36.0322266 C66.354778,36.0322266 66.178427,36.093099 66.0548919,36.2148438 C65.9313567,36.3365885 65.8695892,36.5102539 65.8695892,36.7358398 C65.8695892,36.9506836 65.9313567,37.119873 66.0548919,37.2434082 C66.178427,37.3669434 66.354778,37.4287109 66.5839446,37.4287109 Z M67.2069915,44.25 L67.2069915,38.3095703 L65.9447845,38.3095703 L65.9447845,44.25 L67.2069915,44.25 Z M71.3624308,44.3574219 C71.5987589,44.3574219 71.8270304,44.3368327 72.0472452,44.2956543 C72.2674601,44.2544759 72.4473917,44.2034505 72.5870402,44.1425781 L72.5870402,44.1425781 L72.5870402,43.1918945 C72.2790975,43.2885742 71.9711548,43.3369141 71.663212,43.3369141 C71.4161417,43.3369141 71.2165161,43.2644043 71.0643351,43.1193848 C70.9121541,42.9743652 70.8360636,42.7496745 70.8360636,42.4453125 L70.8360636,42.4453125 L70.8360636,39.265625 L72.5279581,39.265625 L72.5279581,38.3095703 L70.8360636,38.3095703 L70.8360636,36.9882812 L70.057255,36.9882812 L69.6275675,38.2451172 L68.7574503,38.7070312 L68.7574503,39.265625 L69.5684855,39.265625 L69.5684855,42.4667969 C69.5684855,43.7272135 70.1664673,44.3574219 71.3624308,44.3574219 Z M74.3577138,46.8925781 C75.4355133,46.8925781 76.2053701,46.2749023 76.6672841,45.0395508 L76.6672841,45.0395508 L79.2078115,38.3095703 L77.8435537,38.3095703 C77.019986,40.6979167 76.5652334,42.0326335 76.4792959,42.3137207 C76.3933584,42.5948079 76.3342763,42.8338216 76.3020498,43.0307617 L76.3020498,43.0307617 L76.259081,43.0307617 C76.1982086,42.6082357 76.0764638,42.1570638 75.8938466,41.6772461 L75.8938466,41.6772461 L74.6853506,38.3095703 L73.3103506,38.3095703 L75.6951162,44.25 L75.4749013,44.8085938 C75.227831,45.5139974 74.7999339,45.8666992 74.1912099,45.8666992 C73.9477203,45.8666992 73.7310862,45.8452148 73.5413076,45.8022461 L73.5413076,45.8022461 L73.5413076,46.8012695 C73.8062815,46.8621419 74.078417,46.8925781 74.3577138,46.8925781 Z" id="IssuingAuthority" fill="#07013C" fill-rule="nonzero"></path>
                <path d="M284.191851,21.5 L284.959918,19.3193359 L287.962359,19.3193359 L288.746539,21.5 L290.110797,21.5 L287.172808,13.6152344 L285.776324,13.6152344 L282.838336,21.5 L284.191851,21.5 Z M287.62398,18.2128906 L285.335894,18.2128906 L286.044879,16.1665039 C286.231077,15.6437174 286.372515,15.1621094 286.469195,14.7216797 C286.505002,14.8649089 286.570351,15.0904948 286.66524,15.3984375 L286.719703,15.5733203 C286.789026,15.7933203 286.845172,15.960612 286.88814,16.0751953 L286.88814,16.0751953 L287.62398,18.2128906 Z M294.771119,21.6074219 C295.551718,21.6074219 296.24996,21.4910482 296.865845,21.2583008 L296.865845,21.2583008 L296.865845,20.1572266 C296.529257,20.2610677 296.205201,20.34611 295.893677,20.4123535 C295.582154,20.478597 295.259888,20.5117188 294.92688,20.5117188 C294.157024,20.5117188 293.568889,20.2646484 293.162476,19.7705078 C292.756063,19.2763672 292.552857,18.5476888 292.552857,17.5844727 C292.552857,16.6642253 292.76412,15.9427083 293.186646,15.4199219 C293.609172,14.8971354 294.18925,14.6357422 294.92688,14.6357422 C295.252727,14.6357422 295.563355,14.6831868 295.858765,14.7780762 C296.154175,14.8729655 296.434367,14.9830729 296.699341,15.1083984 L296.699341,15.1083984 L297.161255,14.0395508 C296.480917,13.7029622 295.739706,13.534668 294.937623,13.534668 C294.174927,13.534668 293.510702,13.6975911 292.944947,14.0234375 C292.379192,14.3492839 291.946819,14.8183594 291.647828,15.4306641 C291.348837,16.0429688 291.199341,16.7573242 291.199341,17.5737305 C291.199341,18.8699544 291.507284,19.8662923 292.12317,20.5627441 C292.739055,21.259196 293.621705,21.6074219 294.771119,21.6074219 Z M300.16191,21.5 L300.16191,17.6811523 C300.16191,16.8289388 300.131473,15.9158529 300.070601,14.9418945 L300.070601,14.9418945 L300.11357,14.9418945 L302.390914,21.5 L303.524214,21.5 L305.882124,14.9526367 L305.925093,14.9526367 C305.91077,15.0851237 305.893762,15.464681 305.874068,16.0913086 C305.854374,16.7179362 305.844527,17.2263997 305.844527,17.6166992 L305.844527,17.6166992 L305.844527,21.5 L307.079878,21.5 L307.079878,13.6474609 L305.264449,13.6474609 L303.019331,19.894043 L302.987105,19.894043 L300.806441,13.6474609 L298.996382,13.6474609 L298.996382,21.5 L300.16191,21.5 Z M314.028286,21.5 L314.028286,20.409668 L310.870083,20.409668 L310.870083,17.9443359 L313.829556,17.9443359 L313.829556,16.8701172 L310.870083,16.8701172 L310.870083,14.7324219 L314.028286,14.7324219 L314.028286,13.6474609 L309.586392,13.6474609 L309.586392,21.5 L314.028286,21.5 Z M266.447536,36.5 L266.447536,33.3632812 L267.715114,33.3632812 L269.594997,36.5 L271.055934,36.5 L268.837672,33.0249023 C269.854599,32.6095378 270.363063,31.9130859 270.363063,30.9355469 C270.363063,30.1692708 270.119573,29.5963542 269.632594,29.2167969 C269.145615,28.8372396 268.395452,28.6474609 267.382106,28.6474609 L267.382106,28.6474609 L265.163844,28.6474609 L265.163844,36.5 L266.447536,36.5 Z M267.339137,32.2998047 L266.447536,32.2998047 L266.447536,29.7324219 L267.296168,29.7324219 C267.879827,29.7324219 268.316676,29.8291016 268.606715,30.0224609 C268.896754,30.2158203 269.041774,30.5345052 269.041774,30.9785156 C269.041774,31.4153646 268.907497,31.7447917 268.638942,31.9667969 C268.370387,32.1888021 267.937119,32.2998047 267.339137,32.2998047 L267.339137,32.2998047 Z M275.093209,36.6074219 C275.497832,36.6074219 275.857695,36.5769857 276.172799,36.5161133 C276.487903,36.4552409 276.799427,36.3513997 277.107369,36.2045898 L277.107369,36.2045898 L277.107369,35.1787109 C276.760039,35.3326823 276.435088,35.4427897 276.132516,35.5090332 C275.829944,35.5752767 275.503203,35.6083984 275.152291,35.6083984 C274.618763,35.6083984 274.205188,35.4535319 273.911569,35.1437988 C273.617949,34.8340658 273.462187,34.3909505 273.444283,33.8144531 L273.444283,33.8144531 L277.40278,33.8144531 L277.40278,33.1323242 C277.40278,32.2980143 277.175403,31.6427409 276.720651,31.1665039 C276.265898,30.6902669 275.646432,30.4521484 274.862252,30.4521484 C274.0172,30.4521484 273.352975,30.7296549 272.869576,31.284668 C272.386178,31.839681 272.144479,32.6023763 272.144479,33.5727539 C272.144479,34.5180664 272.404977,35.2601725 272.925973,35.7990723 C273.446969,36.337972 274.169381,36.6074219 275.093209,36.6074219 Z M276.162057,32.9013672 L273.465768,32.9013672 C273.512317,32.414388 273.656442,32.0437826 273.898141,31.7895508 C274.13984,31.535319 274.461211,31.4082031 274.862252,31.4082031 C275.263294,31.4082031 275.578398,31.5344238 275.807565,31.7868652 C276.036731,32.0393066 276.154895,32.4108073 276.162057,32.9013672 L276.162057,32.9013672 Z M280.988883,39.1425781 C282.038037,39.1425781 282.84012,38.9599609 283.395133,38.5947266 C283.950146,38.2294922 284.227652,37.7102865 284.227652,37.0371094 C284.227652,36.5107422 284.057568,36.1079102 283.717399,35.8286133 C283.377229,35.5493164 282.879508,35.409668 282.224234,35.409668 L282.224234,35.409668 L281.187613,35.409668 C280.847444,35.409668 280.613802,35.375651 280.486686,35.3076172 C280.35957,35.2395833 280.296012,35.1375326 280.296012,35.0014648 C280.296012,34.7758789 280.43208,34.5789388 280.704215,34.4106445 C280.858186,34.4392904 281.030061,34.4536133 281.21984,34.4536133 C281.961051,34.4536133 282.542919,34.2781576 282.965445,33.9272461 C283.387971,33.5763346 283.599234,33.0947266 283.599234,32.4824219 C283.599234,32.2783203 283.568798,32.0849609 283.507926,31.9023438 C283.447053,31.7197266 283.370068,31.5657552 283.276969,31.4404297 L283.276969,31.4404297 L284.292106,31.2524414 L284.292106,30.5595703 L282.234977,30.5595703 C282.141878,30.5345052 282.003124,30.5103353 281.818717,30.4870605 C281.634309,30.4637858 281.457958,30.4521484 281.289664,30.4521484 C280.537711,30.4521484 279.958528,30.6293945 279.552115,30.9838867 C279.145703,31.3383789 278.942496,31.8378906 278.942496,32.4824219 C278.942496,32.8834635 279.038281,33.2334798 279.22985,33.5324707 C279.421419,33.8314616 279.671175,34.0472005 279.979117,34.1796875 C279.732047,34.3300781 279.545849,34.4822591 279.420524,34.6362305 C279.295198,34.7902018 279.232535,34.9781901 279.232535,35.2001953 C279.232535,35.375651 279.287141,35.5430501 279.396354,35.7023926 C279.505566,35.861735 279.644319,35.9772135 279.812613,36.0488281 C279.397249,36.1455078 279.074088,36.318278 278.843131,36.5671387 C278.612174,36.8159993 278.496695,37.1230469 278.496695,37.4882812 C278.496695,38.0182292 278.709749,38.4264323 279.135856,38.7128906 C279.561962,38.999349 280.179638,39.1425781 280.988883,39.1425781 Z M281.278922,33.6425781 C280.920849,33.6425781 280.646028,33.5423177 280.454459,33.3417969 C280.26289,33.141276 280.167106,32.8548177 280.167106,32.4824219 C280.167106,32.0849609 280.2611,31.7823893 280.449088,31.574707 C280.637076,31.3670247 280.913688,31.2631836 281.278922,31.2631836 C281.647737,31.2631836 281.922558,31.3679199 282.103385,31.5773926 C282.284212,31.7868652 282.374625,32.0849609 282.374625,32.4716797 C282.374625,33.2522786 282.009391,33.6425781 281.278922,33.6425781 Z M281.026481,38.2724609 C280.58247,38.2724609 280.237825,38.199056 279.992545,38.0522461 C279.747265,37.9054362 279.624625,37.6959635 279.624625,37.4238281 C279.624625,37.1337891 279.731152,36.9037272 279.944205,36.7336426 C280.157259,36.5635579 280.444612,36.4785156 280.806266,36.4785156 L280.806266,36.4785156 L281.76232,36.4785156 C282.263623,36.4785156 282.606477,36.5331217 282.790885,36.642334 C282.975292,36.7515462 283.067496,36.9350586 283.067496,37.1928711 C283.067496,37.5187174 282.899202,37.7801107 282.562613,37.9770508 C282.226025,38.1739909 281.713981,38.2724609 281.026481,38.2724609 Z M286.470982,29.6787109 C286.692988,29.6787109 286.865758,29.6169434 286.989293,29.4934082 C287.112828,29.369873 287.174596,29.2006836 287.174596,28.9858398 C287.174596,28.7602539 287.112828,28.5865885 286.989293,28.4648438 C286.865758,28.343099 286.692988,28.2822266 286.470982,28.2822266 C286.241816,28.2822266 286.065465,28.343099 285.94193,28.4648438 C285.818394,28.5865885 285.756627,28.7602539 285.756627,28.9858398 C285.756627,29.2006836 285.818394,29.369873 285.94193,29.4934082 C286.065465,29.6169434 286.241816,29.6787109 286.470982,29.6787109 Z M287.094029,36.5 L287.094029,30.5595703 L285.831822,30.5595703 L285.831822,36.5 L287.094029,36.5 Z M290.878863,36.6074219 C291.666623,36.6074219 292.271767,36.4525553 292.694293,36.1428223 C293.116819,35.8330892 293.328082,35.3881836 293.328082,34.8081055 C293.328082,34.5216471 293.274371,34.275472 293.166949,34.0695801 C293.059527,33.8636882 292.894814,33.6819661 292.672808,33.5244141 C292.450803,33.366862 292.094521,33.1931966 291.603961,33.003418 C291.020302,32.777832 290.64164,32.6005859 290.467974,32.4716797 C290.294309,32.3427734 290.207476,32.1852214 290.207476,31.9990234 C290.207476,31.6194661 290.540484,31.4296875 291.2065,31.4296875 C291.643349,31.4296875 292.182248,31.5621745 292.823199,31.8271484 L292.823199,31.8271484 L293.231402,30.8764648 C292.608355,30.5935872 291.947711,30.4521484 291.249469,30.4521484 C290.544065,30.4521484 289.986366,30.5926921 289.576373,30.8737793 C289.166379,31.1548665 288.961383,31.5496419 288.961383,32.0581055 C288.961383,32.4806315 289.082232,32.8243815 289.323931,33.0893555 C289.565631,33.3543294 290.02844,33.6193034 290.712359,33.8842773 C291.063271,34.0203451 291.337196,34.1420898 291.534137,34.2495117 C291.731077,34.3569336 291.872515,34.4607747 291.958453,34.5610352 C292.04439,34.6612956 292.087359,34.7866211 292.087359,34.9370117 C292.087359,35.4060872 291.69885,35.640625 290.921832,35.640625 C290.320269,35.640625 289.670367,35.4794922 288.972125,35.1572266 L288.972125,35.1572266 L288.972125,36.2475586 C289.451942,36.4874674 290.087522,36.6074219 290.878863,36.6074219 Z M297.043091,36.6074219 C297.27942,36.6074219 297.507691,36.5868327 297.727906,36.5456543 C297.948121,36.5044759 298.128052,36.4534505 298.267701,36.3925781 L298.267701,36.3925781 L298.267701,35.4418945 C297.959758,35.5385742 297.651815,35.5869141 297.343873,35.5869141 C297.096802,35.5869141 296.897177,35.5144043 296.744996,35.3693848 C296.592815,35.2243652 296.516724,34.9996745 296.516724,34.6953125 L296.516724,34.6953125 L296.516724,31.515625 L298.208619,31.515625 L298.208619,30.5595703 L296.516724,30.5595703 L296.516724,29.2382812 L295.737916,29.2382812 L295.308228,30.4951172 L294.438111,30.9570312 L294.438111,31.515625 L295.249146,31.515625 L295.249146,34.7167969 C295.249146,35.9772135 295.847128,36.6074219 297.043091,36.6074219 Z M301.155562,36.5 L301.155562,33.3955078 C301.155562,32.8691406 301.312219,32.4412435 301.625533,32.1118164 C301.938846,31.7823893 302.347945,31.6176758 302.852828,31.6176758 C303.046187,31.6176758 303.232385,31.6391602 303.411421,31.6821289 L303.411421,31.6821289 L303.534956,30.5058594 C303.370243,30.4700521 303.16077,30.4521484 302.906539,30.4521484 C302.541304,30.4521484 302.20024,30.5559896 301.883345,30.7636719 C301.566451,30.9713542 301.309533,31.2524414 301.112593,31.6069336 L301.112593,31.6069336 L301.04814,31.6069336 L300.881636,30.5595703 L299.893355,30.5595703 L299.893355,36.5 L301.155562,36.5 Z M306.514126,36.6074219 C306.968879,36.6074219 307.341275,36.5420736 307.631314,36.411377 C307.921353,36.2806803 308.209602,36.0345052 308.49606,35.6728516 L308.49606,35.6728516 L308.539029,35.6728516 L308.79147,36.5 L309.693814,36.5 L309.693814,32.4985352 C309.693814,31.7931315 309.50135,31.2757161 309.116421,30.9462891 C308.731493,30.616862 308.161262,30.4521484 307.405728,30.4521484 C307.065559,30.4521484 306.703905,30.4960124 306.320767,30.5837402 C305.937629,30.6714681 305.584927,30.7994792 305.262661,30.9677734 L305.262661,30.9677734 L305.670865,31.8701172 C305.928677,31.7483724 306.197232,31.6427409 306.476529,31.5532227 C306.755825,31.4637044 307.047655,31.4189453 307.352017,31.4189453 C307.724413,31.4189453 307.999234,31.5129395 308.17648,31.7009277 C308.353726,31.888916 308.442349,32.1726888 308.442349,32.5522461 L308.442349,32.5522461 L308.442349,32.8691406 L307.41647,32.9013672 C306.48548,32.930013 305.792609,33.1000977 305.337857,33.4116211 C304.883104,33.7231445 304.655728,34.1850586 304.655728,34.7973633 C304.655728,35.3738607 304.819546,35.8196615 305.147183,36.1347656 C305.47482,36.4498698 305.930467,36.6074219 306.514126,36.6074219 Z M306.911587,35.640625 C306.596483,35.640625 306.360155,35.5681152 306.202603,35.4230957 C306.045051,35.2780762 305.966275,35.0730794 305.966275,34.8081055 C305.966275,34.4428711 306.101447,34.1716309 306.371792,33.9943848 C306.642137,33.8171387 307.07451,33.7177734 307.668911,33.6962891 L307.668911,33.6962891 L308.431607,33.6640625 L308.431607,34.1796875 C308.431607,34.6416016 308.292853,35.0005697 308.015347,35.2565918 C307.73784,35.5126139 307.369921,35.640625 306.911587,35.640625 Z M313.806284,36.6074219 C314.042612,36.6074219 314.270884,36.5868327 314.491099,36.5456543 C314.711314,36.5044759 314.891245,36.4534505 315.030894,36.3925781 L315.030894,36.3925781 L315.030894,35.4418945 C314.722951,35.5385742 314.415008,35.5869141 314.107066,35.5869141 C313.859995,35.5869141 313.66037,35.5144043 313.508189,35.3693848 C313.356008,35.2243652 313.279917,34.9996745 313.279917,34.6953125 L313.279917,34.6953125 L313.279917,31.515625 L314.971812,31.515625 L314.971812,30.5595703 L313.279917,30.5595703 L313.279917,29.2382812 L312.501109,29.2382812 L312.071421,30.4951172 L311.201304,30.9570312 L311.201304,31.515625 L312.012339,31.515625 L312.012339,34.7167969 C312.012339,35.9772135 312.610321,36.6074219 313.806284,36.6074219 Z M317.295708,29.6787109 C317.517713,29.6787109 317.690483,29.6169434 317.814019,29.4934082 C317.937554,29.369873 317.999321,29.2006836 317.999321,28.9858398 C317.999321,28.7602539 317.937554,28.5865885 317.814019,28.4648438 C317.690483,28.343099 317.517713,28.2822266 317.295708,28.2822266 C317.066541,28.2822266 316.89019,28.343099 316.766655,28.4648438 C316.64312,28.5865885 316.581352,28.7602539 316.581352,28.9858398 C316.581352,29.2006836 316.64312,29.369873 316.766655,29.4934082 C316.89019,29.6169434 317.066541,29.6787109 317.295708,29.6787109 Z M317.918755,36.5 L317.918755,30.5595703 L316.656548,30.5595703 L316.656548,36.5 L317.918755,36.5 Z M322.605932,36.6074219 C323.493953,36.6074219 324.186824,36.3352865 324.684546,35.7910156 C325.182267,35.2467448 325.431128,34.4894206 325.431128,33.519043 C325.431128,32.5808919 325.180477,31.8352051 324.679175,31.2819824 C324.177873,30.7287598 323.497534,30.4521484 322.638159,30.4521484 C321.739396,30.4521484 321.042944,30.7224935 320.548804,31.2631836 C320.054663,31.8038737 319.807593,32.5558268 319.807593,33.519043 C319.807593,34.1385091 319.922176,34.6827799 320.151343,35.1518555 C320.380509,35.620931 320.708146,35.9807943 321.134253,36.2314453 C321.560359,36.4820964 322.050919,36.6074219 322.605932,36.6074219 Z M322.627417,35.5761719 C321.61407,35.5761719 321.107397,34.8904622 321.107397,33.519043 C321.107397,32.8637695 321.226457,32.3606771 321.464575,32.0097656 C321.702693,31.6588542 322.086727,31.4833984 322.616675,31.4833984 C323.62644,31.4833984 324.131323,32.1619466 324.131323,33.519043 C324.131323,34.8904622 323.630021,35.5761719 322.627417,35.5761719 Z M328.582172,36.5 L328.582172,33.5405273 C328.582172,32.7993164 328.705708,32.2711589 328.952778,31.9560547 C329.199848,31.6409505 329.590148,31.4833984 330.123676,31.4833984 C330.524718,31.4833984 330.817443,31.5961914 331.00185,31.8217773 C331.186258,32.0473633 331.278462,32.3893229 331.278462,32.8476562 L331.278462,32.8476562 L331.278462,36.5 L332.54604,36.5 L332.54604,32.6274414 C332.54604,31.1772461 331.833475,30.4521484 330.408344,30.4521484 C330.007303,30.4521484 329.642068,30.5291341 329.312641,30.6831055 C328.983214,30.8370768 328.728982,31.0555013 328.549946,31.3383789 L328.549946,31.3383789 L328.485493,31.3383789 L328.308247,30.5595703 L327.319965,30.5595703 L327.319965,36.5 L328.582172,36.5 Z M273.207062,51.5 L273.975128,49.3193359 L276.97757,49.3193359 L277.761749,51.5 L279.126007,51.5 L276.188019,43.6152344 L274.791534,43.6152344 L271.853546,51.5 L273.207062,51.5 Z M276.639191,48.2128906 L274.351105,48.2128906 L275.060089,46.1665039 C275.246287,45.6437174 275.387726,45.1621094 275.484405,44.7216797 C275.520213,44.8649089 275.585561,45.0904948 275.68045,45.3984375 C275.77534,45.7063802 275.84964,45.9319661 275.903351,46.0751953 L275.903351,46.0751953 L276.639191,48.2128906 Z M282.556349,51.6074219 C282.971713,51.6074219 283.341424,51.5286458 283.66548,51.3710938 C283.989536,51.2135417 284.239291,50.9969076 284.414747,50.7211914 L284.414747,50.7211914 L284.4792,50.7211914 L284.656446,51.5 L285.650099,51.5 L285.650099,45.5595703 L284.382521,45.5595703 L284.382521,48.519043 C284.382521,49.2638346 284.25809,49.7946777 284.00923,50.1115723 C283.760369,50.4284668 283.370965,50.5869141 282.841017,50.5869141 C282.443556,50.5869141 282.151726,50.4732259 281.965528,50.2458496 C281.77933,50.0184733 281.686231,49.6774089 281.686231,49.2226562 L281.686231,49.2226562 L281.686231,45.5595703 L280.413282,45.5595703 L280.413282,49.4428711 C280.413282,50.1697591 280.590528,50.7122396 280.945021,51.0703125 C281.299513,51.4283854 281.836622,51.6074219 282.556349,51.6074219 Z M289.800167,51.6074219 C290.036495,51.6074219 290.264766,51.5868327 290.484981,51.5456543 C290.705196,51.5044759 290.885128,51.4534505 291.024776,51.3925781 L291.024776,51.3925781 L291.024776,50.4418945 C290.716834,50.5385742 290.408891,50.5869141 290.100948,50.5869141 C289.853878,50.5869141 289.654252,50.5144043 289.502071,50.3693848 C289.34989,50.2243652 289.2738,49.9996745 289.2738,49.6953125 L289.2738,49.6953125 L289.2738,46.515625 L290.965694,46.515625 L290.965694,45.5595703 L289.2738,45.5595703 L289.2738,44.2382812 L288.494991,44.2382812 L288.065304,45.4951172 L287.195186,45.9570312 L287.195186,46.515625 L288.006222,46.515625 L288.006222,49.7167969 C288.006222,50.9772135 288.604203,51.6074219 289.800167,51.6074219 Z M293.912637,51.5 L293.912637,48.5512695 C293.912637,47.8064779 294.037068,47.2756348 294.285928,46.9587402 C294.534789,46.6418457 294.924193,46.4833984 295.454141,46.4833984 C295.855183,46.4833984 296.147908,46.5961914 296.332315,46.8217773 C296.516723,47.0473633 296.608926,47.3893229 296.608926,47.8476562 L296.608926,47.8476562 L296.608926,51.5 L297.876505,51.5 L297.876505,47.6274414 C297.876505,46.1772461 297.156778,45.4521484 295.717325,45.4521484 C295.309122,45.4521484 294.951944,45.5309245 294.645792,45.6884766 C294.339639,45.8460286 294.100626,46.0680339 293.928751,46.3544922 L293.928751,46.3544922 L293.848184,46.3544922 C293.891153,45.9677734 293.912637,45.6043294 293.912637,45.2641602 L293.912637,45.2641602 L293.912637,43.1425781 L292.65043,43.1425781 L292.65043,51.5 L293.912637,51.5 Z M302.515342,51.6074219 C303.403363,51.6074219 304.096234,51.3352865 304.593956,50.7910156 C305.091677,50.2467448 305.340538,49.4894206 305.340538,48.519043 C305.340538,47.5808919 305.089887,46.8352051 304.588585,46.2819824 C304.087282,45.7287598 303.406944,45.4521484 302.547569,45.4521484 C301.648806,45.4521484 300.952354,45.7224935 300.458213,46.2631836 C299.964073,46.8038737 299.717002,47.5558268 299.717002,48.519043 C299.717002,49.1385091 299.831586,49.6827799 300.060752,50.1518555 C300.289919,50.620931 300.617556,50.9807943 301.043663,51.2314453 C301.469769,51.4820964 301.960329,51.6074219 302.515342,51.6074219 Z M302.536827,50.5761719 C301.52348,50.5761719 301.016807,49.8904622 301.016807,48.519043 C301.016807,47.8637695 301.135866,47.3606771 301.373985,47.0097656 C301.612103,46.6588542 301.996137,46.4833984 302.526085,46.4833984 C303.53585,46.4833984 304.040733,47.1619466 304.040733,48.519043 C304.040733,49.8904622 303.539431,50.5761719 302.536827,50.5761719 Z M308.491582,51.5 L308.491582,48.3955078 C308.491582,47.8691406 308.648239,47.4412435 308.961553,47.1118164 C309.274867,46.7823893 309.683965,46.6176758 310.188848,46.6176758 C310.382207,46.6176758 310.568405,46.6391602 310.747442,46.6821289 L310.747442,46.6821289 L310.870977,45.5058594 C310.706263,45.4700521 310.496791,45.4521484 310.242559,45.4521484 C309.877325,45.4521484 309.53626,45.5559896 309.219366,45.7636719 C308.902471,45.9713542 308.645554,46.2524414 308.448614,46.6069336 L308.448614,46.6069336 L308.384161,46.6069336 L308.217657,45.5595703 L307.229375,45.5595703 L307.229375,51.5 L308.491582,51.5 Z M313.049854,44.6787109 C313.271859,44.6787109 313.444629,44.6169434 313.568164,44.4934082 C313.691699,44.369873 313.753467,44.2006836 313.753467,43.9858398 C313.753467,43.7602539 313.691699,43.5865885 313.568164,43.4648438 C313.444629,43.343099 313.271859,43.2822266 313.049854,43.2822266 C312.820687,43.2822266 312.644336,43.343099 312.520801,43.4648438 C312.397266,43.5865885 312.335498,43.7602539 312.335498,43.9858398 C312.335498,44.2006836 312.397266,44.369873 312.520801,44.4934082 C312.644336,44.6169434 312.820687,44.6787109 313.049854,44.6787109 Z M313.672901,51.5 L313.672901,45.5595703 L312.410694,45.5595703 L312.410694,51.5 L313.672901,51.5 Z M317.82834,51.6074219 C318.064668,51.6074219 318.292939,51.5868327 318.513154,51.5456543 C318.733369,51.5044759 318.913301,51.4534505 319.052949,51.3925781 L319.052949,51.3925781 L319.052949,50.4418945 C318.745007,50.5385742 318.437064,50.5869141 318.129121,50.5869141 C317.882051,50.5869141 317.682425,50.5144043 317.530244,50.3693848 C317.378063,50.2243652 317.301973,49.9996745 317.301973,49.6953125 L317.301973,49.6953125 L317.301973,46.515625 L318.993867,46.515625 L318.993867,45.5595703 L317.301973,45.5595703 L317.301973,44.2382812 L316.523164,44.2382812 L316.093477,45.4951172 L315.223359,45.9570312 L315.223359,46.515625 L316.034395,46.515625 L316.034395,49.7167969 C316.034395,50.9772135 316.632376,51.6074219 317.82834,51.6074219 Z M320.823623,54.1425781 C321.901422,54.1425781 322.671279,53.5249023 323.133193,52.2895508 L323.133193,52.2895508 L325.673721,45.5595703 L324.309463,45.5595703 C323.485895,47.9479167 323.031142,49.2826335 322.945205,49.5637207 C322.859267,49.8448079 322.800185,50.0838216 322.767959,50.2807617 L322.767959,50.2807617 L322.72499,50.2807617 C322.664118,49.8582357 322.542373,49.4070638 322.359756,48.9272461 L322.359756,48.9272461 L321.15126,45.5595703 L319.77626,45.5595703 L322.161025,51.5 L321.94081,52.0585938 C321.69374,52.7639974 321.265843,53.1166992 320.657119,53.1166992 C320.413629,53.1166992 320.196995,53.0952148 320.007217,53.0522461 L320.007217,53.0522461 L320.007217,54.0512695 C320.272191,54.1121419 320.544326,54.1425781 320.823623,54.1425781 Z" id="ACMERegistrationAuthority" fill="#07013C" fill-rule="nonzero"></path>
                <path d="M429.15776,29.5 L429.925827,27.3193359 L432.928268,27.3193359 L433.712448,29.5 L435.076706,29.5 L432.138717,21.6152344 L430.742233,21.6152344 L427.804245,29.5 L429.15776,29.5 Z M432.589889,26.2128906 L430.301803,26.2128906 L431.010788,24.1665039 C431.196986,23.6437174 431.338425,23.1621094 431.435104,22.7216797 C431.470911,22.8649089 431.53626,23.0904948 431.631149,23.3984375 L431.685612,23.5733203 C431.754935,23.7933203 431.811081,23.960612 431.85405,24.0751953 L431.85405,24.0751953 L432.589889,26.2128906 Z M439.737028,29.6074219 C440.517627,29.6074219 441.215869,29.4910482 441.831754,29.2583008 L441.831754,29.2583008 L441.831754,28.1572266 C441.495166,28.2610677 441.17111,28.34611 440.859586,28.4123535 C440.548063,28.478597 440.225797,28.5117188 439.89279,28.5117188 C439.122933,28.5117188 438.534798,28.2646484 438.128385,27.7705078 C437.721973,27.2763672 437.518766,26.5476888 437.518766,25.5844727 C437.518766,24.6642253 437.730029,23.9427083 438.152555,23.4199219 C438.575081,22.8971354 439.155159,22.6357422 439.89279,22.6357422 C440.218636,22.6357422 440.529264,22.6831868 440.824674,22.7780762 C441.120085,22.8729655 441.400277,22.9830729 441.665251,23.1083984 L441.665251,23.1083984 L442.127165,22.0395508 C441.446826,21.7029622 440.705615,21.534668 439.903532,21.534668 C439.140836,21.534668 438.476611,21.6975911 437.910856,22.0234375 C437.345101,22.3492839 436.912728,22.8183594 436.613737,23.4306641 C436.314746,24.0429688 436.165251,24.7573242 436.165251,25.5737305 C436.165251,26.8699544 436.473193,27.8662923 437.089079,28.5627441 C437.704964,29.259196 438.587614,29.6074219 439.737028,29.6074219 Z M445.127819,29.5 L445.127819,25.6811523 C445.127819,24.8289388 445.097383,23.9158529 445.03651,22.9418945 L445.03651,22.9418945 L445.079479,22.9418945 L447.356823,29.5 L448.490123,29.5 L450.848034,22.9526367 L450.891002,22.9526367 C450.876679,23.0851237 450.859671,23.464681 450.839977,24.0913086 C450.820283,24.7179362 450.810436,25.2263997 450.810436,25.6166992 L450.810436,25.6166992 L450.810436,29.5 L452.045787,29.5 L452.045787,21.6474609 L450.230358,21.6474609 L447.985241,27.894043 L447.953014,27.894043 L445.77235,21.6474609 L443.962291,21.6474609 L443.962291,29.5 L445.127819,29.5 Z M458.994196,29.5 L458.994196,28.409668 L455.835992,28.409668 L455.835992,25.9443359 L458.795465,25.9443359 L458.795465,24.8701172 L455.835992,24.8701172 L455.835992,22.7324219 L458.994196,22.7324219 L458.994196,21.6474609 L454.552301,21.6474609 L454.552301,29.5 L458.994196,29.5 Z M420.074338,44.6074219 C420.854937,44.6074219 421.553179,44.4910482 422.169065,44.2583008 L422.169065,44.2583008 L422.169065,43.1572266 C421.832476,43.2610677 421.50842,43.34611 421.196897,43.4123535 C420.885373,43.478597 420.563108,43.5117188 420.2301,43.5117188 C419.460243,43.5117188 418.872108,43.2646484 418.465695,42.7705078 C418.059283,42.2763672 417.856076,41.5476888 417.856076,40.5844727 C417.856076,39.6642253 418.067339,38.9427083 418.489865,38.4199219 C418.912391,37.8971354 419.49247,37.6357422 420.2301,37.6357422 C420.555946,37.6357422 420.866574,37.6831868 421.161984,37.7780762 C421.457395,37.8729655 421.737587,37.9830729 422.002561,38.1083984 L422.002561,38.1083984 L422.464475,37.0395508 C421.784136,36.7029622 421.042925,36.534668 420.240842,36.534668 C419.478147,36.534668 418.813921,36.6975911 418.248166,37.0234375 C417.682411,37.3492839 417.250038,37.8183594 416.951047,38.4306641 C416.652056,39.0429688 416.502561,39.7573242 416.502561,40.5737305 C416.502561,41.8699544 416.810503,42.8662923 417.426389,43.5627441 C418.042274,44.259196 418.924924,44.6074219 420.074338,44.6074219 Z M425.427531,44.5 L425.427531,41.5512695 C425.427531,40.8064779 425.551962,40.2756348 425.800822,39.9587402 C426.049683,39.6418457 426.439087,39.4833984 426.969035,39.4833984 C427.370077,39.4833984 427.662801,39.5961914 427.847209,39.8217773 C428.031616,40.0473633 428.12382,40.3893229 428.12382,40.8476562 L428.12382,40.8476562 L428.12382,44.5 L429.391398,44.5 L429.391398,40.6274414 C429.391398,39.1772461 428.671672,38.4521484 427.232219,38.4521484 C426.824016,38.4521484 426.466838,38.5309245 426.160685,38.6884766 C425.854533,38.8460286 425.615519,39.0680339 425.443644,39.3544922 L425.443644,39.3544922 L425.363078,39.3544922 C425.406047,38.9677734 425.427531,38.6043294 425.427531,38.2641602 L425.427531,38.2641602 L425.427531,36.1425781 L424.165324,36.1425781 L424.165324,44.5 L425.427531,44.5 Z M433.025842,44.6074219 C433.480594,44.6074219 433.85299,44.5420736 434.143029,44.411377 C434.433068,44.2806803 434.721317,44.0345052 435.007775,43.6728516 L435.007775,43.6728516 L435.050744,43.6728516 L435.303185,44.5 L436.205529,44.5 L436.205529,40.4985352 C436.205529,39.7931315 436.013065,39.2757161 435.628137,38.9462891 C435.243208,38.616862 434.672977,38.4521484 433.917443,38.4521484 C433.577274,38.4521484 433.21562,38.4960124 432.832482,38.5837402 C432.449344,38.6714681 432.096642,38.7994792 431.774377,38.9677734 L431.774377,38.9677734 L432.18258,39.8701172 C432.440392,39.7483724 432.708947,39.6427409 432.988244,39.5532227 C433.267541,39.4637044 433.55937,39.4189453 433.863732,39.4189453 C434.236128,39.4189453 434.510949,39.5129395 434.688195,39.7009277 C434.865441,39.888916 434.954064,40.1726888 434.954064,40.5522461 L434.954064,40.5522461 L434.954064,40.8691406 L433.928185,40.9013672 C432.997196,40.930013 432.304325,41.1000977 431.849572,41.4116211 C431.394819,41.7231445 431.167443,42.1850586 431.167443,42.7973633 C431.167443,43.3738607 431.331262,43.8196615 431.658898,44.1347656 C431.986535,44.4498698 432.442183,44.6074219 433.025842,44.6074219 Z M433.423303,43.640625 C433.108198,43.640625 432.87187,43.5681152 432.714318,43.4230957 C432.556766,43.2780762 432.47799,43.0730794 432.47799,42.8081055 C432.47799,42.4428711 432.613163,42.1716309 432.883508,41.9943848 C433.153853,41.8171387 433.586226,41.7177734 434.180627,41.6962891 L434.180627,41.6962891 L434.943322,41.6640625 L434.943322,42.1796875 C434.943322,42.6416016 434.804569,43.0005697 434.527062,43.2565918 C434.249556,43.5126139 433.881636,43.640625 433.423303,43.640625 Z M439.668097,44.5 L439.668097,36.1425781 L438.40589,36.1425781 L438.40589,44.5 L439.668097,44.5 Z M443.173634,44.5 L443.173634,36.1425781 L441.911427,36.1425781 L441.911427,44.5 L443.173634,44.5 Z M448.011202,44.6074219 C448.415825,44.6074219 448.775688,44.5769857 449.090792,44.5161133 C449.405896,44.4552409 449.71742,44.3513997 450.025363,44.2045898 L450.025363,44.2045898 L450.025363,43.1787109 C449.678032,43.3326823 449.353081,43.4427897 449.050509,43.5090332 C448.747937,43.5752767 448.421196,43.6083984 448.070284,43.6083984 C447.536756,43.6083984 447.123182,43.4535319 446.829562,43.1437988 C446.535942,42.8340658 446.38018,42.3909505 446.362277,41.8144531 L446.362277,41.8144531 L450.320773,41.8144531 L450.320773,41.1323242 C450.320773,40.2980143 450.093396,39.6427409 449.638644,39.1665039 C449.183891,38.6902669 448.564425,38.4521484 447.780245,38.4521484 C446.935193,38.4521484 446.270968,38.7296549 445.78757,39.284668 C445.304171,39.839681 445.062472,40.6023763 445.062472,41.5727539 C445.062472,42.5180664 445.32297,43.2601725 445.843966,43.7990723 C446.364962,44.337972 447.087374,44.6074219 448.011202,44.6074219 Z M449.08005,40.9013672 L446.383761,40.9013672 C446.43031,40.414388 446.574435,40.0437826 446.816134,39.7895508 C447.057833,39.535319 447.379204,39.4082031 447.780245,39.4082031 C448.181287,39.4082031 448.496391,39.5344238 448.725558,39.7868652 C448.954725,40.0393066 449.072889,40.4108073 449.08005,40.9013672 L449.08005,40.9013672 Z M453.455704,44.5 L453.455704,41.5405273 C453.455704,40.7993164 453.579239,40.2711589 453.82631,39.9560547 C454.07338,39.6409505 454.463679,39.4833984 454.997208,39.4833984 C455.39825,39.4833984 455.690974,39.5961914 455.875382,39.8217773 C456.05979,40.0473633 456.151993,40.3893229 456.151993,40.8476562 L456.151993,40.8476562 L456.151993,44.5 L457.419571,44.5 L457.419571,40.6274414 C457.419571,39.1772461 456.707006,38.4521484 455.281876,38.4521484 C454.880834,38.4521484 454.5156,38.5291341 454.186173,38.6831055 C453.856746,38.8370768 453.602514,39.0555013 453.423478,39.3383789 L453.423478,39.3383789 L453.359025,39.3383789 L453.181778,38.5595703 L452.193497,38.5595703 L452.193497,44.5 L453.455704,44.5 Z M461.32794,47.1425781 C462.377094,47.1425781 463.179177,46.9599609 463.73419,46.5947266 C464.289203,46.2294922 464.56671,45.7102865 464.56671,45.0371094 C464.56671,44.5107422 464.396625,44.1079102 464.056456,43.8286133 C463.716287,43.5493164 463.218565,43.409668 462.563292,43.409668 L462.563292,43.409668 L461.526671,43.409668 C461.186502,43.409668 460.952859,43.375651 460.825743,43.3076172 C460.698627,43.2395833 460.635069,43.1375326 460.635069,43.0014648 C460.635069,42.7758789 460.771137,42.5789388 461.043272,42.4106445 C461.197244,42.4392904 461.369119,42.4536133 461.558897,42.4536133 C462.300108,42.4536133 462.881977,42.2781576 463.304503,41.9272461 C463.727029,41.5763346 463.938292,41.0947266 463.938292,40.4824219 C463.938292,40.2783203 463.907856,40.0849609 463.846983,39.9023438 C463.786111,39.7197266 463.709125,39.5657552 463.616026,39.4404297 L463.616026,39.4404297 L464.631163,39.2524414 L464.631163,38.5595703 L462.574034,38.5595703 C462.480935,38.5345052 462.342182,38.5103353 462.157774,38.4870605 C461.973367,38.4637858 461.797016,38.4521484 461.628722,38.4521484 C460.876769,38.4521484 460.297586,38.6293945 459.891173,38.9838867 C459.48476,39.3383789 459.281554,39.8378906 459.281554,40.4824219 C459.281554,40.8834635 459.377338,41.2334798 459.568907,41.5324707 C459.760476,41.8314616 460.010232,42.0472005 460.318175,42.1796875 C460.071104,42.3300781 459.884907,42.4822591 459.759581,42.6362305 C459.634255,42.7902018 459.571593,42.9781901 459.571593,43.2001953 C459.571593,43.375651 459.626199,43.5430501 459.735411,43.7023926 C459.844623,43.861735 459.983377,43.9772135 460.151671,44.0488281 C459.736306,44.1455078 459.413145,44.318278 459.182188,44.5671387 C458.951231,44.8159993 458.835753,45.1230469 458.835753,45.4882812 C458.835753,46.0182292 459.048806,46.4264323 459.474913,46.7128906 C459.90102,46.999349 460.518696,47.1425781 461.32794,47.1425781 Z M461.617979,41.6425781 C461.259907,41.6425781 460.985086,41.5423177 460.793517,41.3417969 C460.601948,41.141276 460.506163,40.8548177 460.506163,40.4824219 C460.506163,40.0849609 460.600157,39.7823893 460.788145,39.574707 C460.976134,39.3670247 461.252745,39.2631836 461.617979,39.2631836 C461.986795,39.2631836 462.261616,39.3679199 462.442442,39.5773926 C462.623269,39.7868652 462.713683,40.0849609 462.713683,40.4716797 C462.713683,41.2522786 462.348448,41.6425781 461.617979,41.6425781 Z M461.365538,46.2724609 C460.921528,46.2724609 460.576882,46.199056 460.331602,46.0522461 C460.086323,45.9054362 459.963683,45.6959635 459.963683,45.4238281 C459.963683,45.1337891 460.070209,44.9037272 460.283263,44.7336426 C460.496316,44.5635579 460.78367,44.4785156 461.145323,44.4785156 L461.145323,44.4785156 L462.101378,44.4785156 C462.60268,44.4785156 462.945535,44.5331217 463.129942,44.642334 C463.31435,44.7515462 463.406554,44.9350586 463.406554,45.1928711 C463.406554,45.5187174 463.238259,45.7801107 462.901671,45.9770508 C462.565082,46.1739909 462.053038,46.2724609 461.365538,46.2724609 Z M468.765118,44.6074219 C469.16974,44.6074219 469.529604,44.5769857 469.844708,44.5161133 C470.159812,44.4552409 470.471335,44.3513997 470.779278,44.2045898 L470.779278,44.2045898 L470.779278,43.1787109 C470.431947,43.3326823 470.106996,43.4427897 469.804425,43.5090332 C469.501853,43.5752767 469.175111,43.6083984 468.8242,43.6083984 C468.290671,43.6083984 467.877097,43.4535319 467.583477,43.1437988 C467.289858,42.8340658 467.134096,42.3909505 467.116192,41.8144531 L467.116192,41.8144531 L471.074688,41.8144531 L471.074688,41.1323242 C471.074688,40.2980143 470.847312,39.6427409 470.392559,39.1665039 C469.937807,38.6902669 469.318341,38.4521484 468.534161,38.4521484 C467.689109,38.4521484 467.024884,38.7296549 466.541485,39.284668 C466.058087,39.839681 465.816387,40.6023763 465.816387,41.5727539 C465.816387,42.5180664 466.076886,43.2601725 466.597882,43.7990723 C467.118878,44.337972 467.84129,44.6074219 468.765118,44.6074219 Z M469.833966,40.9013672 L467.137677,40.9013672 C467.184226,40.414388 467.32835,40.0437826 467.57005,39.7895508 C467.811749,39.535319 468.133119,39.4082031 468.534161,39.4082031 C468.935203,39.4082031 469.250307,39.5344238 469.479473,39.7868652 C469.70864,40.0393066 469.826804,40.4108073 469.833966,40.9013672 L469.833966,40.9013672 Z" id="ACMEChallenge" fill="#07013C" fill-rule="nonzero"></path>
                <path d="M551.506873,29.6074219 C552.287472,29.6074219 552.985715,29.4910482 553.6016,29.2583008 L553.6016,29.2583008 L553.6016,28.1572266 C553.265011,28.2610677 552.940955,28.34611 552.629432,28.4123535 C552.317909,28.478597 551.995643,28.5117188 551.662635,28.5117188 C550.892778,28.5117188 550.304644,28.2646484 549.898231,27.7705078 C549.491818,27.2763672 549.288612,26.5476888 549.288612,25.5844727 C549.288612,24.6642253 549.499875,23.9427083 549.922401,23.4199219 C550.344927,22.8971354 550.925005,22.6357422 551.662635,22.6357422 C551.988482,22.6357422 552.29911,22.6831868 552.59452,22.7780762 C552.88993,22.8729655 553.170122,22.9830729 553.435096,23.1083984 L553.435096,23.1083984 L553.89701,22.0395508 C553.216672,21.7029622 552.475461,21.534668 551.673377,21.534668 C550.910682,21.534668 550.246457,21.6975911 549.680702,22.0234375 C549.114946,22.3492839 548.682573,22.8183594 548.383582,23.4306641 C548.084592,24.0429688 547.935096,24.7573242 547.935096,25.5737305 C547.935096,26.8699544 548.243039,27.8662923 548.858924,28.5627441 C549.47481,29.259196 550.357459,29.6074219 551.506873,29.6074219 Z M558.192098,29.6074219 C558.59672,29.6074219 558.956584,29.5769857 559.271688,29.5161133 C559.586792,29.4552409 559.898315,29.3513997 560.206258,29.2045898 L560.206258,29.2045898 L560.206258,28.1787109 C559.858927,28.3326823 559.533976,28.4427897 559.231405,28.5090332 C558.928833,28.5752767 558.602091,28.6083984 558.25118,28.6083984 C557.717651,28.6083984 557.304077,28.4535319 557.010457,28.1437988 C556.716837,27.8340658 556.561076,27.3909505 556.543172,26.8144531 L556.543172,26.8144531 L560.501668,26.8144531 L560.501668,26.1323242 C560.501668,25.2980143 560.274292,24.6427409 559.819539,24.1665039 C559.364787,23.6902669 558.745321,23.4521484 557.961141,23.4521484 C557.116089,23.4521484 556.451864,23.7296549 555.968465,24.284668 C555.485067,24.839681 555.243367,25.6023763 555.243367,26.5727539 C555.243367,27.5180664 555.503865,28.2601725 556.024862,28.7990723 C556.545858,29.337972 557.26827,29.6074219 558.192098,29.6074219 Z M559.260946,25.9013672 L556.564657,25.9013672 C556.611206,25.414388 556.75533,25.0437826 556.99703,24.7895508 C557.238729,24.535319 557.560099,24.4082031 557.961141,24.4082031 C558.362183,24.4082031 558.677287,24.5344238 558.906453,24.7868652 C559.13562,25.0393066 559.253784,25.4108073 559.260946,25.9013672 L559.260946,25.9013672 Z M563.6366,29.5 L563.6366,26.3955078 C563.6366,25.8691406 563.793257,25.4412435 564.10657,25.1118164 C564.419884,24.7823893 564.828983,24.6176758 565.333865,24.6176758 C565.527225,24.6176758 565.713423,24.6391602 565.892459,24.6821289 L565.892459,24.6821289 L566.015994,23.5058594 C565.851281,23.4700521 565.641808,23.4521484 565.387576,23.4521484 C565.022342,23.4521484 564.681277,23.5559896 564.364383,23.7636719 C564.047488,23.9713542 563.790571,24.2524414 563.593631,24.6069336 L563.593631,24.6069336 L563.529178,24.6069336 L563.362674,23.5595703 L562.374393,23.5595703 L562.374393,29.5 L563.6366,29.5 Z M569.46782,29.6074219 C569.704148,29.6074219 569.93242,29.5868327 570.152635,29.5456543 C570.37285,29.5044759 570.552781,29.4534505 570.69243,29.3925781 L570.69243,29.3925781 L570.69243,28.4418945 C570.384487,28.5385742 570.076544,28.5869141 569.768601,28.5869141 C569.521531,28.5869141 569.321906,28.5144043 569.169725,28.3693848 C569.017544,28.2243652 568.941453,27.9996745 568.941453,27.6953125 L568.941453,27.6953125 L568.941453,24.515625 L570.633348,24.515625 L570.633348,23.5595703 L568.941453,23.5595703 L568.941453,22.2382812 L568.162644,22.2382812 L567.732957,23.4951172 L566.86284,23.9570312 L566.86284,24.515625 L567.673875,24.515625 L567.673875,27.7167969 C567.673875,28.9772135 568.271857,29.6074219 569.46782,29.6074219 Z M575.288299,29.5 C576.165577,29.5 576.850392,29.3003743 577.342742,28.901123 C577.835092,28.5018717 578.081267,27.9495443 578.081267,27.2441406 C578.081267,26.7213542 577.951466,26.3068848 577.691863,26.0007324 C577.43226,25.6945801 577.026743,25.4895833 576.47531,25.3857422 L576.47531,25.3857422 L576.47531,25.3320312 C576.919321,25.2532552 577.25949,25.0616862 577.495818,24.7573242 C577.732146,24.4529622 577.85031,24.0716146 577.85031,23.6132812 C577.85031,22.9329427 577.609506,22.4352214 577.127898,22.1201172 C576.64629,21.805013 575.864796,21.6474609 574.783416,21.6474609 L574.783416,21.6474609 L572.452361,21.6474609 L572.452361,29.5 L575.288299,29.5 Z M574.971404,24.8916016 L573.736053,24.8916016 L573.736053,22.7216797 L574.847869,22.7216797 C575.427947,22.7216797 575.851368,22.8040365 576.118133,22.96875 C576.384897,23.1334635 576.518279,23.4002279 576.518279,23.769043 C576.518279,24.1772461 576.394744,24.46639 576.147674,24.6364746 C575.900603,24.8065592 575.508513,24.8916016 574.971404,24.8916016 L574.971404,24.8916016 Z M575.10031,28.4204102 L573.736053,28.4204102 L573.736053,25.9335938 L575.035857,25.9335938 C575.605193,25.9335938 576.02951,26.0320638 576.308806,26.2290039 C576.588103,26.425944 576.727752,26.7285156 576.727752,27.1367188 C576.727752,27.5807292 576.590789,27.9056803 576.316863,28.1115723 C576.042937,28.3174642 575.63742,28.4204102 575.10031,28.4204102 L575.10031,28.4204102 Z M582.462293,29.6074219 C583.350313,29.6074219 584.043185,29.3352865 584.540906,28.7910156 C585.038627,28.2467448 585.287488,27.4894206 585.287488,26.519043 C585.287488,25.5808919 585.036837,24.8352051 584.535535,24.2819824 C584.034233,23.7287598 583.353894,23.4521484 582.494519,23.4521484 C581.595756,23.4521484 580.899304,23.7224935 580.405164,24.2631836 C579.911023,24.8038737 579.663953,25.5558268 579.663953,26.519043 C579.663953,27.1385091 579.778536,27.6827799 580.007703,28.1518555 C580.236869,28.620931 580.564506,28.9807943 580.990613,29.2314453 C581.41672,29.4820964 581.90728,29.6074219 582.462293,29.6074219 Z M582.483777,28.5761719 C581.470431,28.5761719 580.963757,27.8904622 580.963757,26.519043 C580.963757,25.8637695 581.082817,25.3606771 581.320935,25.0097656 C581.559054,24.6588542 581.943087,24.4833984 582.473035,24.4833984 C583.4828,24.4833984 583.987683,25.1619466 583.987683,26.519043 C583.987683,27.8904622 583.486381,28.5761719 582.483777,28.5761719 Z M589.088435,29.6074219 C589.324763,29.6074219 589.553035,29.5868327 589.773249,29.5456543 C589.993464,29.5044759 590.173396,29.4534505 590.313044,29.3925781 L590.313044,29.3925781 L590.313044,28.4418945 C590.005102,28.5385742 589.697159,28.5869141 589.389216,28.5869141 C589.142146,28.5869141 588.94252,28.5144043 588.790339,28.3693848 C588.638158,28.2243652 588.562068,27.9996745 588.562068,27.6953125 L588.562068,27.6953125 L588.562068,24.515625 L590.253962,24.515625 L590.253962,23.5595703 L588.562068,23.5595703 L588.562068,22.2382812 L587.783259,22.2382812 L587.353572,23.4951172 L586.483455,23.9570312 L586.483455,24.515625 L587.29449,24.515625 L587.29449,27.7167969 C587.29449,28.9772135 587.892471,29.6074219 589.088435,29.6074219 Z M597.67861,29.6074219 C598.566631,29.6074219 599.259502,29.3352865 599.757224,28.7910156 C600.254945,28.2467448 600.503806,27.4894206 600.503806,26.519043 C600.503806,25.5808919 600.253155,24.8352051 599.751853,24.2819824 C599.250551,23.7287598 598.570212,23.4521484 597.710837,23.4521484 C596.812074,23.4521484 596.115622,23.7224935 595.621482,24.2631836 C595.127341,24.8038737 594.880271,25.5558268 594.880271,26.519043 C594.880271,27.1385091 594.994854,27.6827799 595.224021,28.1518555 C595.453187,28.620931 595.780824,28.9807943 596.206931,29.2314453 C596.633038,29.4820964 597.123597,29.6074219 597.67861,29.6074219 Z M597.700095,28.5761719 C596.686748,28.5761719 596.180075,27.8904622 596.180075,26.519043 C596.180075,25.8637695 596.299135,25.3606771 596.537253,25.0097656 C596.775372,24.6588542 597.159405,24.4833984 597.689353,24.4833984 C598.699118,24.4833984 599.204001,25.1619466 599.204001,26.519043 C599.204001,27.8904622 598.702699,28.5761719 597.700095,28.5761719 Z M603.654851,29.5 L603.654851,26.3955078 C603.654851,25.8691406 603.811507,25.4412435 604.124821,25.1118164 C604.438135,24.7823893 604.847233,24.6176758 605.352116,24.6176758 C605.545476,24.6176758 605.731673,24.6391602 605.91071,24.6821289 L605.91071,24.6821289 L606.034245,23.5058594 C605.869532,23.4700521 605.660059,23.4521484 605.405827,23.4521484 C605.040593,23.4521484 604.699528,23.5559896 604.382634,23.7636719 C604.065739,23.9713542 603.808822,24.2524414 603.611882,24.6069336 L603.611882,24.6069336 L603.547429,24.6069336 L603.380925,23.5595703 L602.392643,23.5595703 L602.392643,29.5 L603.654851,29.5 Z M612.309479,29.6074219 C612.764232,29.6074219 613.136628,29.5420736 613.426667,29.411377 C613.716706,29.2806803 614.004954,29.0345052 614.291413,28.6728516 L614.291413,28.6728516 L614.334381,28.6728516 L614.586823,29.5 L615.489167,29.5 L615.489167,25.4985352 C615.489167,24.7931315 615.296702,24.2757161 614.911774,23.9462891 C614.526846,23.616862 613.956615,23.4521484 613.201081,23.4521484 C612.860911,23.4521484 612.499258,23.4960124 612.11612,23.5837402 C611.732982,23.6714681 611.38028,23.7994792 611.058014,23.9677734 L611.058014,23.9677734 L611.466217,24.8701172 C611.72403,24.7483724 611.992585,24.6427409 612.271881,24.5532227 C612.551178,24.4637044 612.843008,24.4189453 613.14737,24.4189453 C613.519766,24.4189453 613.794587,24.5129395 613.971833,24.7009277 C614.149079,24.888916 614.237702,25.1726888 614.237702,25.5522461 L614.237702,25.5522461 L614.237702,25.8691406 L613.211823,25.9013672 C612.280833,25.930013 611.587962,26.1000977 611.13321,26.4116211 C610.678457,26.7231445 610.451081,27.1850586 610.451081,27.7973633 C610.451081,28.3738607 610.614899,28.8196615 610.942536,29.1347656 C611.270172,29.4498698 611.72582,29.6074219 612.309479,29.6074219 Z M612.70694,28.640625 C612.391836,28.640625 612.155508,28.5681152 611.997956,28.4230957 C611.840404,28.2780762 611.761628,28.0730794 611.761628,27.8081055 C611.761628,27.4428711 611.8968,27.1716309 612.167145,26.9943848 C612.43749,26.8171387 612.869863,26.7177734 613.464264,26.6962891 L613.464264,26.6962891 L614.22696,26.6640625 L614.22696,27.1796875 C614.22696,27.6416016 614.088206,28.0005697 613.8107,28.2565918 C613.533193,28.5126139 613.165273,28.640625 612.70694,28.640625 Z M618.951735,29.5 L618.951735,26.5405273 C618.951735,25.7993164 619.07527,25.2711589 619.32234,24.9560547 C619.569411,24.6409505 619.95971,24.4833984 620.493239,24.4833984 C620.89428,24.4833984 621.187005,24.5961914 621.371413,24.8217773 C621.55582,25.0473633 621.648024,25.3893229 621.648024,25.8476562 L621.648024,25.8476562 L621.648024,29.5 L622.915602,29.5 L622.915602,25.6274414 C622.915602,24.1772461 622.203037,23.4521484 620.777907,23.4521484 C620.376865,23.4521484 620.011631,23.5291341 619.682204,23.6831055 C619.352776,23.8370768 619.098545,24.0555013 618.919508,24.3383789 L618.919508,24.3383789 L618.855055,24.3383789 L618.677809,23.5595703 L617.689528,23.5595703 L617.689528,29.5 L618.951735,29.5 Z M625.255612,32.1425781 C626.333411,32.1425781 627.103268,31.5249023 627.565182,30.2895508 L627.565182,30.2895508 L630.105709,23.5595703 L628.741451,23.5595703 C627.917884,25.9479167 627.463131,27.2826335 627.377194,27.5637207 C627.291256,27.8448079 627.232174,28.0838216 627.199948,28.2807617 L627.199948,28.2807617 L627.156979,28.2807617 C627.096106,27.8582357 626.974362,27.4070638 626.791744,26.9272461 L626.791744,26.9272461 L625.583248,23.5595703 L624.208248,23.5595703 L626.593014,29.5 L626.372799,30.0585938 C626.125729,30.7639974 625.697832,31.1166992 625.089108,31.1166992 C624.845618,31.1166992 624.628984,31.0952148 624.439205,31.0522461 L624.439205,31.0522461 L624.439205,32.0512695 C624.704179,32.1121419 624.976315,32.1425781 625.255612,32.1425781 Z M555.784954,44.5 L556.553021,42.3193359 L559.555462,42.3193359 L560.339642,44.5 L561.7039,44.5 L558.765911,36.6152344 L557.369427,36.6152344 L554.431439,44.5 L555.784954,44.5 Z M559.217083,41.2128906 L556.928997,41.2128906 L557.637982,39.1665039 C557.82418,38.6437174 557.965618,38.1621094 558.062298,37.7216797 C558.098105,37.8649089 558.163454,38.0904948 558.258343,38.3984375 C558.353232,38.7063802 558.427532,38.9319661 558.481243,39.0751953 L558.481243,39.0751953 L559.217083,41.2128906 Z M566.364222,44.6074219 C567.144821,44.6074219 567.843063,44.4910482 568.458948,44.2583008 L568.458948,44.2583008 L568.458948,43.1572266 C568.12236,43.2610677 567.798304,43.34611 567.48678,43.4123535 C567.175257,43.478597 566.852991,43.5117188 566.519983,43.5117188 C565.750127,43.5117188 565.161992,43.2646484 564.755579,42.7705078 C564.349166,42.2763672 564.14596,41.5476888 564.14596,40.5844727 C564.14596,39.6642253 564.357223,38.9427083 564.779749,38.4199219 C565.202275,37.8971354 565.782353,37.6357422 566.519983,37.6357422 C566.84583,37.6357422 567.156458,37.6831868 567.451868,37.7780762 C567.747278,37.8729655 568.02747,37.9830729 568.292444,38.1083984 L568.292444,38.1083984 L568.754358,37.0395508 C568.07402,36.7029622 567.332809,36.534668 566.530726,36.534668 C565.76803,36.534668 565.103805,36.6975911 564.53805,37.0234375 C563.972295,37.3492839 563.539922,37.8183594 563.240931,38.4306641 C562.94194,39.0429688 562.792444,39.7573242 562.792444,40.5737305 C562.792444,41.8699544 563.100387,42.8662923 563.716272,43.5627441 C564.332158,44.259196 565.214808,44.6074219 566.364222,44.6074219 Z M571.755013,44.5 L571.755013,40.6811523 C571.755013,39.8289388 571.724576,38.9158529 571.663704,37.9418945 L571.663704,37.9418945 L571.706673,37.9418945 L573.984016,44.5 L575.117317,44.5 L577.475227,37.9526367 L577.518196,37.9526367 C577.503873,38.0851237 577.486865,38.464681 577.467171,39.0913086 C577.447477,39.7179362 577.43763,40.2263997 577.43763,40.6166992 L577.43763,40.6166992 L577.43763,44.5 L578.672981,44.5 L578.672981,36.6474609 L576.857552,36.6474609 L574.612434,42.894043 L574.580208,42.894043 L572.399544,36.6474609 L570.589485,36.6474609 L570.589485,44.5 L571.755013,44.5 Z M585.621389,44.5 L585.621389,43.409668 L582.463186,43.409668 L582.463186,40.9443359 L585.422659,40.9443359 L585.422659,39.8701172 L582.463186,39.8701172 L582.463186,37.7324219 L585.621389,37.7324219 L585.621389,36.6474609 L581.179495,36.6474609 L581.179495,44.5 L585.621389,44.5 Z M594.23842,44.6074219 C595.019019,44.6074219 595.717261,44.4910482 596.333147,44.2583008 L596.333147,44.2583008 L596.333147,43.1572266 C595.996558,43.2610677 595.672502,43.34611 595.360979,43.4123535 C595.049455,43.478597 594.72719,43.5117188 594.394182,43.5117188 C593.624325,43.5117188 593.03619,43.2646484 592.629778,42.7705078 C592.223365,42.2763672 592.020159,41.5476888 592.020159,40.5844727 C592.020159,39.6642253 592.231422,38.9427083 592.653948,38.4199219 C593.076474,37.8971354 593.656552,37.6357422 594.394182,37.6357422 C594.720028,37.6357422 595.030657,37.6831868 595.326067,37.7780762 C595.621477,37.8729655 595.901669,37.9830729 596.166643,38.1083984 L596.166643,38.1083984 L596.628557,37.0395508 C595.948218,36.7029622 595.207008,36.534668 594.404924,36.534668 C593.642229,36.534668 592.978004,36.6975911 592.412248,37.0234375 C591.846493,37.3492839 591.41412,37.8183594 591.115129,38.4306641 C590.816138,39.0429688 590.666643,39.7573242 590.666643,40.5737305 C590.666643,41.8699544 590.974586,42.8662923 591.590471,43.5627441 C592.206356,44.259196 593.089006,44.6074219 594.23842,44.6074219 Z M599.591613,44.5 L599.591613,36.1425781 L598.329406,36.1425781 L598.329406,44.5 L599.591613,44.5 Z M602.474104,37.6787109 C602.696109,37.6787109 602.868879,37.6169434 602.992414,37.4934082 C603.115949,37.369873 603.177717,37.2006836 603.177717,36.9858398 C603.177717,36.7602539 603.115949,36.5865885 602.992414,36.4648438 C602.868879,36.343099 602.696109,36.2822266 602.474104,36.2822266 C602.244937,36.2822266 602.068586,36.343099 601.945051,36.4648438 C601.821516,36.5865885 601.759748,36.7602539 601.759748,36.9858398 C601.759748,37.2006836 601.821516,37.369873 601.945051,37.4934082 C602.068586,37.6169434 602.244937,37.6787109 602.474104,37.6787109 Z M603.09715,44.5 L603.09715,38.5595703 L601.834943,38.5595703 L601.834943,44.5 L603.09715,44.5 Z M607.934719,44.6074219 C608.339341,44.6074219 608.699204,44.5769857 609.014308,44.5161133 C609.329413,44.4552409 609.640936,44.3513997 609.948879,44.2045898 L609.948879,44.2045898 L609.948879,43.1787109 C609.601548,43.3326823 609.276597,43.4427897 608.974025,43.5090332 C608.671454,43.5752767 608.344712,43.6083984 607.993801,43.6083984 C607.460272,43.6083984 607.046698,43.4535319 606.753078,43.1437988 C606.459458,42.8340658 606.303696,42.3909505 606.285793,41.8144531 L606.285793,41.8144531 L610.244289,41.8144531 L610.244289,41.1323242 C610.244289,40.2980143 610.016913,39.6427409 609.56216,39.1665039 C609.107407,38.6902669 608.487941,38.4521484 607.703762,38.4521484 C606.858709,38.4521484 606.194484,38.7296549 605.711086,39.284668 C605.227687,39.839681 604.985988,40.6023763 604.985988,41.5727539 C604.985988,42.5180664 605.246486,43.2601725 605.767482,43.7990723 C606.288478,44.337972 607.01089,44.6074219 607.934719,44.6074219 Z M609.003566,40.9013672 L606.307277,40.9013672 C606.353827,40.414388 606.497951,40.0437826 606.73965,39.7895508 C606.981349,39.535319 607.30272,39.4082031 607.703762,39.4082031 C608.104803,39.4082031 608.419907,39.5344238 608.649074,39.7868652 C608.878241,40.0393066 608.996405,40.4108073 609.003566,40.9013672 L609.003566,40.9013672 Z M613.37922,44.5 L613.37922,41.5405273 C613.37922,40.7993164 613.502756,40.2711589 613.749826,39.9560547 C613.996896,39.6409505 614.387196,39.4833984 614.920724,39.4833984 C615.321766,39.4833984 615.614491,39.5961914 615.798898,39.8217773 C615.983306,40.0473633 616.075509,40.3893229 616.075509,40.8476562 L616.075509,40.8476562 L616.075509,44.5 L617.343088,44.5 L617.343088,40.6274414 C617.343088,39.1772461 616.630522,38.4521484 615.205392,38.4521484 C614.804351,38.4521484 614.439116,38.5291341 614.109689,38.6831055 C613.780262,38.8370768 613.52603,39.0555013 613.346994,39.3383789 L613.346994,39.3383789 L613.282541,39.3383789 L613.105295,38.5595703 L612.117013,38.5595703 L612.117013,44.5 L613.37922,44.5 Z M621.450187,44.6074219 C621.686515,44.6074219 621.914787,44.5868327 622.135001,44.5456543 C622.355216,44.5044759 622.535148,44.4534505 622.674796,44.3925781 L622.674796,44.3925781 L622.674796,43.4418945 C622.366854,43.5385742 622.058911,43.5869141 621.750968,43.5869141 C621.503898,43.5869141 621.304272,43.5144043 621.152091,43.3693848 C620.99991,43.2243652 620.92382,42.9996745 620.92382,42.6953125 L620.92382,42.6953125 L620.92382,39.515625 L622.615714,39.515625 L622.615714,38.5595703 L620.92382,38.5595703 L620.92382,37.2382812 L620.145011,37.2382812 L619.715324,38.4951172 L618.845207,38.9570312 L618.845207,39.515625 L619.656242,39.515625 L619.656242,42.7167969 C619.656242,43.9772135 620.254223,44.6074219 621.450187,44.6074219 Z" id="CertBotoranyACMEClient" fill="#07013C" fill-rule="nonzero"></path>
                <g id="Combined-Shape">
                    <use fill="black" fill-opacity="1" filter="url(#filter-10)" xlink:href="#path-9"></use>
                    <use fill="#3F75EF" fill-rule="evenodd" xlink:href="#path-9"></use>
                </g>
            </g>
        </g>
    </g>
</svg>