<svg width="24" height="24" viewBox="0 0 24 24" fill="none" xmlns="http://www.w3.org/2000/svg">
<path d="M8.861 10.525H8.594V11.667H8.847C9.319 11.667 9.555 11.458 9.555 11.041C9.555 10.697 9.324 10.525 8.861 10.525ZM15.306 11.636C15.256 11.453 15.195 11.218 15.123 10.928C15.051 10.638 15.003 10.431 14.981 10.306C14.961 10.422 14.921 10.614 14.86 10.88C14.799 11.146 14.666 11.672 14.458 12.456H15.521L15.306 11.636Z" fill="#3F75EF"/>
<path d="M19.388 5.83L13.696 2.462C13.1821 2.15931 12.5965 1.99968 12 1.99968C11.4035 1.99968 10.8179 2.15931 10.304 2.462L4.614 5.83C4.13522 6.10909 3.73754 6.50827 3.46027 6.98811C3.183 7.46794 3.03572 8.01182 3.033 8.566V15.562C3.033 16.68 3.633 17.716 4.613 18.296L9.519 21.193C11.044 22.093 12.956 22.093 14.481 21.193L19.388 18.292C19.8666 18.0129 20.2641 17.6136 20.541 17.1338C20.8179 16.6539 20.9648 16.11 20.967 15.556V8.563C20.9644 8.00933 20.8172 7.46594 20.5401 6.9866C20.263 6.50726 19.8665 6.10857 19.388 5.83ZM7.13 6.907L11.381 4.294C11.5771 4.17345 11.8018 4.10715 12.0319 4.10188C12.2621 4.09661 12.4895 4.15255 12.691 4.264L13.054 4.464C13.1702 4.52805 13.2561 4.63562 13.293 4.76305C13.3298 4.89048 13.3146 5.02734 13.2505 5.1435C13.1865 5.25966 13.0789 5.34563 12.9514 5.38248C12.824 5.41933 12.6872 5.40405 12.571 5.34L12.207 5.14C12.1606 5.1142 12.1082 5.10116 12.0552 5.10222C12.0021 5.10327 11.9503 5.11838 11.905 5.146L7.654 7.758C7.59825 7.7928 7.53615 7.81617 7.47129 7.82676C7.40643 7.83735 7.34012 7.83494 7.2762 7.81968C7.21228 7.80442 7.15203 7.77661 7.09895 7.73787C7.04587 7.69913 7.00102 7.65022 6.967 7.594C6.8978 7.48111 6.8762 7.34538 6.90695 7.21659C6.93769 7.0878 7.01727 6.97646 7.13 6.907ZM11.526 14.5H9.996L8.936 12.682H8.594V14.5H7.244V9.503H8.882C10.24 9.503 10.919 9.995 10.919 10.979C10.919 11.559 10.636 12.006 10.071 12.323L11.527 14.5H11.526ZM13.054 19.646L12.69 19.846C12.4888 19.9582 12.2612 20.0145 12.0309 20.0092C11.8006 20.004 11.5759 19.9372 11.38 19.816L7.13 17.204C7.07073 17.1714 7.0187 17.127 6.97706 17.0737C6.93543 17.0203 6.90505 16.9591 6.88777 16.8937C6.8705 16.8283 6.86668 16.76 6.87656 16.6931C6.88643 16.6261 6.90979 16.5619 6.94522 16.5042C6.98065 16.4466 7.02741 16.3967 7.08268 16.3577C7.13794 16.3186 7.20056 16.2912 7.26673 16.2771C7.3329 16.2629 7.40126 16.2624 7.46765 16.2754C7.53405 16.2885 7.5971 16.3149 7.653 16.353L11.905 18.965C11.9502 18.9928 12.002 19.0081 12.0551 19.0093C12.1081 19.0105 12.1605 18.9976 12.207 18.972L12.571 18.772C12.6286 18.736 12.6929 18.7122 12.76 18.7019C12.8272 18.6916 12.8957 18.6951 12.9614 18.7122C13.0271 18.7292 13.0887 18.7595 13.1423 18.8011C13.196 18.8427 13.2406 18.8949 13.2734 18.9543C13.3063 19.0137 13.3267 19.0792 13.3334 19.1468C13.3401 19.2144 13.3329 19.2826 13.3124 19.3473C13.2919 19.412 13.2584 19.4719 13.2139 19.5232C13.1695 19.5746 13.1151 19.6164 13.054 19.646ZM17.829 16.716L15.551 17.975C15.3835 18.0681 15.1951 18.1172 15.0035 18.1179C14.8119 18.1186 14.6232 18.0708 14.455 17.979L12.139 16.718C12.0223 16.6545 11.9356 16.5472 11.898 16.4198C11.8604 16.2923 11.875 16.1552 11.9385 16.0385C12.002 15.9218 12.1093 15.8351 12.2367 15.7975C12.3642 15.7599 12.5013 15.7745 12.618 15.838L14.933 17.1C14.9535 17.1114 14.9766 17.1174 15 17.1174C15.0234 17.1174 15.0465 17.1114 15.067 17.1L17.345 15.84C17.4609 15.7775 17.5968 15.7633 17.7231 15.8004C17.8494 15.8375 17.956 15.9229 18.0198 16.0381C18.0835 16.1533 18.0992 16.289 18.0635 16.4158C18.0278 16.5425 17.9435 16.651 17.829 16.716ZM12.442 14.5L14.072 9.482H15.873L17.524 14.5H16.048L15.801 13.563H14.178L13.925 14.5H12.442ZM18.025 8.074C17.9933 8.13156 17.9505 8.18229 17.8991 8.2233C17.8477 8.26431 17.7888 8.29479 17.7256 8.31299C17.6625 8.3312 17.5964 8.33677 17.531 8.3294C17.4657 8.32202 17.4025 8.30183 17.345 8.27L15.067 7.011C15.0466 6.99988 15.0237 6.99406 15.0005 6.99406C14.9773 6.99406 14.9544 6.99988 14.934 7.011L12.619 8.271C12.5614 8.30279 12.498 8.32284 12.4326 8.32998C12.3671 8.33713 12.3009 8.33123 12.2378 8.31264C12.1746 8.29404 12.1158 8.26311 12.0647 8.22163C12.0136 8.18015 11.9712 8.12896 11.94 8.071C11.877 7.95466 11.8626 7.81807 11.9001 7.69118C11.9376 7.56428 12.0239 7.45742 12.14 7.394L14.455 6.134C14.6229 6.0415 14.8116 5.99316 15.0033 5.99351C15.195 5.99386 15.3834 6.04289 15.551 6.136L17.831 7.395C17.8884 7.42691 17.9389 7.46981 17.9797 7.52125C18.0205 7.5727 18.0508 7.63167 18.0688 7.69482C18.0869 7.75796 18.0923 7.82404 18.0847 7.88927C18.0772 7.9545 18.0569 8.01661 18.025 8.074Z" fill="#3F75EF"/>
</svg>
