<svg width="34" height="38" viewBox="0 0 34 38" fill="none" xmlns="http://www.w3.org/2000/svg">
<path fill-rule="evenodd" clip-rule="evenodd" d="M30.0195 24.3113V13.7391C30.0194 12.0503 29.1396 10.4841 27.6991 9.60865L19.3356 4.5207C17.8042 3.58946 15.8833 3.58946 14.3519 4.5207L5.99143 9.60865C4.54932 10.4851 3.66835 12.0529 3.66797 13.7438V24.3144C3.6687 26.0031 4.54838 27.569 5.98836 28.4449L13.1986 32.8221C15.4391 34.1834 18.2484 34.1834 20.4889 32.8221L27.6991 28.4387C29.1403 27.5625 30.0202 25.995 30.0195 24.3051" fill="#3B82F6"/>
<path d="M20.5316 15.3198H13.381C12.5982 15.3198 11.9515 16.0227 11.9515 16.8907V17.6699C11.9388 18.2775 12.2756 18.839 12.8189 19.1162L16.3934 21.1967C16.7498 21.3664 17.1643 21.3664 17.5207 21.1967L21.0953 19.1162C21.6317 18.8418 21.9658 18.2889 21.958 17.6886V16.9094C21.958 16.0429 21.3317 15.3323 20.5394 15.3261L20.5316 15.3198Z" fill="white"/>
<circle cx="16.7888" cy="11.1507" r="2.50173" fill="white"/>
<path d="M22.2939 27.995C21.7357 28.0015 21.1908 27.8222 20.7425 27.4845L18.0527 25.8696L18.0146 25.8387C17.5569 25.4931 17.2871 24.9482 17.2871 24.3692C17.2871 23.7902 17.5569 23.2453 18.0146 22.8997L18.0435 22.8749L20.7333 21.1734C21.6613 20.4845 22.9219 20.4845 23.8499 21.1734L26.5397 22.8749L26.5686 22.8997C27.0252 23.246 27.294 23.7907 27.294 24.3692C27.294 24.9477 27.0252 25.4924 26.5686 25.8387L26.5336 25.8681L23.8438 27.4845C23.3957 27.8216 22.8515 28.0008 22.2939 27.995Z" fill="white"/>
<path fill-rule="evenodd" clip-rule="evenodd" d="M20.3658 20.6212C20.9245 20.2056 21.6005 19.9844 22.2932 19.9904V19.995C22.9864 19.9887 23.663 20.21 24.2222 20.6258L26.8615 22.2945L26.9258 22.3364L26.9855 22.3846C27.6005 22.8542 27.9623 23.5899 27.9623 24.371C27.9623 25.1521 27.6005 25.8878 26.9855 26.3574L26.9151 26.4133L26.8386 26.4599L24.2054 28.0431C23.0595 28.8695 21.5239 28.8695 20.378 28.0431L17.7448 26.4599L17.6667 26.4133L17.5978 26.3574C16.9828 25.8878 16.6211 25.1521 16.6211 24.371C16.6211 23.5899 16.9828 22.8542 17.5978 22.3846L17.656 22.3364L17.7203 22.2945L20.3658 20.6212ZM23.4911 21.6932C23.1472 21.4268 22.725 21.2857 22.2924 21.2924V21.2877C21.8604 21.2813 21.4387 21.4225 21.0952 21.6885L18.3962 23.3976C17.7364 23.9321 17.7364 24.8084 18.3962 25.3428L21.0952 26.968C21.8065 27.5043 22.7799 27.5043 23.4911 26.968L26.1902 25.3475C26.8485 24.813 26.8485 23.9367 26.1902 23.4023L23.4911 21.6932Z" fill="#3B82F6"/>
<path d="M11.6058 27.9949C11.0471 28.0014 10.5017 27.8221 10.0529 27.4845L7.36765 25.8696L7.3387 25.8386C6.88214 25.4923 6.61328 24.9477 6.61328 24.3692C6.61328 23.7906 6.88214 23.246 7.3387 22.8997L7.36917 22.8749L10.0575 21.1734C10.9854 20.4845 12.246 20.4845 13.174 21.1734L15.8638 22.8749L15.8927 22.8997C16.3504 23.2453 16.6202 23.7902 16.6202 24.3692C16.6202 24.9482 16.3504 25.4931 15.8927 25.8386L15.8592 25.868L13.1633 27.4845C12.7132 27.8231 12.166 28.0024 11.6058 27.9949Z" fill="white"/>
<path fill-rule="evenodd" clip-rule="evenodd" d="M9.68684 20.6215C10.2462 20.206 10.9225 19.9846 11.6156 19.9904C12.3101 19.9836 12.9883 20.205 13.5489 20.6215L16.1894 22.2909L16.2537 22.3329L16.3118 22.381C16.9268 22.8509 17.2884 23.5869 17.2884 24.3683C17.2884 25.1498 16.9268 25.8858 16.3118 26.3556L16.243 26.4116L16.1649 26.4582L13.532 28.0422C12.3866 28.8698 10.8506 28.8698 9.70521 28.0422L7.07236 26.4582L6.99429 26.4116L6.92388 26.3556C6.30896 25.8858 5.94727 25.1498 5.94727 24.3683C5.94727 23.5869 6.30896 22.8509 6.92388 22.381L6.98357 22.3329L7.04786 22.2909L9.68684 20.6215ZM12.8147 21.6894C12.4708 21.4231 12.0487 21.2819 11.6162 21.2883C11.1858 21.2813 10.7654 21.4209 10.4222 21.6847L7.72354 23.3945C7.06532 23.9293 7.06532 24.8059 7.72354 25.3406L10.4222 26.9665C11.1338 27.5034 12.1077 27.5034 12.8193 26.9665L15.5134 25.3453C16.1716 24.8106 16.1716 23.9339 15.5134 23.3992L12.8147 21.6894Z" fill="#3B82F6"/>
</svg>
