<svg width="34" height="38" viewBox="0 0 34 38" fill="none" xmlns="http://www.w3.org/2000/svg">
<path fill-rule="evenodd" clip-rule="evenodd" d="M30.0195 24.3113V13.7391C30.0194 12.0503 29.1396 10.4841 27.6991 9.60865L19.3356 4.5207C17.8042 3.58946 15.8833 3.58946 14.3519 4.5207L5.99143 9.60865C4.54932 10.4851 3.66835 12.0529 3.66797 13.7438V24.3144C3.6687 26.0031 4.54838 27.569 5.98836 28.4449L13.1986 32.8221C15.4391 34.1834 18.2484 34.1834 20.4889 32.8221L27.6991 28.4387C29.1403 27.5625 30.0202 25.995 30.0195 24.3051" fill="#0B2764"/>
<circle cx="16.6186" cy="21.435" r="3.187" fill="white"/>
<path d="M17.4692 25.5874C17.4692 25.5874 18.2737 25.6719 19.0607 25.202C19.8478 24.7321 20.124 24.0959 20.124 24.0959L21.6438 26.7131C21.7403 26.8792 21.6156 27.0864 21.4237 27.0789L20.2053 27.0316C20.1116 27.028 20.024 27.0785 19.9803 27.1615L19.4127 28.239C19.3231 28.4092 19.0808 28.4133 18.9855 28.2462L17.4692 25.5874Z" fill="white"/>
<path d="M13.1352 24.0698C13.1352 24.0698 13.4642 24.8088 14.2647 25.2555C15.0652 25.7021 15.7544 25.6232 15.7544 25.6232L14.2476 28.248C14.152 28.4146 13.9103 28.4102 13.8208 28.2403L13.2525 27.1615C13.2088 27.0785 13.1213 27.0279 13.0275 27.0316L11.8106 27.0788C11.6184 27.0863 11.4937 26.8785 11.5908 26.7124L13.1352 24.0698Z" fill="white"/>
<path d="M16.6204 16.0566C16.0656 16.063 15.5241 15.8848 15.0785 15.5493L12.4054 13.9443L12.3675 13.9136C11.9126 13.5702 11.6445 13.0286 11.6445 12.4532C11.6445 11.8778 11.9126 11.3362 12.3675 10.9928L12.3963 10.9682L15.0695 9.27717C15.9917 8.59251 17.2445 8.59251 18.1667 9.27717L20.8399 10.9682L20.8687 10.9928C21.3224 11.337 21.5896 11.8782 21.5896 12.4532C21.5896 13.0281 21.3224 13.5694 20.8687 13.9136L20.8338 13.9428L18.1607 15.5493C17.7154 15.8842 17.1745 16.0623 16.6204 16.0566Z" fill="white"/>
<path d="M21.5 14.979L18.2143 16.9073L20.9621 18.3511C21.2053 18.479 21.4973 18.3027 21.4975 18.0279L21.5 14.979Z" fill="white"/>
<path d="M11.6445 14.979L14.9303 16.9073L12.1825 18.3511C11.9392 18.479 11.6472 18.3027 11.647 18.0279L11.6445 14.979Z" fill="white"/>
</svg>
