<svg width="24" height="24" viewBox="0 0 24 24" fill="none" xmlns="http://www.w3.org/2000/svg">
<path d="M19.4 5.8L13.7 2.4C12.7 1.8 11.4 1.8 10.3 2.4L4.6 5.8C3.6 6.4 3 7.4 3 8.6V15.6C3 16.7 3.6 17.8 4.6 18.3L9.5 21.2C11 22.1 12.9 22.1 14.5 21.2L19.4 18.3C20.4 17.7 21 16.7 21 15.6V8.6C20.9 7.4 20.3 6.4 19.4 5.8ZM11.3 15L10.6 14.6C10.2 14.4 9.9 13.9 9.9 13.5V12.7C9.9 12.2 10.2 11.8 10.6 11.6L11.3 11.2C11.7 11 12.2 11 12.7 11.2L13.4 11.6C13.8 11.8 14.1 12.3 14.1 12.7V13.5C14.1 14 13.8 14.4 13.4 14.6L12.7 15C12.2 15.2 11.7 15.2 11.3 15ZM14.7 7.6L14.1 8L12.8 8.7C12.3 9.1 11.6 9.1 11.1 8.7L9.7 7.9L9.2 7.6C8.7 7.2 8.7 6.6 9.2 6.3L11.1 5.1C11.4 5 11.7 4.9 12 4.9C12.3 4.9 12.6 5 12.8 5.2L14.7 6.4C15.2 6.7 15.2 7.3 14.7 7.6ZM9 9.6C8.6 9.3 8.6 8.8 8.9 8.5L10.6 9.5C10.7 9.6 10.9 9.7 11 9.7C10.8 9.8 10.7 9.8 10.5 9.9L10 10.2L9 9.6ZM13.4 9.9C13.2 9.8 13.1 9.8 12.9 9.7C13 9.6 13.2 9.6 13.3 9.5L14.8 8.6C15.1 8.9 15 9.4 14.6 9.7L13.8 10.2L13.4 9.9ZM11 16.7L10.3 17.9C10.3 18 10.2 18 10.1 18C9.9 18 9.8 17.9 9.8 17.8V17.6V17.5C9.7 17.2 9.4 17.1 9.2 17.2L9 17.3H8.8C8.7 17.2 8.6 17 8.7 16.9L9.4 15.7C9.4 15.6 9.5 15.6 9.5 15.6C9.7 15.5 9.9 15.4 10.1 15.5L11 16C11.2 16.1 11.3 16.3 11.2 16.5C11 16.5 11 16.6 11 16.7ZM15.2 17.2C15.1 17.2 15 17.3 15 17.2L14.8 17.1C14.5 17 14.3 17.1 14.2 17.4V17.7C14.2 17.9 14 18 13.9 17.9C13.8 17.9 13.7 17.8 13.7 17.8L13 16.6V16.5C13 16.3 13 16.1 13.2 16L14.1 15.5C14.3 15.4 14.6 15.4 14.7 15.6L14.8 15.7L15.5 16.9L15.2 17.2Z" fill="#07013C"/>
</svg>
