<svg width="24" height="24" viewBox="0 0 24 24" fill="none" xmlns="http://www.w3.org/2000/svg">
<path d="M19.4 5.8L13.7 2.4C12.7 1.8 11.4 1.8 10.3 2.4L4.6 5.8C3.6 6.4 3 7.4 3 8.6V15.6C3 16.7 3.6 17.8 4.6 18.3L9.5 21.2C11 22.1 12.9 22.1 14.5 21.2L19.4 18.3C20.4 17.7 21 16.7 21 15.6V8.6C20.9 7.4 20.3 6.4 19.4 5.8ZM11.9 4.9C12.8 4.9 13.5 5.6 13.5 6.5C13.5 7.4 12.8 8.1 11.9 8.1C11 8.1 10.3 7.4 10.3 6.5C10.3 5.6 11 4.9 11.9 4.9ZM11 15.9L10.9 16L9.1 17C8.8 17.2 8.6 17.3 8.3 17.3H8.2C8 17.3 7.7 17.2 7.6 17.1L5.7 16C5.5 15.8 5.4 15.6 5.4 15.4C5.4 15.2 5.5 15 5.7 14.8L7.5 13.7C8 13.4 8.5 13.4 9 13.6L9.1 13.7L10.9 14.8C11.1 15 11.2 15.2 11.2 15.4C11.2 15.6 11.2 15.7 11 15.9ZM11.6 13.1L9.2 11.7C8.8 11.5 8.6 11.2 8.6 10.8V10.3C8.6 9.7 9 9.3 9.6 9.3H14.4C14.9 9.3 15.3 9.8 15.3 10.3V10.8C15.3 11.2 15.1 11.6 14.7 11.7L12.3 13.1C12.1 13.2 11.8 13.2 11.6 13.1ZM18.3 16L16.4 17C16.1 17.2 15.9 17.3 15.6 17.3C15.3 17.3 15 17.2 14.8 17.1L13 16C12.8 15.9 12.7 15.6 12.7 15.4C12.7 15.2 12.8 15 12.9 14.9L13 14.8L14.8 13.7C15.3 13.4 15.8 13.4 16.3 13.6L16.4 13.7L18.2 14.8C18.4 15 18.5 15.2 18.5 15.4C18.6 15.6 18.5 15.8 18.3 16Z" fill="#3F75EF"/>
</svg>
