<svg width="24" height="24" viewBox="0 0 24 24" fill="none" xmlns="http://www.w3.org/2000/svg">
<path d="M19.4 5.8L13.7 2.4C12.7 1.8 11.4 1.8 10.3 2.4L4.6 5.8C3.6 6.4 3 7.4 3 8.6V15.6C3 16.7 3.6 17.8 4.6 18.3L9.5 21.2C11 22.1 12.9 22.1 14.5 21.2L19.4 18.3C20.4 17.7 21 16.7 21 15.6V8.6C20.9 7.4 20.3 6.4 19.4 5.8ZM10.7 15.4L8.8 17.2C8.5 17.5 8 17.5 7.7 17.2C7.4 16.9 7.4 16.4 7.7 16.1L9 14.9L7.7 13.7C7.4 13.4 7.4 12.9 7.7 12.6C8 12.3 8.5 12.3 8.8 12.6L10.7 14.3C11 14.7 11 15.1 10.7 15.4ZM11 8.5C11 8.6 10.9 8.7 10.8 8.7H8.7V9.8C8.7 9.9 8.7 9.9 8.6 9.9H8.4L6 8C5.9 8 5.9 7.9 6 7.8L8.4 6C8.5 6 8.5 5.9 8.6 6C8.7 6.1 8.7 6 8.7 6.1V7.2H10.8C10.9 7.2 11 7.3 11 7.4V8.5ZM15.7 17.4H12.7C12.3 17.4 11.9 17.1 11.9 16.7C11.9 16.3 12.2 16 12.7 16H15.7C16.1 16 16.5 16.3 16.5 16.7C16.5 17.1 16.1 17.4 15.7 17.4ZM17.9 10L15.6 11.8H15.5H15.4C15.3 11.8 15.3 11.7 15.3 11.7V10.6H13.2C13.1 10.6 13 10.5 13 10.4V9.3C13 9.2 13.1 9.1 13.2 9.1H15.3V8.1C15.3 8 15.3 8 15.4 8H15.6L17.9 9.8C18 9.9 18 10 17.9 10Z" fill="#07013C"/>
</svg>
