<svg width="24" height="24" viewBox="0 0 24 24" fill="none" xmlns="http://www.w3.org/2000/svg">
<path d="M19.4 5.8L13.7 2.4C12.7 1.8 11.4 1.8 10.3 2.4L4.6 5.8C3.6 6.4 3 7.4 3 8.6V15.6C3 16.7 3.6 17.8 4.6 18.3L9.5 21.2C11 22.1 12.9 22.1 14.5 21.2L19.4 18.3C20.4 17.7 21 16.7 21 15.6V8.6C20.9 7.4 20.3 6.4 19.4 5.8ZM7.7 12.1H6.4C6.1 12.1 5.9 11.9 5.9 11.6C5.9 11.3 6.1 11.1 6.4 11.1H7.7C8 11.1 8.2 11.3 8.2 11.6C8.2 11.9 7.9 12.1 7.7 12.1ZM9.1 9.1C9 9.2 8.9 9.2 8.8 9.2C8.7 9.2 8.5 9.1 8.4 9L7.6 8C7.4 7.9 7.4 7.6 7.6 7.4C7.8 7.2 8.1 7.2 8.3 7.5L9.1 8.5C9.3 8.6 9.3 8.9 9.1 9.1ZM11.5 6.4C11.5 6.1 11.7 5.9 12 5.9C12.3 5.9 12.5 6.1 12.5 6.4V7.6C12.5 7.9 12.3 8.1 12 8.1C11.7 8.1 11.5 7.9 11.5 7.6V6.4ZM12.6 17.7H11.4C11.1 17.7 10.8 17.4 10.8 17.1C10.8 16.8 11.1 16.5 11.4 16.5H12.6C12.9 16.5 13.2 16.8 13.2 17.1C13.2 17.5 12.9 17.7 12.6 17.7ZM13.1 14V14.4C13.1 15 12.7 15.4 12.1 15.4H11.8C11.2 15.4 10.8 15 10.8 14.4V14.1V14C10.1 13.6 9.6 12.8 9.6 12C9.6 10.7 10.6 9.7 11.9 9.7C13.2 9.7 14.2 10.7 14.2 12C14.3 12.9 13.9 13.6 13.1 14ZM15.2 9.2C15.1 9.2 15 9.2 14.9 9.1C14.7 8.9 14.7 8.6 14.8 8.4L15.6 7.4C15.8 7.2 16.1 7.2 16.3 7.3C16.5 7.5 16.5 7.8 16.4 8L15.6 9C15.5 9.2 15.4 9.2 15.2 9.2ZM17.7 12.1H16.4C16.1 12.1 15.9 11.9 15.9 11.6C15.9 11.3 16.1 11.1 16.4 11.1H17.7C18 11.1 18.2 11.3 18.2 11.6C18.2 11.9 17.9 12.1 17.7 12.1Z" fill="#07013C"/>
</svg>
