<svg width="34" height="38" viewBox="0 0 34 38" fill="none" xmlns="http://www.w3.org/2000/svg">
<path fill-rule="evenodd" clip-rule="evenodd" d="M30.0195 24.3113V13.7391C30.0194 12.0503 29.1396 10.4841 27.6991 9.60865L19.3356 4.5207C17.8042 3.58946 15.8833 3.58946 14.3519 4.5207L5.99143 9.60865C4.54932 10.4851 3.66835 12.0529 3.66797 13.7438V24.3144C3.6687 26.0031 4.54838 27.569 5.98836 28.4449L13.1986 32.8221C15.4391 34.1834 18.2484 34.1834 20.4889 32.8221L27.6991 28.4387C29.1403 27.5625 30.0202 25.995 30.0195 24.3051" fill="#3B82F6"/>
<path d="M10.9919 14.8456C11.7678 14.8456 12.4082 14.9313 12.9131 15.1027C13.4222 15.2742 13.7999 15.5351 14.0462 15.8854C14.2966 16.2358 14.4218 16.6811 14.4218 17.2216C14.4218 17.6241 14.3397 17.967 14.1755 18.2502C14.0113 18.5335 13.7958 18.7683 13.5289 18.9547C13.3961 19.0474 13.2587 19.131 13.1167 19.2052C12.8996 19.3188 12.8119 19.5985 12.9532 19.7986L14.8135 22.4317C14.9878 22.6784 14.8114 23.019 14.5094 23.019H13.7596C13.6348 23.019 13.5182 22.9565 13.4492 22.8525L11.4965 19.9095C11.4275 19.8055 11.3109 19.7429 11.1861 19.7429H9.93885V22.6466C9.93885 22.8523 9.77209 23.019 9.56639 23.019H8.83339C8.62769 23.019 8.46094 22.8523 8.46094 22.6466V15.218C8.46094 15.0123 8.62769 14.8456 8.83339 14.8456H10.9919ZM10.8933 15.9637H9.93885V18.636H10.9611C11.6467 18.636 12.1434 18.5205 12.4513 18.2894C12.7633 18.0583 12.9193 17.7173 12.9193 17.2663C12.9193 16.793 12.753 16.4575 12.4205 16.26C12.0921 16.0624 11.583 15.9637 10.8933 15.9637Z" fill="white"/>
<path d="M23.9116 23.019C23.7579 23.019 23.62 22.9246 23.5644 22.7813L22.8683 20.987C22.8127 20.8437 22.6748 20.7493 22.521 20.7493H19.5888C19.435 20.7493 19.2971 20.8437 19.2415 20.987L18.5454 22.7813C18.4898 22.9246 18.3519 23.019 18.1982 23.019H17.4495C17.1849 23.019 17.0047 22.7508 17.1047 22.5058L20.1506 15.0437C20.2077 14.9036 20.344 14.812 20.4954 14.812H21.6327C21.7841 14.812 21.9205 14.9037 21.9776 15.0439L25.0179 22.5061C25.1177 22.751 24.9375 23.019 24.673 23.019H23.9116ZM22.3943 19.5976L21.5383 17.3613C21.5055 17.2644 21.4582 17.1284 21.3967 16.9532C21.3351 16.7743 21.2735 16.5936 21.2119 16.4109C21.1662 16.2726 20.9616 16.2762 20.9171 16.415C20.9128 16.4284 20.9085 16.442 20.904 16.4557C20.8466 16.642 20.7891 16.8172 20.7316 16.9812C20.6782 17.1452 20.6372 17.2719 20.6084 17.3613L19.7463 19.5976H22.3943Z" fill="white"/>
<path d="M8.84766 25.1782L15.5661 29.6354" stroke="white" stroke-width="1.39671" stroke-linecap="round"/>
<path d="M8.84766 12.4868L15.5661 8.02969" stroke="white" stroke-width="1.39671" stroke-linecap="round"/>
<path d="M17.6211 13.3751L20.9612 11.1123" stroke="white" stroke-width="1.21048" stroke-linecap="round" stroke-linejoin="round"/>
<path d="M24.3047 13.3751L20.9646 11.1123" stroke="white" stroke-width="1.21048" stroke-linecap="round" stroke-linejoin="round"/>
<path d="M24.3047 25.4383L20.9646 27.7012" stroke="white" stroke-width="1.21048" stroke-linecap="round" stroke-linejoin="round"/>
<path d="M17.6211 25.4383L20.9612 27.7012" stroke="white" stroke-width="1.21048" stroke-linecap="round" stroke-linejoin="round"/>
</svg>
