<svg width="34" height="38" viewBox="0 0 34 38" fill="none" xmlns="http://www.w3.org/2000/svg">
<path fill-rule="evenodd" clip-rule="evenodd" d="M30.0195 24.3113V13.7391C30.0194 12.0503 29.1396 10.4841 27.6991 9.60865L19.3356 4.5207C17.8042 3.58946 15.8833 3.58946 14.3519 4.5207L5.99143 9.60865C4.54932 10.4851 3.66835 12.0529 3.66797 13.7438V24.3144C3.6687 26.0031 4.54838 27.569 5.98836 28.4449L13.1986 32.8221C15.4391 34.1834 18.2484 34.1834 20.4889 32.8221L27.6991 28.4387C29.1403 27.5625 30.0202 25.995 30.0195 24.3051" fill="#0B2764"/>
<path d="M11.6846 12.1214C11.9948 11.8257 12.5081 12.0455 12.5081 12.4741L12.5086 16.4675C12.5086 16.896 11.9952 17.1159 11.685 16.8202L9.59049 14.8232C9.3891 14.6312 9.38911 14.3098 9.5905 14.1178L11.6846 12.1214Z" fill="white"/>
<path d="M22.0009 26.2712C21.6908 26.5669 21.1775 26.347 21.1774 25.9185L21.177 21.9251C21.1769 21.4965 21.6903 21.2766 22.0005 21.5724L24.0951 23.5694C24.2964 23.7614 24.2964 24.0827 24.095 24.2747L22.0009 26.2712Z" fill="white"/>
<path d="M11.6211 14.6191H15.9022C16.575 14.6191 17.1205 15.1646 17.1205 15.8374V22.7659C17.1205 23.4387 17.6659 23.9841 18.3387 23.9841H21.5018" stroke="white" stroke-width="1.5837"/>
</svg>
