<svg width="24" height="24" viewBox="0 0 24 24" fill="none" xmlns="http://www.w3.org/2000/svg">
<path d="M12 9.7C12.6627 9.7 13.2 9.16274 13.2 8.5C13.2 7.83726 12.6627 7.3 12 7.3C11.3373 7.3 10.8 7.83726 10.8 8.5C10.8 9.16274 11.3373 9.7 12 9.7Z" fill="#3F75EF"/>
<path d="M19.4 5.9L13.7 2.5C12.7 1.9 11.3 1.9 10.3 2.5L4.6 5.9C3.6 6.4 3 7.5 3 8.6V15.6C3 16.7 3.6 17.8 4.6 18.4L9.5 21.3C11 22.2 12.9 22.2 14.5 21.3L19.4 18.4C20.4 17.8 21 16.8 21 15.6V8.6C21 7.5 20.4 6.4 19.4 5.9ZM10.8 15.5L10.7 15.6L8.9 16.7C8.6 16.9 8.3 17 8 17H7.9C7.7 17 7.4 16.9 7.2 16.8L5.3 15.7H5.2C5.1 15.5 5 15.2 5 15C5 14.8 5.1 14.6 5.3 14.4L7.1 13.3C7.6 13 8.1 12.9 8.6 13.2L8.8 13.3L10.7 14.4C10.9 14.6 11 14.8 11 15C11 15.2 10.9 15.4 10.8 15.5ZM12.6 11.9C12.6 12 12.5 12 12.4 12H11.6C11.5 12 11.5 11.9 11.5 11.9L11.3 11C11.1 10.9 11 10.9 10.8 10.8L10 11.3C9.9 11.4 9.8 11.3 9.8 11.3L9.2 10.7C9.1 10.6 9.1 10.6 9.2 10.5L9.7 9.8C9.6 9.6 9.6 9.4 9.5 9.2L8.6 9.1C8.6 9 8.5 9 8.5 8.9V8.1C8.5 8 8.6 8 8.6 7.9L9.5 7.8C9.6 7.6 9.6 7.4 9.7 7.3L9.2 6.5C9.1 6.4 9.1 6.4 9.2 6.3L9.8 5.7C9.9 5.6 9.9 5.6 10 5.7L10.7 6.2C10.9 6.1 11 6 11.2 6L11.3 5.1C11.3 5 11.4 5 11.5 5H12.3C12.4 5 12.5 5.1 12.5 5.1L12.7 6C12.9 6.1 13 6.1 13.2 6.2L14 5.7H14.2L14.8 6.3C14.9 6.4 14.9 6.4 14.8 6.5L14.3 7.2C14.4 7.4 14.5 7.5 14.5 7.7L15.4 7.8C15.5 7.8 15.5 7.9 15.5 8V8.8C15.5 8.9 15.4 8.9 15.4 9L14.5 9.2C14.4 9.4 14.4 9.5 14.3 9.7L14.8 10.4V10.6L14.2 11.2C14.1 11.3 14.1 11.3 14 11.2L13.3 10.7C13.1 10.8 13 10.9 12.8 10.9L12.6 11.9ZM18.7 15.6L16.8 16.7C16.6 16.9 16.3 17 16 17C15.7 17 15.4 16.9 15.2 16.7L13.3 15.6C13.1 15.5 13 15.3 13 15C13 14.8 13.1 14.6 13.2 14.5L13.3 14.4L15.1 13.3C15.6 13 16.1 12.9 16.6 13.2L16.8 13.3L18.7 14.4C18.9 14.6 19 14.8 19 15C19 15.3 18.9 15.5 18.7 15.6Z" fill="#3F75EF"/>
</svg>
