<svg width="34" height="38" viewBox="0 0 34 38" fill="none" xmlns="http://www.w3.org/2000/svg">
<path fill-rule="evenodd" clip-rule="evenodd" d="M30.0195 24.3113V13.7391C30.0194 12.0503 29.1396 10.4841 27.6991 9.60865L19.3356 4.5207C17.8042 3.58946 15.8833 3.58946 14.3519 4.5207L5.99143 9.60865C4.54932 10.4851 3.66835 12.0529 3.66797 13.7438V24.3144C3.6687 26.0031 4.54838 27.569 5.98836 28.4449L13.1986 32.8221C15.4391 34.1834 18.2484 34.1834 20.4889 32.8221L27.6991 28.4387C29.1403 27.5625 30.0202 25.995 30.0195 24.3051" fill="#0B2764"/>
<path d="M10.854 15.5245L14.0855 13.5439C14.5025 13.2312 15.0237 13.127 15.5449 13.127C16.0661 13.127 16.5873 13.2312 17.0043 13.5439L20.2359 15.5245C20.9656 16.15 20.9656 17.1924 20.2359 17.7137L19.1934 18.3391L17.1086 19.59C16.2746 20.2155 15.2407 20.0889 14.294 19.59L11.6879 18.2349L10.854 17.7137C10.02 17.1924 10.02 16.15 10.854 15.5245Z" fill="white"/>
<path d="M21.8458 22.3279L20.9489 22.9017L18.6555 24.2568C17.8216 24.8823 16.6749 24.8823 15.8409 24.2568L13.7561 23.0059L12.7136 22.3804C11.9839 21.755 11.8721 20.7068 12.7374 20.1687C13.4761 20.4758 13.609 20.5979 14.5179 21.1639C15.6477 21.8676 16.334 21.8134 17.4409 21.1385C18.5793 20.4443 20.179 19.5211 20.6292 19.1655L22.0955 20.1913C22.6168 20.8168 22.5755 21.7024 21.8458 22.3279Z" fill="white"/>
<path fill-rule="evenodd" clip-rule="evenodd" d="M20.5783 25.5039C20.2491 25.7782 20.4088 26.3133 20.8345 26.3624L23.0572 26.6185C23.3336 26.6503 23.5806 26.4447 23.5992 26.167L23.7491 23.9341C23.7778 23.5065 23.2802 23.2527 22.9509 23.5271L22.2906 24.0772L19.0556 21.5994C18.7646 21.3765 18.3479 21.4317 18.125 21.7228C17.902 22.0138 17.9572 22.4305 18.2483 22.6535L21.2448 24.9486L20.5783 25.5039Z" fill="white"/>
<path fill-rule="evenodd" clip-rule="evenodd" d="M12.4645 12.0181C12.808 11.7619 12.6774 11.219 12.255 11.147L10.0493 10.7714C9.77499 10.7247 9.51733 10.9168 9.48376 11.193L9.21369 13.4146C9.16198 13.8401 9.64513 14.1203 9.98871 13.8641L10.7411 13.3031C10.7583 13.3185 10.7765 13.3332 10.7957 13.3471L14.1913 15.8011C14.4885 16.0159 14.9034 15.9491 15.1182 15.652C15.333 15.3548 15.2662 14.9398 14.969 14.7251L11.8536 12.4735L12.4645 12.0181Z" fill="white"/>
</svg>
