<svg width="34" height="38" viewBox="0 0 34 38" fill="none" xmlns="http://www.w3.org/2000/svg">
<path fill-rule="evenodd" clip-rule="evenodd" d="M30.0195 24.3113V13.7391C30.0194 12.0503 29.1396 10.4841 27.6991 9.60865L19.3356 4.5207C17.8042 3.58946 15.8833 3.58946 14.3519 4.5207L5.99143 9.60865C4.54932 10.4851 3.66835 12.0529 3.66797 13.7438V24.3144C3.6687 26.0031 4.54838 27.569 5.98836 28.4449L13.1986 32.8221C15.4391 34.1834 18.2484 34.1834 20.4889 32.8221L27.6991 28.4387C29.1403 27.5625 30.0202 25.995 30.0195 24.3051" fill="#0B2764"/>
<path d="M8.44501 20.5571C7.9026 20.5571 7.46289 20.1174 7.46289 19.575C7.46289 19.0326 7.9026 18.5929 8.44501 18.5929L10.938 18.5929C11.4804 18.5929 11.9201 19.0326 11.9201 19.575C11.9201 20.1174 11.4804 20.5571 10.938 20.5571L8.44501 20.5571Z" fill="white"/>
<path d="M22.7477 20.5571C22.2053 20.5571 21.7656 20.1174 21.7656 19.575C21.7656 19.0326 22.2053 18.5929 22.7477 18.5929L25.2407 18.5929C25.7831 18.5929 26.2228 19.0326 26.2228 19.575C26.2228 20.1174 25.7831 20.5571 25.2407 20.5571L22.7477 20.5571Z" fill="white"/>
<path d="M22.2907 15.8108C21.8799 16.165 21.2597 16.1191 20.9055 15.7083C20.5513 15.2976 20.5972 14.6774 21.008 14.3232L22.896 12.6952C23.3068 12.341 23.927 12.3869 24.2812 12.7977C24.6354 13.2085 24.5895 13.8286 24.1787 14.1828L22.2907 15.8108Z" fill="white"/>
<path d="M11.3968 15.8108C11.8076 16.165 12.4278 16.1191 12.782 15.7083C13.1362 15.2976 13.0903 14.6774 12.6795 14.3232L10.7915 12.6952C10.3807 12.341 9.76052 12.3869 9.40632 12.7977C9.05212 13.2085 9.09799 13.8286 9.50878 14.1828L11.3968 15.8108Z" fill="white"/>
<path d="M15.8594 13.2186C15.8594 13.761 16.2991 14.2007 16.8415 14.2007C17.3839 14.2007 17.8236 13.761 17.8236 13.2186V10.7256C17.8236 10.1832 17.3839 9.74346 16.8415 9.74346C16.2991 9.74346 15.8594 10.1832 15.8594 10.7256L15.8594 13.2186Z" fill="white"/>
<path d="M16.2595 27.9219C15.7171 27.9219 15.2773 27.4822 15.2773 26.9398C15.2773 26.3973 15.7171 25.9576 16.2595 25.9576L17.4304 25.9576C17.9728 25.9576 18.4126 26.3973 18.4126 26.9398C18.4126 27.4822 17.9728 27.9219 17.4304 27.9219L16.2595 27.9219Z" fill="white"/>
<path fill-rule="evenodd" clip-rule="evenodd" d="M19.3316 21.8528C19.6172 21.3996 19.7825 20.863 19.7825 20.2877C19.7825 18.6645 18.4666 17.3486 16.8434 17.3486C15.2202 17.3486 13.9043 18.6645 13.9043 20.2877C13.9043 20.8369 14.0549 21.3508 14.317 21.7906C15.374 23.993 15.4796 24.3775 15.4796 24.3775H16.6546L18.1989 24.3775C18.1989 24.3775 18.3025 24.0003 19.3316 21.8528Z" fill="white"/>
</svg>
