<svg width="34" height="38" viewBox="0 0 34 38" fill="none" xmlns="http://www.w3.org/2000/svg">
<path fill-rule="evenodd" clip-rule="evenodd" d="M30.0195 24.3113V13.7391C30.0194 12.0503 29.1396 10.4841 27.6991 9.60865L19.3356 4.5207C17.8042 3.58946 15.8833 3.58946 14.3519 4.5207L5.99143 9.60865C4.54932 10.4851 3.66835 12.0529 3.66797 13.7438V24.3144C3.6687 26.0031 4.54838 27.569 5.98836 28.4449L13.1986 32.8221C15.4391 34.1834 18.2484 34.1834 20.4889 32.8221L27.6991 28.4387C29.1403 27.5625 30.0202 25.995 30.0195 24.3051" fill="#3B82F6"/>
<path fill-rule="evenodd" clip-rule="evenodd" d="M12.4056 12.7072C12.3132 12.7072 12.2207 12.7996 12.2207 12.8921V13.8165C12.2207 13.909 12.3132 14.0014 12.4056 14.0014L13.515 14.1863C13.6074 14.4637 13.6999 14.6486 13.7923 14.8335L13.1452 15.7579C13.0527 15.8504 13.0527 15.9428 13.1452 16.0353L13.8848 16.7749C13.9156 16.7749 13.9464 16.7851 13.9772 16.7954C14.0388 16.8159 14.1005 16.8365 14.1621 16.7749L15.0866 16.1277C15.2252 16.1739 15.3408 16.2202 15.4564 16.2664C15.5719 16.3126 15.6875 16.3588 15.8261 16.4051L16.011 17.5144C16.011 17.6069 16.1035 17.6993 16.1959 17.6993H17.4902C17.5826 17.6993 17.6751 17.6069 17.6751 17.5144L17.86 16.4051C18.0329 16.4051 18.1699 16.3332 18.3157 16.2567C18.4038 16.2104 18.4951 16.1625 18.5996 16.1277L19.6165 16.7749C19.7089 16.8673 19.8014 16.8673 19.8938 16.7749L20.6334 16.0353V15.7579L19.8938 14.8335C19.9401 14.741 19.9863 14.6255 20.0325 14.5099C20.0787 14.3943 20.125 14.2788 20.1712 14.1863L21.2805 14.0014C21.373 14.0014 21.4654 13.909 21.4654 13.8165V12.7996C21.4654 12.7072 21.373 12.6147 21.2805 12.6147L20.1712 12.4298C20.125 12.3374 20.0787 12.2218 20.0325 12.1063C19.9863 11.9907 19.9401 11.8751 19.8938 11.7827L20.541 10.8582C20.6334 10.7658 20.6334 10.6733 20.541 10.5809L19.7089 9.8413H19.4316L18.4147 10.4884C18.2298 10.396 18.0449 10.3035 17.7675 10.2111L17.5826 9.10172C17.5826 9.10172 17.4902 9.00928 17.3978 9.00928H16.2884C16.1959 9.00928 16.1035 9.10172 16.1035 9.19417L15.9186 10.3035C15.7799 10.3498 15.6644 10.396 15.5488 10.4422C15.4332 10.4884 15.3177 10.5347 15.179 10.5809L14.2545 9.93375C14.1621 9.8413 14.0696 9.8413 13.9772 9.93375L13.1452 10.6733C13.0527 10.7658 13.0527 10.8582 13.1452 10.9507L13.7923 11.8751C13.6999 12.06 13.6074 12.2449 13.515 12.5223L12.4056 12.7072ZM18.1373 13.3547C18.1373 14.0943 17.4901 14.7414 16.7506 14.7414C16.011 14.7414 15.3638 14.0943 15.3638 13.3547C15.3638 12.6151 16.011 11.968 16.7506 11.968C17.4901 11.968 18.1373 12.6151 18.1373 13.3547Z" fill="white"/>
<path d="M7.19336 21.5823L10.0592 19.8258C10.429 19.5485 10.8912 19.4561 11.3535 19.4561C11.8157 19.4561 12.278 19.5485 12.6477 19.8258L15.5136 21.5823C16.1607 22.137 16.1607 23.0615 15.5136 23.5237L14.5891 24.0784L12.7402 25.1878C12.0006 25.7425 10.9837 25.7425 10.2441 25.1878L7.93293 23.986L7.19336 23.5237C6.45378 23.0615 6.45378 22.137 7.19336 21.5823Z" fill="white"/>
<path d="M26.5133 23.6162L25.6813 23.986L23.6474 25.1878C22.9078 25.7425 21.8909 25.7425 21.1513 25.1878L19.3024 24.0784L18.3779 23.5237C17.7308 22.9691 17.7308 22.0446 18.3779 21.5823L21.2438 19.8258C21.6136 19.5485 22.0758 19.4561 22.5381 19.4561C23.0003 19.4561 23.4625 19.5485 23.8323 19.8258L26.6982 21.5823C27.1604 22.137 27.1604 23.0615 26.5133 23.6162Z" fill="white"/>
<path d="M26.7902 26.5744L23.9243 28.2384C23.1847 28.7931 22.0754 28.7931 21.3358 28.2384L18.4699 26.5744C17.9152 26.1121 17.8228 25.465 18.1926 24.9103L20.5038 26.297C21.7056 27.1291 23.2772 27.1291 24.479 26.297L27.0675 24.8179C27.4373 25.3726 27.4373 26.1121 26.7902 26.5744Z" fill="white"/>
<path d="M15.2366 26.5744L12.3707 28.2384C11.6311 28.7931 10.5217 28.7931 9.78217 28.2384L6.9163 26.5744C6.26917 26.1121 6.17672 25.3726 6.7314 24.8179L9.31993 26.297C10.5217 27.1291 12.0933 27.1291 13.2952 26.297L15.6063 24.9103C15.8837 25.465 15.7912 26.2046 15.2366 26.5744Z" fill="white"/>
</svg>
