<svg width="34" height="38" viewBox="0 0 34 38" fill="none" xmlns="http://www.w3.org/2000/svg">
<path fill-rule="evenodd" clip-rule="evenodd" d="M30.0195 24.3113V13.7391C30.0194 12.0503 29.1396 10.4841 27.6991 9.60865L19.3356 4.5207C17.8042 3.58946 15.8833 3.58946 14.3519 4.5207L5.99143 9.60865C4.54932 10.4851 3.66835 12.0529 3.66797 13.7438V24.3144C3.6687 26.0031 4.54838 27.569 5.98836 28.4449L13.1986 32.8221C15.4391 34.1834 18.2484 34.1834 20.4889 32.8221L27.6991 28.4387C29.1403 27.5625 30.0202 25.995 30.0195 24.3051" fill="#0B2764"/>
<path d="M18.2245 27.2602C17.7478 27.2602 17.3613 26.8738 17.3613 26.3971C17.3613 25.9204 17.7477 25.534 18.2244 25.534L22.645 25.5339C23.1217 25.5339 23.5081 25.9203 23.5081 26.397C23.5081 26.8737 23.1217 27.2601 22.645 27.2601L18.2245 27.2602Z" fill="white"/>
<path fill-rule="evenodd" clip-rule="evenodd" d="M10.4968 20.3758C10.1535 20.7191 10.161 21.2781 10.5134 21.6121L12.7061 23.6901L10.5526 25.9623C10.2311 26.3016 10.2382 26.8353 10.5688 27.1659C10.9121 27.5092 11.4711 27.5017 11.8051 27.1493L14.452 24.3564C14.519 24.2857 14.5718 24.2066 14.6103 24.1226C14.8474 23.7795 14.8071 23.3039 14.4933 23.0065L11.7005 20.3596C11.3611 20.038 10.8274 20.0452 10.4968 20.3758Z" fill="white"/>
<path fill-rule="evenodd" clip-rule="evenodd" d="M11.328 10.3119C11.3279 9.88342 10.8146 9.66361 10.5044 9.9593L7.93425 12.4096C7.73286 12.6016 7.73285 12.923 7.93424 13.115L10.505 15.566C10.8151 15.8617 11.3286 15.6418 11.3285 15.2133L11.3283 13.6925L14.441 13.6924C14.9176 13.6924 15.3041 13.306 15.3041 12.8293C15.3041 12.3526 14.9176 11.9662 14.4409 11.9662L11.3282 11.9662L11.328 10.3119Z" fill="white"/>
<path fill-rule="evenodd" clip-rule="evenodd" d="M22.0308 17.8628C22.0308 18.2913 22.5441 18.5111 22.8543 18.2154L25.4245 15.7651C25.6259 15.5731 25.6259 15.2517 25.4245 15.0597L22.8538 12.6087C22.5436 12.313 22.0302 12.5329 22.0302 12.9615L22.0304 14.4823L18.9178 14.4823C18.4411 14.4824 18.0547 14.8688 18.0547 15.3455C18.0547 15.8221 18.4411 16.2086 18.9178 16.2086L22.0306 16.2085L22.0308 17.8628Z" fill="white"/>
</svg>
