<svg width="24" height="24" viewBox="0 0 24 24" fill="none" xmlns="http://www.w3.org/2000/svg">
<path d="M19.4 5.8L13.7 2.4C12.6 1.8 11.3 1.8 10.3 2.4L4.6 5.8C3.7 6.4 3.1 7.4 3 8.6V15.6C3 16.7 3.6 17.7 4.6 18.3L9.5 21.2C11.1 22.1 13 22.1 14.5 21.2L19.4 18.3C20.4 17.8 21 16.7 21 15.6V8.6C21 7.4 20.4 6.4 19.4 5.8ZM16.2 16.7C15.7 16.7 15.2 16.4 15 16H12C11.6 16 11.3 15.7 11.3 15.3V9.9H9.2C8.9 10.4 8.4 10.8 7.8 10.8C6.9 10.8 6.3 10.1 6.3 9.3C6.3 8.5 7 7.8 7.8 7.8C8.4 7.8 9 8.2 9.2 8.7H11.9C12.3 8.7 12.6 9 12.6 9.4V14.8H14.9C15.2 14.4 15.6 14.2 16.1 14.2C16.8 14.2 17.4 14.8 17.4 15.5C17.4 16.2 16.9 16.7 16.2 16.7Z" fill="#07013C"/>
</svg>
