<?xml version="1.0" encoding="UTF-8"?>
<svg width="110px" height="110px" viewBox="0 0 110 110" version="1.1" xmlns="http://www.w3.org/2000/svg" xmlns:xlink="http://www.w3.org/1999/xlink">
    <title>Kubernetes</title>
    <g id="Kubernetes" stroke="none" stroke-width="1" fill="none" fill-rule="evenodd">
        <g id="kubernetes-seeklogo.com" transform="translate(28.357143, 29.000000)" fill="#326DE6" fill-rule="nonzero">
            <path d="M26.65038,0.0142936708 C27.2884417,0.0142936708 27.9265036,0.156681102 28.4936695,0.441455965 L46.4302945,9.02029872 C47.6000745,9.58984846 48.4508235,10.6221573 48.7344065,11.9036442 L53.1653909,31.232738 C53.448974,32.514225 53.1653909,33.8313086 52.3500899,34.8636176 L39.9433334,50.3482507 C39.1280321,51.3449627 37.9228043,51.9501093 36.6466809,51.9501093 L16.6540791,51.9857063 C15.3779556,51.9857063 14.1727279,51.4161565 13.3574267,50.3838475 L0.950670273,34.8992144 C0.135369135,33.8669056 -0.183661744,32.5498218 0.135369135,31.268335 L4.56635358,11.9392411 C4.84993658,10.6577542 5.7006856,9.62544532 6.87046549,9.05589558 L24.8070905,0.441455965 C25.3742566,0.156681102 26.0123183,0.0142936708 26.65038,0.0142936708 Z M26.65038,7.45403699 C26.3667971,7.45403699 26.0832141,7.5964244 25.8705268,7.81000556 C25.6882234,7.99307511 25.58405,8.22845025 25.5580067,8.49371429 L25.5514959,8.62873328 L25.5514959,8.91350816 C25.5514959,9.16268616 25.5869437,9.3762673 25.6578395,9.58984846 C25.6932873,9.69663901 25.6932873,9.80342959 25.7287354,9.94581703 L25.7287354,9.98141389 C25.799631,10.6933511 25.9059746,11.3340945 25.8350788,11.9036442 C25.799631,12.1528222 25.6578395,12.2596128 25.5514959,12.3664034 C25.527864,12.3901346 25.5199867,12.398045 25.5068579,12.411229 L25.4806002,12.4375971 L25.4451522,12.9003562 C24.8070905,12.97155 24.1690288,13.0427437 23.5309671,13.1851311 C20.8014805,13.7902777 18.391025,15.1785552 16.5122876,17.1719792 L16.1578089,16.9228012 L16.0869131,16.9228012 C16.0160174,16.9228012 15.9451216,16.958398 15.8742259,16.958398 C15.7678822,16.958398 15.6615386,16.9228012 15.555195,16.8516075 C15.1602044,16.5770031 14.7652138,16.1977876 14.3479003,15.7587943 L14.13728,15.5345237 C14.0663842,15.46333 13.9954885,15.3565394 13.8891448,15.2853457 C13.7473533,15.1073614 13.6055618,14.964974 13.4283225,14.7869897 C13.3928746,14.7513929 13.3219788,14.715796 13.2510831,14.6446023 C13.2274512,14.620871 13.2038192,14.6129606 13.1906904,14.5997766 L13.1801873,14.5734086 C12.9675001,14.3954243 12.6839171,14.2886337 12.4003341,14.2886337 C12.0813032,14.2886337 11.7622723,14.4310211 11.5850329,14.6801991 C11.2558741,15.1099041 11.324057,15.7544615 11.7328185,16.1863588 L11.8331681,16.2820577 C11.8686159,16.2820577 11.8686159,16.3176546 11.9040638,16.3176546 C11.9749596,16.3532514 12.0104074,16.4244452 12.0813032,16.460042 C12.2939904,16.6024295 12.4712298,16.70922 12.6839171,16.8160106 C12.7548128,16.8397418 12.8257086,16.8792939 12.8966043,16.9241196 L13.002948,16.9939949 C13.6410097,17.3855603 14.1727279,17.7059321 14.5981024,18.0974975 C14.7500218,18.2500555 14.7717246,18.4026134 14.774825,18.5551714 L14.7753417,18.7026441 L15.1298205,19.0230158 C15.0589247,19.1298064 14.988029,19.2010001 14.9525811,19.3077907 C13.1801873,22.1199424 12.5066777,25.4304502 12.9675001,28.7053612 L12.5066777,28.8477486 C12.5066777,28.8833454 12.4712298,28.8833454 12.4712298,28.9189422 C12.4003341,29.0613298 12.2939904,29.2037172 12.0813032,29.3105078 C11.5495851,29.488492 10.9115233,29.5596858 10.1671179,29.6308794 L10.13167,29.6308794 C10.0253264,29.6308794 9.8835349,29.6308794 9.77719129,29.6664764 C9.56450402,29.6664764 9.35181678,29.7020732 9.10368166,29.73767 C9.0327859,29.73767 8.96189014,29.7732668 8.89099439,29.7732668 C8.86736247,29.7732668 8.84373055,29.7732668 8.82009863,29.7838141 L8.78465076,29.8088638 C8.146589,29.9512512 7.75666237,30.5563978 7.863006,31.1259474 C7.96934964,31.6243034 8.430172,31.9446752 8.99733802,31.9446752 C9.06823378,31.9446752 9.12337491,31.9446752 9.18376759,31.934128 L9.28092102,31.9090784 C9.3163689,31.9090784 9.35181678,31.9090784 9.35181678,31.8734816 C9.42271253,31.8734816 9.49360827,31.8378846 9.56450402,31.8378846 C9.81263916,31.766691 9.98987853,31.6954972 10.2025658,31.5887066 C10.3089094,31.5531098 10.415253,31.481916 10.5215967,31.4463192 L10.5570446,31.4463192 C11.2305542,31.1971412 11.8331681,30.98356 12.4003341,30.9123664 L12.4712298,30.9123664 C12.6839171,30.9123664 12.8257086,31.019157 12.9320522,31.0903506 C12.9556841,31.0903506 12.9635614,31.1061714 12.9766903,31.1167186 L13.002948,31.1259474 L13.4992182,31.0547538 C14.3499672,33.6889212 15.9805695,36.0383138 18.1428899,37.746963 C18.6391602,38.1385286 19.1354304,38.4589002 19.6671486,38.779272 L19.4544613,39.2420312 C19.4544613,39.277628 19.4899092,39.277628 19.4899092,39.3132248 C19.5608049,39.4556122 19.6317007,39.6335966 19.5608049,39.8827746 C19.3481177,40.4167274 19.0290868,40.9506804 18.6391602,41.5558268 L18.6391602,41.5914238 C18.5682644,41.6982144 18.4973687,41.769408 18.4264729,41.8761986 C18.2846814,42.054183 18.1783378,42.2321672 18.0365463,42.4457484 C18.0010984,42.4813452 17.9656505,42.552539 17.9302026,42.6237326 C17.9302026,42.6474638 17.914448,42.671195 17.903945,42.6843791 L17.8947548,42.6949264 C17.6111718,43.300073 17.823859,43.9764132 18.3555772,44.2255911 C18.4973687,44.296785 18.6391602,44.3323818 18.7809517,44.3323818 C19.1637887,44.3323818 19.5466258,44.1017142 19.7744138,43.7701295 L19.8443879,43.6560416 C19.8443879,43.6204446 19.8798358,43.5848478 19.8798358,43.5848478 C19.9152837,43.5136539 19.9507316,43.4424604 19.9861794,43.4068636 C20.0925231,43.1576856 20.1279709,42.9797012 20.1988667,42.76612 L20.3052103,42.4457484 C20.5533454,41.7338112 20.7305849,41.1642614 21.0496156,40.6659054 C21.1914071,40.4523242 21.3686466,40.4167274 21.5104381,40.3455338 C21.5340699,40.3455338 21.5419472,40.3455338 21.5550761,40.3349865 L21.5813339,40.3099368 L21.829469,39.8471778 C23.3891754,40.4523242 25.0906734,40.772696 26.7921715,40.772696 C27.82016,40.772696 28.8835961,40.6659054 29.8761368,40.4167274 C30.5141985,40.27434 31.1168124,40.0963558 31.7194263,39.8827746 L31.9321134,40.27434 C31.9675614,40.27434 31.9675614,40.27434 32.0030092,40.3099368 C32.1802485,40.3455338 32.3220402,40.4167274 32.4638317,40.6303086 C32.7474146,41.1286646 32.9601019,41.7338112 33.208237,42.4101514 L33.208237,42.4457484 C33.2436848,42.552539 33.2791327,42.6593294 33.3145807,42.76612 C33.3854763,42.9797012 33.4209243,43.1932824 33.5272678,43.4068636 C33.5627158,43.4780572 33.5981636,43.5136539 33.6336114,43.5848478 C33.6336114,43.608579 33.6493661,43.6323102 33.6598692,43.6454943 L33.6690595,43.6560416 C33.8817466,44.0832038 34.3071212,44.3323818 34.7324956,44.3323818 C34.8742873,44.3323818 35.0160787,44.296785 35.1578702,44.2255911 C35.4060053,44.0832038 35.6186926,43.8696225 35.6895883,43.5848478 C35.7503561,43.3407551 35.7590372,43.0705095 35.670986,42.8189446 L35.6186926,42.6949264 C35.6186926,42.6593294 35.5832446,42.6593294 35.5832446,42.6237326 C35.5477968,42.552539 35.512349,42.4813452 35.4769009,42.4457484 C35.3705575,42.2321672 35.2287658,42.054183 35.0869744,41.8761986 C35.0160787,41.769408 34.9451829,41.6982144 34.8742873,41.5914238 L34.8742873,41.5558268 C34.4843605,40.9506804 34.1298817,40.4167274 33.9526424,39.8827746 C33.8817466,39.6335966 33.9526424,39.4912092 33.9880902,39.3132248 C33.9880902,39.2894936 34.0038449,39.2815832 34.014348,39.2683992 L34.0235382,39.2420312 L33.8462987,38.8148688 C35.7250361,37.7113662 37.3201907,36.1451044 38.5254182,34.2228742 C39.1634802,33.2261622 39.6597504,32.1226596 40.0142292,31.019157 L40.4396036,31.0903506 C40.4750514,31.0903506 40.4750514,31.0547538 40.5104994,31.0547538 C40.6522909,30.98356 40.7586346,30.8767694 40.9713217,30.8767694 L41.0422175,30.8767694 C41.6093836,30.9479632 42.2119975,31.1615444 42.885507,31.4107224 L42.9209548,31.4107224 C43.0272985,31.4463192 43.1336421,31.517513 43.2399858,31.5531098 C43.4526731,31.6599004 43.6299124,31.731094 43.8780475,31.8022878 C43.9489433,31.8022878 44.019839,31.8378846 44.0907348,31.8378846 C44.1143667,31.8378846 44.1379986,31.8378846 44.1616306,31.8484319 L44.1970785,31.8734816 C44.3034221,31.9090784 44.3743177,31.9090784 44.4806614,31.9090784 C45.0123797,31.9090784 45.4732019,31.5531098 45.6149933,31.0903506 C45.6149933,30.696047 45.2827482,30.1804191 44.7297807,29.9634355 L44.587005,29.9156544 L44.587005,29.9156544 L44.5515572,29.9156544 C44.5161092,29.9156544 44.4806614,29.9156544 44.4806614,29.8800574 C44.4097658,29.8800574 44.3388699,29.8444606 44.2679741,29.8444606 C44.019839,29.8088638 43.8071519,29.7732668 43.5944646,29.7732668 C43.4881209,29.7732668 43.3817772,29.7732668 43.2399858,29.73767 L43.204538,29.73767 C42.4601326,29.6664764 41.8575187,29.5952826 41.2903526,29.4172982 C41.0422175,29.3105078 40.9713217,29.1681202 40.900426,29.0257328 C40.900426,29.0020016 40.8846714,28.9940912 40.8741684,28.9809072 L40.8649782,28.9545392 L40.4041558,28.8121518 C40.6168431,27.1746962 40.5459473,25.466047 40.1560207,23.7929948 C39.7660941,22.1199424 39.0925843,20.5536807 38.1709397,19.1298064 L38.5254182,18.8094347 L38.5254182,18.7382409 C38.5254182,18.5602566 38.5608663,18.3822724 38.7026577,18.2042881 C39.0571364,17.8779835 39.485465,17.6011191 39.9876432,17.2912946 L40.2978121,17.1007855 C40.4041558,17.0295918 40.5104994,16.9939949 40.6168431,16.9228012 C40.8295302,16.8160106 41.0067697,16.70922 41.2194568,16.5668326 C41.2549048,16.5312357 41.3258004,16.4956389 41.3966963,16.4244452 C41.4203281,16.4007139 41.4439601,16.3928035 41.457089,16.3796195 L41.4675921,16.3532514 C41.9638624,15.9260892 42.0702058,15.214152 41.7157272,14.7513929 C41.5384877,14.5022148 41.2194568,14.3598274 40.900426,14.3598274 C40.6641069,14.3598274 40.4524043,14.4339875 40.2448044,14.5617077 L40.1205726,14.6446023 C40.0851248,14.6801991 40.0851248,14.6801991 40.049677,14.715796 C39.9787812,14.7513929 39.9433334,14.8225866 39.8724375,14.8581834 C39.6951982,15.0361677 39.5534068,15.1785552 39.4116153,15.3565394 C39.3643514,15.4040019 39.3170876,15.4672852 39.2593207,15.5252949 L39.1634802,15.6057174 C38.6672099,16.1396703 38.2063875,16.5668326 37.7455651,16.8872043 C37.6392214,16.958398 37.5328778,16.9939949 37.4265341,16.9939949 C37.3556385,16.9939949 37.2847426,16.9939949 37.213847,16.958398 L37.1429512,16.958398 L36.7175768,17.2431729 C36.2567543,16.7448169 35.7604841,16.3176546 35.2642139,15.8904923 C33.1373412,14.21744 30.5496463,13.1851311 27.8556078,12.9359531 L27.82016,12.4731939 L27.7492641,12.4020002 L27.7492641,12.4020002 C27.6429205,12.2952096 27.501129,12.1884191 27.4656812,11.9392411 C27.4302334,11.3696913 27.501129,10.7289479 27.5720249,10.0170108 L27.5720249,9.98141389 C27.5720249,9.87462331 27.6074727,9.73223587 27.6429205,9.62544532 C27.6783685,9.41186416 27.7138163,9.19828302 27.7492641,8.949105 L27.7492641,8.62873328 C27.7492641,7.98798984 27.2529939,7.45403699 26.65038,7.45403699 Z M26.969411,32.1938532 C27.1023404,32.2739462 27.2153305,32.3740623 27.3083812,32.4791842 L27.3947854,32.5854186 L30.1242719,37.533382 C29.805241,37.6401726 29.4507622,37.7113662 29.0962834,37.8181568 C28.2809824,37.996141 27.4656812,38.1029316 26.6149322,38.1029316 C25.3742566,38.1029316 24.1690288,37.8893506 23.0346968,37.533382 L25.8350788,32.4430312 C26.1186619,32.1226596 26.5794844,31.980272 26.969411,32.1938532 Z M22.7865617,30.5208008 C22.81492,30.6916658 22.8205916,30.8397488 22.7854273,30.9832753 L22.7511137,31.0903506 L20.5887934,36.3230888 C18.6037123,35.0416018 17.0085579,33.0837746 16.1578089,30.734382 L21.794021,29.7732668 C22.2548434,29.73767 22.6802181,30.0580418 22.7865617,30.5208008 Z M31.3649475,29.73767 L37.0366075,30.6987852 C36.8239202,31.481916 36.4694416,32.1938532 36.0086192,32.8701936 C35.1224224,34.2940678 33.9526424,35.4331674 32.6056231,36.3230888 L30.372407,30.9479632 C30.2660634,30.5208008 30.4433027,30.0580418 30.8686773,29.8444606 C31.0104688,29.7732668 31.187708,29.73767 31.3649475,29.73767 Z M27.4656812,25.1456754 L28.5291175,26.498356 L28.1746388,28.1714082 L26.6149322,28.9189422 L25.0552256,28.1714082 L24.665299,26.498356 L25.7287354,25.1456754 L27.4656812,25.1456754 Z M36.0795148,21.0876337 C36.6821287,22.0843456 37.1429512,23.223445 37.4265341,24.469335 C37.7101173,25.6796282 37.7810129,26.8899214 37.6746692,28.0646176 L32.2511444,26.498356 C31.7548741,26.3559686 31.4712912,25.8576124 31.5776348,25.3592564 C31.6130827,25.216869 31.6839783,25.0744816 31.7903219,24.967691 L36.0795148,21.0876337 Z M17.1149015,21.0876337 L21.3331988,24.8609004 C21.7231254,25.1812722 21.7585732,25.7864188 21.4395422,26.1779842 C21.3331988,26.3203716 21.1914071,26.4271622 21.0141678,26.462759 L15.5197471,28.0646176 C15.3070599,25.6440314 15.838778,23.1878482 17.1149015,21.0876337 Z M25.2324651,15.8192986 L24.9134341,21.5147958 C24.8779863,22.0131518 24.4880595,22.4403142 23.9563415,22.4403142 C23.81455,22.4403142 23.6373105,22.4047172 23.5309671,22.3335236 L18.8163995,18.9518221 C20.2697624,17.4923509 22.0776042,16.4956389 24.0981329,16.0328797 C24.4880595,15.961686 24.8425383,15.8904923 25.2324651,15.8192986 Z M27.9973993,15.8548955 C30.4433027,16.1396703 32.676519,17.2431729 34.3780168,18.9518221 L29.7343451,22.2623298 C29.3444185,22.5115078 28.8127005,22.4403142 28.4936695,22.0487486 C28.3873259,21.9419583 28.351878,21.7995706 28.3164302,21.6571832 L27.9973993,15.8548955 Z" id="Combined-Shape"></path>
        </g>
    </g>
</svg>