<svg fill="none" xmlns="http://www.w3.org/2000/svg" viewBox="0 0 46 51"><path d="M13.699 8.699c.617 3.174 4.182 5.891 5.417 6.635l13.53 8.035c1.32.744 8.815 5.348 11.706 13.727.085.2.281.344.478.344.28 0 .533-.23.533-.544v-22.62c0-1.259-.674-2.431-1.769-3.032l-2.554-1.43a1.091 1.091 0 00-1.488.43l-3.537 6.262a1.09 1.09 0 01-1.516.4l-10.442-6.148c-.533-.315-.702-1-.393-1.544l3.397-6.006c.336-.6.084-1.344-.534-1.601-1.067-.458-2.358-.915-2.47-.973-2.667-.886-6.428-1.2-8.225 1.488C14.57 4.009 13.25 6.297 13.7 8.699zM31.664 42.301c-.617-3.174-4.182-5.891-5.418-6.635l-13.53-8.035c-1.32-.744-8.814-5.348-11.705-13.727-.085-.2-.281-.344-.478-.344a.538.538 0 00-.533.544v22.65c0 1.257.674 2.43 1.768 3.03l2.555 1.43a1.091 1.091 0 001.488-.429l3.509-6.262a1.09 1.09 0 011.515-.4l10.443 6.148c.533.314.702 1 .393 1.544l-3.369 5.977c-.337.6-.084 1.344.534 1.601 1.066.458 2.358.915 2.47.972 2.639.887 6.4 1.202 8.197-1.487 1.291-1.887 2.61-4.175 2.161-6.577z" fill="#fff"/></svg>