<?xml version="1.0" encoding="UTF-8"?>
<svg width="110px" height="110px" viewBox="0 0 110 110" version="1.1" xmlns="http://www.w3.org/2000/svg" xmlns:xlink="http://www.w3.org/1999/xlink">
    <title>OIDC</title>
    <g id="OIDC" stroke="none" stroke-width="1" fill="none" fill-rule="evenodd">
        <g id="Group-11" transform="translate(16.500000, 27.983333)">
            <path d="M57.7809005,8.5975671e-13 C58.88547,8.55629585e-13 59.7809005,0.8954305 59.7809005,2 L59.7809005,28.9373742 C59.7809005,30.0419437 58.88547,30.9373742 57.7809005,30.9373742 L5.15094086,30.9373742 C4.04637136,30.9373742 3.15094086,30.0419437 3.15094086,28.9373742 L3.15094086,2 C3.15094086,0.8954305 4.04637136,8.61735973e-13 5.15094086,8.5975671e-13 L57.7809005,8.5975671e-13 Z M32.2469933,9.05037791 L27.9004029,20.8596075 C27.7630827,21.2292962 27.7791336,21.6385231 27.9449876,21.9963206 C28.1108416,22.3541181 28.4127547,22.6308359 28.7836142,22.7649622 C28.9475349,22.8312854 29.1228197,22.864994 29.2996477,22.8642131 C29.9270676,22.8566343 30.4842789,22.461449 30.6988926,21.8718272 L35.045483,10.0625976 C35.3184924,9.29821214 34.9242864,8.45664869 34.1622717,8.17709034 C33.3922329,7.88942168 32.5347817,8.28038386 32.2469933,9.05037791 Z M23.9134631,8.63339287 C23.3683967,8.51866265 22.8048838,8.71784256 22.4529849,9.14961513 L22.4529849,9.14961513 L17.4911237,14.4191117 C16.9442095,14.9908024 16.9442095,15.8917078 17.4911237,16.4633985 L17.4911237,16.4633985 L22.4529849,21.7626662 C22.7301962,22.0669417 23.1230533,22.239943 23.5346706,22.2390087 C24.123544,22.2271575 24.6500538,21.869206 24.8776562,21.3259663 C25.1052586,20.7827266 24.9911459,20.1563719 24.5865852,19.7283031 L24.5865852,19.7283031 L20.6170962,15.4710263 L24.6163563,11.2137494 L24.6163563,11.1839782 C25.0257048,10.8062293 25.1899047,10.2315486 25.0419197,9.69455622 C24.8939348,9.15756383 24.4585295,8.7481231 23.9134631,8.63339287 Z M39.0324227,8.66316404 C38.4873563,8.77789426 38.0519511,9.187335 37.9039661,9.72432739 C37.7559811,10.2613198 37.9201811,10.8360004 38.3295295,11.2137494 L42.2990184,15.4710263 L38.3295295,19.7283031 C37.9214648,20.1603202 37.8094547,20.793654 38.0445897,21.339426 C38.2797247,21.8851979 38.8169464,22.2388232 39.4112152,22.2390087 C39.8228325,22.239943 40.2156896,22.0669417 40.4929009,21.7626662 L45.4547621,16.4931697 C45.9829504,15.9255292 45.9829504,15.0462945 45.4547621,14.478654 L45.4547621,14.4488829 L40.4929009,9.1793863 C40.141002,8.74761373 39.5774891,8.54843382 39.0324227,8.66316404 Z" id="Combined-Shape" fill="#90ADBF"></path>
            <path d="M5.0473221,34.5643817 L58.0625789,34.5643817 C59.1883294,34.5643817 60.2619663,35.0387599 61.019963,35.871079 L75.8786548,52.186682 C76.6223898,53.003341 76.5632732,54.2682903 75.7466142,55.0120254 C75.3783155,55.3474365 74.8981039,55.5333333 74.3999628,55.5333333 L21.384706,55.5333333 C20.2589555,55.5333333 19.1853186,55.0589552 18.4273219,54.2266361 L3.56863008,37.9110331 C2.82489507,37.094374 2.88401168,35.8294247 3.70067073,35.0856897 C4.06896935,34.7502785 4.54918103,34.5643817 5.0473221,34.5643817 Z" id="Rectangle-Copy-5" fill="#5B7899"></path>
        </g>
    </g>
</svg>