<svg width="39" height="42" viewBox="0 0 39 42" fill="none" xmlns="http://www.w3.org/2000/svg">
  <path fill-rule="evenodd" clip-rule="evenodd" d="M38.0221 28.6715V13.9779C38.0219 11.6306 36.7718 9.45392 34.7252 8.2372L22.842 1.16577C20.6661 -0.1285 17.9368 -0.1285 15.761 1.16577L3.88208 8.2372C1.83306 9.45527 0.581347 11.6344 0.580811 13.9843V28.6758C0.581852 31.0228 1.83173 33.1992 3.87771 34.4165L14.1223 40.5001C17.3057 42.3921 21.2973 42.3921 24.4806 40.5001L34.7252 34.4079C36.7728 33.1901 38.023 31.0116 38.0221 28.6629" fill="#3F75EF"/>
  <path d="M24.2904 13.8516H14.3124C13.22 13.8516 12.3176 14.818 12.3176 16.0116V17.083C12.2999 17.9184 12.7699 18.6904 13.528 19.0716L18.516 21.9323C19.0133 22.1657 19.5917 22.1657 20.089 21.9323L25.077 19.0716C25.8255 18.6943 26.2918 17.934 26.2808 17.1087V16.0373C26.2808 14.8458 25.4069 13.8687 24.3014 13.8601L24.2904 13.8516Z" fill="white"/>
  <ellipse cx="19.2087" cy="8.12139" rx="3.43891" ry="3.37286" fill="white"/>
  <path d="M32.5164 31.7335L28.6646 33.9707C27.6494 34.7097 26.2606 34.7097 25.2453 33.9707L21.3935 31.7335C20.4518 30.9964 20.4518 29.7878 21.3935 29.0507L25.2453 26.6935C26.2613 25.9566 27.6487 25.9566 28.6646 26.6935L32.5164 29.0507C33.4559 29.7857 33.4559 30.9964 32.5164 31.7335Z" fill="white"/>
  <path d="M26.9538 31.23C26.1535 31.239 25.3723 30.9906 24.7296 30.5228L20.8734 28.2857L20.8188 28.2428C20.1626 27.7641 19.7759 27.0092 19.7759 26.2071C19.7759 25.405 20.1626 24.6501 20.8188 24.1714L20.8603 24.1371L24.7165 21.78C26.0469 20.8256 27.8541 20.8256 29.1845 21.78L33.0407 24.1371L33.0822 24.1714C33.7367 24.6512 34.1222 25.4057 34.1222 26.2071C34.1222 27.0086 33.7367 27.7631 33.0822 28.2428L33.032 28.2836L29.1757 30.5228C28.5334 30.9897 27.7532 31.238 26.9538 31.23Z" fill="white"/>
  <path fill-rule="evenodd" clip-rule="evenodd" d="M24.2032 21.0323C25.0006 20.4592 25.9654 20.1541 26.9539 20.1623V20.1687C27.9432 20.16 28.9088 20.4652 29.7068 21.0387L33.4734 23.3401L33.5652 23.398L33.6504 23.4644C34.5281 24.1121 35.0443 25.1268 35.0443 26.2041C35.0443 27.2813 34.5281 28.296 33.6504 28.9437L33.5499 29.0208L33.4406 29.0851L29.6827 31.2687C28.0475 32.4084 25.856 32.4084 24.2207 31.2687L20.4628 29.0851L20.3514 29.0208L20.2531 28.9437C19.3754 28.296 18.8591 27.2813 18.8591 26.2041C18.8591 25.1268 19.3754 24.1121 20.2531 23.4644L20.3361 23.398L20.4278 23.3401L24.2032 21.0323ZM28.6646 22.5108C28.1738 22.1435 27.5712 21.9487 26.9539 21.958V21.9516C26.3373 21.9428 25.7356 22.1375 25.2454 22.5044L21.3935 24.8616C20.4519 25.5987 20.4519 26.8073 21.3935 27.5444L25.2454 29.7858C26.2604 30.5255 27.6496 30.5255 28.6646 29.7858L32.5165 27.5508C33.4559 26.8137 33.4559 25.6051 32.5165 24.868L28.6646 22.5108Z" fill="#3F75EF"/>
  <path d="M17.2118 31.7336L13.36 33.9707C12.344 34.7101 10.9544 34.7101 9.93853 33.9707L6.08669 31.7336C5.14721 30.9964 5.14721 29.7878 6.08669 29.0507L9.93853 26.6936C10.9551 25.9563 12.3433 25.9563 13.36 26.6936L17.2118 29.0507C18.1513 29.7857 18.1513 30.9964 17.2118 31.7336Z" fill="white"/>
  <path d="M11.6426 31.23C10.8417 31.239 10.0598 30.9906 9.41626 30.5228L5.5666 28.2857L5.52509 28.2428C4.87055 27.7631 4.48511 27.0086 4.48511 26.2071C4.48511 25.4057 4.87055 24.6512 5.52509 24.1714L5.56879 24.1371L9.42281 21.78C10.7532 20.8256 12.5604 20.8256 13.8908 21.78L17.747 24.1371L17.7885 24.1714C18.4447 24.6501 18.8314 25.405 18.8314 26.2071C18.8314 27.0092 18.4447 27.7641 17.7885 28.2428L17.7404 28.2836L13.8755 30.5228C13.2302 30.992 12.4458 31.2404 11.6426 31.23Z" fill="white"/>
  <path fill-rule="evenodd" clip-rule="evenodd" d="M8.88977 21.0387C9.68813 20.4658 10.6535 20.1608 11.6427 20.1687C12.634 20.1594 13.6019 20.4645 14.4021 21.0387L18.1709 23.3401L18.2627 23.3979L18.3457 23.4644C19.2234 24.1121 19.7396 25.1267 19.7396 26.204C19.7396 27.2813 19.2234 28.2959 18.3457 28.9437L18.2474 29.0208L18.1359 29.0851L14.378 31.2687C12.7432 32.4096 10.5508 32.4096 8.91599 31.2687L5.1581 29.0851L5.04667 29.0208L4.94617 28.9437C4.06849 28.2959 3.55225 27.2813 3.55225 26.204C3.55225 25.1267 4.06849 24.1121 4.94617 23.4644L5.03138 23.3979L5.12314 23.3401L8.88977 21.0387ZM13.3534 22.5108C12.8624 22.1437 12.2599 21.949 11.6427 21.9579C11.0283 21.9483 10.4284 22.1407 9.93849 22.5044L6.08665 24.8615C5.14717 25.5987 5.14717 26.8072 6.08665 27.5444L9.93849 29.7858C10.9542 30.5259 12.3442 30.5259 13.3599 29.7858L17.2052 27.5508C18.1447 26.8137 18.1447 25.6051 17.2052 24.8679L13.3534 22.5108Z" fill="#3F75EF"/>
</svg>
