<svg width="433" height="248" viewBox="0 0 433 248" fill="none" xmlns="http://www.w3.org/2000/svg">
<path fill-rule="evenodd" clip-rule="evenodd" d="M335.952 0H275.048C268.933 0 262.975 1.93305 258.029 5.52218L208.756 41.269C203.809 44.8578 200.127 49.9185 198.237 55.7258L179.417 113.565C177.528 119.372 177.528 125.628 179.417 131.435L198.237 189.275C200.127 195.082 203.809 200.142 208.756 203.731L258.029 239.478C262.975 243.067 268.933 245 275.048 245H335.952C342.067 245 348.025 243.067 352.972 239.478L402.244 203.731C407.191 200.142 410.873 195.082 412.762 189.275L431.583 131.435C433.472 125.628 433.472 119.372 431.583 113.565L412.762 55.7258C410.873 49.9185 407.191 44.8578 402.244 41.269L352.972 5.52218C348.025 1.93305 342.067 0 335.952 0Z" fill="#07013C"/>
<path fill-rule="evenodd" clip-rule="evenodd" d="M366.608 69.344L365.217 53.4023C365.077 51.8018 364.438 50.2863 363.391 49.0729L352.963 36.9878C351.916 35.7744 350.515 34.9255 348.96 34.5628L333.479 30.9502C331.924 30.5875 330.296 30.7296 328.828 31.3561L314.206 37.5959C312.738 38.2224 311.506 39.3011 310.685 40.6776L302.508 54.3865C301.686 55.7628 301.32 57.3662 301.459 58.9667L302.851 74.9084C302.99 76.5089 303.629 78.0244 304.676 79.2378L315.105 91.3229C316.152 92.5363 317.553 93.3852 319.107 93.7479L334.589 97.3605C336.143 97.7232 337.771 97.5811 339.239 96.9546L353.861 90.7148C355.329 90.0883 356.562 89.0095 357.383 87.6331L365.56 73.9243C366.381 72.5478 366.748 70.9445 366.608 69.344Z" fill="#3F75EF"/>
<path fill-rule="evenodd" clip-rule="evenodd" d="M382.508 148.278L381.926 141.616C381.868 140.947 381.599 140.314 381.158 139.807L376.763 134.76C376.322 134.253 375.731 133.899 375.075 133.748L368.546 132.243C367.89 132.092 367.203 132.152 366.584 132.414L360.413 135.027C359.794 135.29 359.273 135.741 358.927 136.316L355.472 142.049C355.126 142.624 354.97 143.295 355.029 143.963L355.61 150.626C355.669 151.294 355.938 151.928 356.379 152.434L360.774 157.482C361.215 157.988 361.806 158.343 362.461 158.494L368.991 159.998C369.647 160.149 370.333 160.089 370.953 159.827L377.123 157.214C377.743 156.952 378.263 156.501 378.61 155.925L382.064 150.193C382.411 149.617 382.566 148.947 382.508 148.278Z" fill="#DC4B40"/>
<path fill-rule="evenodd" clip-rule="evenodd" d="M78.2062 178.168L64.1807 202.377C62.4755 205.321 64.607 209 68.0174 209H96.0684C99.4788 209 101.61 205.321 99.9052 202.377L85.8797 178.168C84.1745 175.225 79.9114 175.225 78.2062 178.168Z" fill="#B2C8D5"/>
<rect x="31" y="128" width="101" height="65.0132" rx="8" fill="#90ADBF"/>
<path fill-rule="evenodd" clip-rule="evenodd" d="M119.237 134.395C122.087 134.395 124.398 136.676 124.398 139.49V180.886C124.398 183.7 122.087 185.981 119.237 185.981H43.7627" fill="#B2C8D5"/>
<path fill-rule="evenodd" clip-rule="evenodd" d="M44.2189 186.056C41.3688 186.056 39.0583 183.775 39.0583 180.961V139.564C39.0583 136.75 41.3688 134.469 44.2189 134.469H119.693" fill="#DDEBF5"/>
<path d="M71.3342 150.893C73.7245 149.816 73.1227 148.35 74.1398 147.723C74.8518 147.367 75.335 147.909 75.7503 148.028C75.691 148.265 75.691 148.562 75.6316 148.799C75.5664 150.264 76.0341 151.704 76.9482 152.851C77.8624 153.998 79.1611 154.776 80.6041 155.039C82.0471 155.303 83.5367 155.035 84.7974 154.285C86.0581 153.535 87.0045 152.354 87.4615 150.96C87.9185 149.566 87.8552 148.054 87.2833 146.703C86.7114 145.352 85.6696 144.254 84.3507 143.612C83.0317 142.97 81.5249 142.828 80.109 143.211C78.6931 143.594 77.4638 144.477 76.6488 145.697C76.2909 144.865 75.626 144.203 74.7925 143.849C73.936 143.614 73.0288 143.643 72.1886 143.93C71.3483 144.217 70.6136 144.75 70.0797 145.459C69.0626 146.833 69.0032 149.519 66.1383 150.113C64.833 150.528 69.1812 151.842 71.3342 150.893Z" fill="#07013C"/>
<path d="M95.3211 171.177C95.3211 169.388 93.9479 168.558 92.2188 168.558H82.2508L78.2585 157.539C77.9546 156.573 77.3515 155.729 76.5363 155.128C75.7211 154.528 74.7361 154.203 73.7237 154.199C72.9725 154.192 72.2318 154.376 71.5708 154.733C62.9166 159.09 57.9071 167.091 56 178.848H67.3327C67.6293 173.889 68.5278 168.1 72.5879 164.642L77.2413 171.626C77.5077 172.147 77.9081 172.587 78.4013 172.901C78.8945 173.216 79.4625 173.393 80.047 173.414H92.1594C94.0072 173.448 95.3211 172.974 95.3211 171.177Z" fill="#07013C"/>
<path d="M103.018 179H92.7193C92.1881 178.966 91.6898 178.731 91.3257 178.343C90.9615 177.955 90.7588 177.443 90.7588 176.91C90.7588 176.378 90.9615 175.866 91.3257 175.478C91.6898 175.09 92.1881 174.855 92.7193 174.821H101.492L105.374 163.802C105.564 163.279 105.954 162.854 106.458 162.618C106.962 162.383 107.539 162.358 108.061 162.547C108.584 162.737 109.01 163.127 109.245 163.631C109.48 164.135 109.506 164.712 109.316 165.234L104.959 177.652C104.811 178.047 104.546 178.388 104.199 178.629C103.852 178.87 103.44 178.999 103.018 179Z" fill="#07013C"/>
<path fill-rule="evenodd" clip-rule="evenodd" d="M80 247C123.63 247 159 211.63 159 168C159 124.37 123.63 89 80 89C36.3695 89 1 124.37 1 168C1 211.63 36.3695 247 80 247Z" stroke="#90ADBF" stroke-width="2" stroke-linecap="round" stroke-dasharray="2.5 9"/>
<path fill-rule="evenodd" clip-rule="evenodd" d="M288.689 68.0008C290.864 92.9224 312.83 111.362 337.752 109.187C362.673 107.012 381.113 85.046 378.938 60.1245C376.763 35.2029 354.797 16.7632 329.876 18.9382C304.954 21.1132 286.514 43.0793 288.689 68.0008Z" stroke="#90ADBF" stroke-width="2" stroke-linecap="round" stroke-dasharray="3 9"/>
<path fill-rule="evenodd" clip-rule="evenodd" d="M285.248 185.298C285.035 182.86 286.069 180.491 287.974 179.053L299.033 170.702C301.058 169.173 303.743 168.939 306.003 170.094L318.341 176.403C320.467 177.489 321.895 179.643 322.108 182.081L323.438 197.318C323.65 199.757 322.617 202.125 320.712 203.564L309.652 211.914C307.627 213.443 304.942 213.678 302.683 212.522L290.344 206.214C288.219 205.127 286.79 202.974 286.578 200.535L285.248 185.298Z" fill="#F7C26D"/>
<path fill-rule="evenodd" clip-rule="evenodd" d="M272.356 194.468C273.934 212.556 289.877 225.94 307.965 224.361C326.053 222.782 339.437 206.839 337.858 188.751C336.28 170.663 320.337 157.28 302.249 158.858C284.161 160.437 270.777 176.38 272.356 194.468Z" stroke="#90ADBF" stroke-width="2" stroke-linecap="round" stroke-dasharray="3 9"/>
<path fill-rule="evenodd" clip-rule="evenodd" d="M342.445 149.044C343.719 163.641 356.586 174.442 371.183 173.168C385.78 171.894 396.581 159.028 395.307 144.431C394.033 129.833 381.167 119.033 366.569 120.307C351.972 121.581 341.172 134.447 342.445 149.044Z" stroke="#90ADBF" stroke-width="2" stroke-linecap="round" stroke-dasharray="3 9"/>
<path fill-rule="evenodd" clip-rule="evenodd" d="M246.484 95.9293L228.823 97.4707C225.996 97.7173 223.506 99.4432 222.257 102.022L215.003 116.992C213.674 119.733 213.959 122.999 215.743 125.468L225.48 138.955C227.157 141.278 229.909 142.547 232.735 142.3L250.396 140.759C253.222 140.512 255.713 138.786 256.962 136.208L264.216 121.238C265.544 118.497 265.259 115.231 263.476 112.761L253.739 99.2741C252.061 96.9511 249.31 95.6826 246.484 95.9293Z" fill="#DDEBF5"/>
<path fill-rule="evenodd" clip-rule="evenodd" d="M195.191 121.987C197.279 145.921 218.152 163.649 241.81 161.584C265.468 159.519 282.954 138.443 280.865 114.51C278.776 90.5767 257.904 72.8486 234.246 74.9134C210.588 76.9781 193.102 98.0538 195.191 121.987Z" stroke="#90ADBF" stroke-width="2" stroke-linecap="round" stroke-dasharray="3 9"/>
</svg>
