<svg height="512" viewBox="0 0 512 512" width="512" xmlns="http://www.w3.org/2000/svg"><g id="filled_outline" data-name="filled outline"><g fill="#6cbae5"><circle cx="414.813" cy="352" r="48"/><path d="m406.813 240h16v40h-16z"/><path d="m406.813 424h16v16h-16z"/><path d="m414.813 488h-94.813v-16h86.813v-16h16v24a8 8 0 0 1 -8 8z"/></g><path d="m354.954 65.11a7.965 7.965 0 0 1 -4.794-1.6l-39.347-29.51-39.347 29.51a8 8 0 0 1 -9.6-12.8l44.148-33.11a8 8 0 0 1 9.6 0l44.146 33.11a8 8 0 0 1 -4.806 14.4z" fill="#d18d28"/><path d="m142.813 48h336v200h-336z" fill="#ea9d2d"/><path d="m328 290v166h-272v-166a10 10 0 0 1 10-10h252a10 10 0 0 1 10 10z" fill="#37c9c3"/><path d="m320 290v166h-264v-166a10 10 0 0 1 10-10h244a10 10 0 0 1 10 10z" fill="#41dfd0"/><path d="m32 456h318.813a0 0 0 0 1 0 0v10a22 22 0 0 1 -22 22h-274.813a22 22 0 0 1 -22-22v-10a0 0 0 0 1 0 0z" fill="#cbcbcb"/><path d="m126.813 312h169.187v112h-169.187z" fill="#ea9d2d"/><path d="m206.813 344v48l40-24z" fill="#f55648"/><path d="m246.81 176a8 8 0 0 1 -6.071-13.207l48-56a8 8 0 0 1 12.149 10.414l-48 56a7.987 7.987 0 0 1 -6.078 2.793z" fill="#a83b32"/><path d="m142.813 216h336v32h-336z" fill="#8f563b"/><path d="m142.813 216h336v8h-336z" fill="#744630"/><path d="m414.813 296a56 56 0 1 0 56 56 56.064 56.064 0 0 0 -56-56zm39.2 48h-13.313a71.852 71.852 0 0 0 -5.331-20.364l-3.314-7.726a40.147 40.147 0 0 1 21.954 28.09zm-39.2 43.689-5.845-13.627a55.78 55.78 0 0 1 -3.922-14.062h19.536a55.753 55.753 0 0 1 -3.921 14.056zm-9.768-43.689a55.792 55.792 0 0 1 3.92-14.056l5.848-13.633 5.845 13.627a55.783 55.783 0 0 1 3.923 14.062zm-7.47-28.089-3.317 7.732a71.806 71.806 0 0 0 -5.327 20.357h-13.313a40.142 40.142 0 0 1 21.957-28.089zm-21.957 44.089h13.313a71.85 71.85 0 0 0 5.33 20.364l3.314 7.725a40.142 40.142 0 0 1 -21.957-28.089zm56.434 28.09 3.316-7.733a71.808 71.808 0 0 0 5.332-20.357h13.313a40.148 40.148 0 0 1 -21.961 28.09z" fill="#428dc5"/><path d="m246.813 160-64 24a40.157 40.157 0 0 0 -15.636-12.5 32 32 0 1 0 -32.725 0 40 40 0 0 0 -23.64 36.5v72h80v-64l64-24z" fill="#428dc5"/><path d="m174.813 384-22.474 11.237a32.136 32.136 0 0 0 -10.848-8.255 24 24 0 1 0 -28.4.7 31.988 31.988 0 0 0 -17.091 28.318v40h64v-36.593l22.813-11.407z" fill="#428dc5"/><path d="m202.872 398.961a8 8 0 0 0 8.058-.1l40-24a8 8 0 0 0 0-13.72l-40-24a8 8 0 0 0 -12.117 6.859v48a8 8 0 0 0 4.059 6.961zm11.941-40.832 16.451 9.871-16.451 9.871z"/><path d="m478.81 40h-133.33l-29.867-22.4a8 8 0 0 0 -9.6 0l-29.866 22.4h-133.337a8 8 0 0 0 -8 8v59.336a39.969 39.969 0 0 0 -13.946 63.147 48.185 48.185 0 0 0 -3.991 3.58 47.682 47.682 0 0 0 -14.063 33.937v64h-36.81a18.021 18.021 0 0 0 -18 18v158h-16a8 8 0 0 0 -8 8v10a30.034 30.034 0 0 0 30 30h274.813a29.884 29.884 0 0 0 20.368-8h65.632a8 8 0 0 0 8-8v-24h-16v16h-48.6a30.038 30.038 0 0 0 .6-6v-10a8 8 0 0 0 -8-8h-14.813v-158a18.021 18.021 0 0 0 -18-18h-119.19v-16h208v24h16v-24h56a8 8 0 0 0 8-8v-200a8 8 0 0 0 -8-8zm-168-6 8 6h-16zm-160 22h320v152h-235.883l22.692-8.509a8 8 0 0 0 4.952-9.43l-5.45-21.8 43.763-51.054a8 8 0 1 0 -12.148-10.414l-39.175 45.7a8 8 0 0 0 -5.56.013l-58.771 22.042a48.53 48.53 0 0 0 -4.473-4.058 39.98 39.98 0 0 0 -29.947-66.49zm192 410a14.015 14.015 0 0 1 -14 14h-274.81a14.015 14.015 0 0 1 -14-14v-2h302.813zm-224.287-85.1a16 16 0 0 1 8.7-28.876c.256-.013.518-.019.78-.019a15.993 15.993 0 0 1 9.476 28.881 8 8 0 0 0 1.186 13.619 23.859 23.859 0 0 1 7.593 5.934 8 8 0 0 0 9.664 1.961l14.219-7.113 2.889 8.667-16.606 8.306a8 8 0 0 0 -4.424 7.15v28.59h-48v-32a24.014 24.014 0 0 1 13.329-21.5 8 8 0 0 0 1.194-13.6zm71.877 24.57-8-24a8 8 0 0 0 -11.168-4.625l-16.064 8.036a31.97 31.97 0 0 0 -20.357-48.144v-16.737h153.189v96h-103.3l1.69-.845a8 8 0 0 0 4.01-9.685zm129.6-115.47v158h-152v-16h128a8 8 0 0 0 8-8v-112a8 8 0 0 0 -8-8h-169.19a8 8 0 0 0 -8 8v25.336a31.985 31.985 0 0 0 -17.258 48.65q-.945.834-1.839 1.727a39.742 39.742 0 0 0 -11.713 28.287v32h-24v-158a2 2 0 0 1 2-2h252a2 2 0 0 1 2 2zm-201.19-18v-64a32.052 32.052 0 0 1 18.9-29.2 8 8 0 0 0 .834-14.17 24 24 0 1 1 24.546 0 8 8 0 0 0 .828 14.167 32.121 32.121 0 0 1 12.5 10 8 8 0 0 0 9.206 2.687l55.607-20.853 4.092 16.378-57.323 21.5a8 8 0 0 0 -5.19 7.491v56zm80-32v-16h272v16z"/><path d="m414.813 296a56 56 0 1 0 56 56 56.064 56.064 0 0 0 -56-56zm39.2 48h-13.313a71.852 71.852 0 0 0 -5.331-20.364l-3.314-7.726a40.147 40.147 0 0 1 21.954 28.09zm-39.2 43.689-5.845-13.627a55.78 55.78 0 0 1 -3.922-14.062h19.536a55.753 55.753 0 0 1 -3.921 14.056zm-9.768-43.689a55.792 55.792 0 0 1 3.92-14.056l5.848-13.633 5.845 13.627a55.783 55.783 0 0 1 3.923 14.062zm-7.47-28.089-3.317 7.732a71.806 71.806 0 0 0 -5.327 20.357h-13.313a40.142 40.142 0 0 1 21.957-28.089zm-21.957 44.089h13.313a71.85 71.85 0 0 0 5.33 20.364l3.314 7.725a40.142 40.142 0 0 1 -21.957-28.089zm56.434 28.09 3.316-7.733a71.808 71.808 0 0 0 5.332-20.357h13.313a40.148 40.148 0 0 1 -21.961 28.09z"/><path d="m406.813 424h16v16h-16z"/></g></svg>