<?xml version="1.0" encoding="utf-8"?>
<!-- Generator: Adobe Illustrator 24.2.1, SVG Export Plug-In . SVG Version: 6.00 Build 0)  -->
<svg version="1.1" id="Layer_1" xmlns="http://www.w3.org/2000/svg" xmlns:xlink="http://www.w3.org/1999/xlink" x="0px" y="0px"
	 viewBox="0 0 24 24" style="enable-background:new 0 0 24 24;" xml:space="preserve">
<style type="text/css">
	.st0{fill:#07013C;}
	.st1{fill:#FFFFFF;}
</style>
<g>
	<circle class="st0" cx="12" cy="8.5" r="1.2"/>
	<path class="st0" d="M19.4,5.9l-5.7-3.4c-1-0.6-2.4-0.6-3.4,0L4.6,5.9C3.6,6.4,3,7.5,3,8.6v7c0,1.1,0.6,2.2,1.6,2.8l4.9,2.9
		c1.5,0.9,3.4,0.9,5,0l4.9-2.9c1-0.6,1.6-1.6,1.6-2.8v-7C21,7.5,20.4,6.4,19.4,5.9z M10.8,15.5l-0.1,0.1l-1.8,1.1
		C8.6,16.9,8.3,17,8,17H7.9c-0.2,0-0.5-0.1-0.7-0.2l-1.9-1.1l0,0H5.2l0,0C5.1,15.5,5,15.2,5,15s0.1-0.4,0.3-0.6l0,0l1.8-1.1
		c0.5-0.3,1-0.4,1.5-0.1l0.2,0.1l1.9,1.1l0,0l0,0l0,0c0.2,0.2,0.3,0.4,0.3,0.6C11,15.2,10.9,15.4,10.8,15.5z M12.6,11.9
		c0,0.1-0.1,0.1-0.2,0.1h-0.8c-0.1,0-0.1-0.1-0.1-0.1L11.3,11c-0.2-0.1-0.3-0.1-0.5-0.2L10,11.3c-0.1,0.1-0.2,0-0.2,0l-0.6-0.6
		c-0.1-0.1-0.1-0.1,0-0.2l0.5-0.7C9.6,9.6,9.6,9.4,9.5,9.2L8.6,9.1C8.6,9,8.5,9,8.5,8.9V8.1C8.5,8,8.6,8,8.6,7.9l0.9-0.1
		c0.1-0.2,0.1-0.4,0.2-0.5L9.2,6.5c-0.1-0.1-0.1-0.1,0-0.2l0.6-0.6c0.1-0.1,0.1-0.1,0.2,0l0.7,0.5C10.9,6.1,11,6,11.2,6l0.1-0.9
		C11.3,5,11.4,5,11.5,5h0.8c0.1,0,0.2,0.1,0.2,0.1L12.7,6c0.2,0.1,0.3,0.1,0.5,0.2L14,5.7c0.1,0,0.1,0,0.2,0l0.6,0.6
		c0.1,0.1,0.1,0.1,0,0.2l-0.5,0.7c0.1,0.2,0.2,0.3,0.2,0.5l0.9,0.1c0.1,0,0.1,0.1,0.1,0.2v0.8c0,0.1-0.1,0.1-0.1,0.2l-0.9,0.2
		c-0.1,0.2-0.1,0.3-0.2,0.5l0.5,0.7c0,0.1,0,0.1,0,0.2l-0.6,0.6c-0.1,0.1-0.1,0.1-0.2,0l-0.7-0.5c-0.2,0.1-0.3,0.2-0.5,0.2
		L12.6,11.9z M18.7,15.6L18.7,15.6l-1.9,1.1C16.6,16.9,16.3,17,16,17c-0.3,0-0.6-0.1-0.8-0.3l-1.9-1.1C13.1,15.5,13,15.3,13,15
		c0-0.2,0.1-0.4,0.2-0.5l0.1-0.1l1.8-1.1c0.5-0.3,1-0.4,1.5-0.1l0.2,0.1l1.9,1.1l0,0l0,0l0,0c0.2,0.2,0.3,0.4,0.3,0.6
		C19,15.3,18.9,15.5,18.7,15.6z"/>
	<path class="st1" d="M18.7,14.4L18.7,14.4L18.7,14.4z"/>
	<path class="st1" d="M5.4,15.7L5.4,15.7L5.4,15.7L5.4,15.7z"/>
	<path class="st1" d="M10.7,14.4L10.7,14.4L10.7,14.4z"/>
</g>
</svg>
