<?xml version="1.0" encoding="UTF-8"?>
<svg width="110px" height="110px" viewBox="0 0 110 110" version="1.1" xmlns="http://www.w3.org/2000/svg" xmlns:xlink="http://www.w3.org/1999/xlink">
    <title>Code Signing</title>
    <g id="Code-Signing" stroke="none" stroke-width="1" fill="none" fill-rule="evenodd">
        <g id="Group" transform="translate(33.000000, 25.000000)" fill-rule="nonzero">
            <g id="noun_certification_84176" transform="translate(8.572973, 35.226639)" fill="#DC4B40">
                <path d="M24.2566199,13.708154 C23.758947,12.9044943 23.758947,11.8883666 24.2566199,11.0847069 C25.0126999,9.86322068 24.5822948,8.2572685 23.3167837,7.57748013 C22.4841387,7.13012141 21.9760748,6.25017009 22.0050601,5.30541191 L22.0050601,5.30541191 C22.0490851,3.86954355 20.8735379,2.69372295 19.4376695,2.73802131 C18.4929114,2.76700665 17.61296,2.25894278 17.1656013,1.42629773 C16.485813,0.16078663 14.8798608,-0.269618397 13.6583746,0.486461591 C12.8547149,0.984134494 11.8385871,0.984134494 11.0349274,0.486461591 C9.81344124,-0.269618397 8.20721562,0.16078663 7.52770069,1.42629773 C7.08034197,2.25894278 6.20039065,2.76700665 5.25563248,2.73802131 C3.81976411,2.6939964 2.64394352,3.86954355 2.68824188,5.30541191 L2.68824188,5.30541191 C2.71722722,6.25017009 2.20916334,7.13012141 1.37651829,7.57748013 C0.111007196,8.2572685 -0.319397831,9.86322068 0.436682157,11.0847069 C0.934355061,11.8883666 0.934355061,12.9044943 0.436682157,13.708154 L0.436682157,13.708154 C-0.319397831,14.9296402 0.111007196,16.5355924 1.37651829,17.2153808 C2.20916334,17.6627395 2.71722722,18.5426908 2.68824188,19.487449 C2.64421696,20.9233173 3.81976411,22.0991379 5.25563248,22.055113 C6.20039065,22.0261277 7.08034197,22.5341916 7.52770069,23.3668366 C8.20748907,24.6323477 9.81344124,25.0627527 11.0349274,24.3066727 C11.8385871,23.8089998 12.8547149,23.8089998 13.6583746,24.3066727 C14.8798608,25.0627527 16.4860864,24.6323477 17.1656013,23.3668366 C17.61296,22.5341916 18.4929114,22.0261277 19.4376695,22.055113 C20.8735379,22.0991379 22.0493585,20.9235908 22.0050601,19.487449 C21.9760748,18.5426908 22.4841387,17.6627395 23.3167837,17.2153808 C24.5825683,16.5355924 25.0129733,14.9293668 24.2566199,13.708154 L24.2566199,13.708154 Z M19.3452446,10.1208074 L11.1196959,18.3463561 C11.1196959,18.3463561 11.1196959,18.3463561 11.1196959,18.3463561 L11.0710224,18.3950296 C10.7937475,18.6723045 10.3439277,18.6723045 10.0666528,18.3950296 L5.97370338,14.3023536 C5.69642848,14.0250787 5.69642848,13.575259 5.97370338,13.2977106 L7.17686864,12.0945453 C7.45414354,11.8172704 7.90396328,11.8172704 8.18151163,12.0945453 L10.5687009,14.4817346 L17.1374363,7.91299917 C17.4147112,7.63572426 17.864531,7.63572426 18.1420793,7.91299917 L19.3452446,9.11616443 C19.6227929,9.39371278 19.6227929,9.84353252 19.3452446,10.1208074 Z" id="Shape"></path>
            </g>
            <g id="Group-18" transform="translate(-0.000000, 0.000000)" fill="#5B7899" stroke="#5B7899" stroke-width="0.25">
                <path d="M4.36035337,11.7108963 C4.97423416,11.7108963 5.53348996,11.5938427 6.03812077,11.3597356 C6.54275159,11.1256286 6.97454909,10.7718667 7.33351328,10.2984502 C7.69247746,9.82503367 7.97080477,9.23196241 8.16849519,8.51923641 C8.36618561,7.80651042 8.46503082,6.9715285 8.46503082,6.01429067 C8.46503082,4.07900548 8.11126902,2.6509523 7.4037454,1.73013112 C6.69622178,0.809309945 5.68696015,0.348899357 4.37596051,0.348899357 C3.76207973,0.348899357 3.20542512,0.465952896 2.70599668,0.700059975 C2.20656825,0.934167054 1.77737194,1.28532767 1.41840775,1.75354183 C1.05944356,2.22175599 0.781116256,2.81222606 0.583425834,3.52495206 C0.385735412,4.23767806 0.286890201,5.06745759 0.286890201,6.01429067 C0.286890201,7.86633778 0.635449629,9.27878382 1.33256849,10.2516288 C2.02968734,11.2244738 3.03894897,11.7108963 4.36035337,11.7108963 Z M2.31581822,6.88829043 C2.30541346,6.7426238 2.29760989,6.59955836 2.29240751,6.45909412 C2.28720513,6.31862987 2.28460394,6.17036205 2.28460394,6.01429067 C2.28460394,4.66167199 2.46408603,3.66541631 2.82305022,3.02552363 C3.18201441,2.38563094 3.69444879,2.0656846 4.36035337,2.0656846 C5.22394838,2.0656846 5.81181726,2.51308924 6.12396004,3.40789852 L6.12396004,3.40789852 L2.31581822,6.88829043 Z M4.37596051,9.99411101 C3.52277027,9.99411101 2.93490138,9.52069447 2.61235385,8.5738614 L2.61235385,8.5738614 L6.43610281,5.09346949 C6.44650757,5.23913612 6.45431114,5.38740393 6.45951351,5.53827294 C6.46471589,5.68914195 6.46731708,5.84781452 6.46731708,6.01429067 C6.46731708,7.39812362 6.2852338,8.40738525 5.92106723,9.04207555 C5.55690067,9.67676586 5.04186509,9.99411101 4.37596051,9.99411101 Z M19.6468362,11.4923963 L19.6468362,9.77561107 L17.3057654,9.77561107 L17.3057654,0.567399297 L15.9323372,0.567399297 L12.3739096,3.28304141 L13.3103379,4.5316125 L15.3704802,2.9552915 L15.3704802,9.77561107 L12.982588,9.77561107 L12.982588,11.4923963 L19.6468362,11.4923963 Z M27.6291782,11.7108963 C28.243059,11.7108963 28.8023148,11.5938427 29.3069456,11.3597356 C29.8115764,11.1256286 30.2433739,10.7718667 30.6023381,10.2984502 C30.9613023,9.82503367 31.2396296,9.23196241 31.43732,8.51923641 C31.6350104,7.80651042 31.7338556,6.9715285 31.7338556,6.01429067 C31.7338556,4.07900548 31.3800938,2.6509523 30.6725702,1.73013112 C29.9650466,0.809309945 28.955785,0.348899357 27.6447853,0.348899357 C27.0309045,0.348899357 26.4742499,0.465952896 25.9748215,0.700059975 C25.4753931,0.934167054 25.0461967,1.28532767 24.6872326,1.75354183 C24.3282684,2.22175599 24.0499411,2.81222606 23.8522506,3.52495206 C23.6545602,4.23767806 23.555715,5.06745759 23.555715,6.01429067 C23.555715,7.86633778 23.9042744,9.27878382 24.6013933,10.2516288 C25.2985122,11.2244738 26.3077738,11.7108963 27.6291782,11.7108963 Z M25.584643,6.88829043 C25.5742383,6.7426238 25.5664347,6.59955836 25.5612323,6.45909412 C25.5560299,6.31862987 25.5534288,6.17036205 25.5534288,6.01429067 C25.5534288,4.66167199 25.7329108,3.66541631 26.091875,3.02552363 C26.4508392,2.38563094 26.9632736,2.0656846 27.6291782,2.0656846 C28.4927732,2.0656846 29.0806421,2.51308924 29.3927848,3.40789852 L29.3927848,3.40789852 L25.584643,6.88829043 Z M27.6447853,9.99411101 C26.7915951,9.99411101 26.2037262,9.52069447 25.8811787,8.5738614 L25.8811787,8.5738614 L29.7049276,5.09346949 C29.7153324,5.23913612 29.7231359,5.38740393 29.7283383,5.53827294 C29.7335407,5.68914195 29.7361419,5.84781452 29.7361419,6.01429067 C29.7361419,7.39812362 29.5540586,8.40738525 29.189892,9.04207555 C28.8257255,9.67676586 28.3106899,9.99411101 27.6447853,9.99411101 Z M42.915661,11.4923963 L42.915661,9.77561107 L40.5745902,9.77561107 L40.5745902,0.567399297 L39.201162,0.567399297 L35.6427344,3.28304141 L36.5791628,4.5316125 L38.6393051,2.9552915 L38.6393051,9.77561107 L36.2514128,9.77561107 L36.2514128,11.4923963 L42.915661,11.4923963 Z M8.01242381,27.0995349 L8.01242381,25.3827497 L5.67135302,25.3827497 L5.67135302,16.1745379 L4.29792482,16.1745379 L0.73949722,18.89018 L1.67592554,20.1387511 L3.73606783,18.5624301 L3.73606783,25.3827497 L1.34817563,25.3827497 L1.34817563,27.0995349 L8.01242381,27.0995349 Z M15.9947658,27.3180348 C16.6086466,27.3180348 17.1679024,27.2009813 17.6725332,26.9668742 C18.177164,26.7327672 18.6089615,26.3790053 18.9679257,25.9055888 C19.3268899,25.4321723 19.6052172,24.839101 19.8029076,24.126375 C20.000598,23.413649 20.0994432,22.5786671 20.0994432,21.6214293 C20.0994432,19.6861441 19.7456814,18.2580909 19.0381578,17.3372697 C18.3306342,16.4164485 17.3213726,15.956038 16.0103729,15.956038 C15.3964921,15.956038 14.8398375,16.0730915 14.3404091,16.3071986 C13.8409807,16.5413056 13.4117843,16.8924663 13.0528202,17.3606804 C12.693856,17.8288946 12.4155287,18.4193647 12.2178382,19.1320907 C12.0201478,19.8448167 11.9213026,20.6745962 11.9213026,21.6214293 C11.9213026,23.4734764 12.269862,24.8859224 12.9669809,25.8587674 C13.6640998,26.8316124 14.6733614,27.3180348 15.9947658,27.3180348 Z M13.9502306,22.495429 C13.9398259,22.3497624 13.9320223,22.206697 13.9268199,22.0662327 C13.9216175,21.9257685 13.9190163,21.7775006 13.9190163,21.6214293 C13.9190163,20.2688106 14.0984984,19.2725549 14.4574626,18.6326622 C14.8164268,17.9927695 15.3288612,17.6728232 15.9947658,17.6728232 C16.8583608,17.6728232 17.4462297,18.1202278 17.7583724,19.0150371 L17.7583724,19.0150371 L13.9502306,22.495429 Z M16.0103729,25.6012496 C15.1571827,25.6012496 14.5693138,25.1278331 14.2467663,24.181 L14.2467663,24.181 L18.0705152,20.7006081 C18.08092,20.8462747 18.0887235,20.9945425 18.0939259,21.1454115 C18.0991283,21.2962805 18.1017295,21.4549531 18.1017295,21.6214293 C18.1017295,23.0052622 17.9196462,24.0145238 17.5554796,24.6492141 C17.1913131,25.2839045 16.6762775,25.6012496 16.0103729,25.6012496 Z M31.2812486,27.0995349 L31.2812486,25.3827497 L28.9401778,25.3827497 L28.9401778,16.1745379 L27.5667496,16.1745379 L24.008322,18.89018 L24.9447503,20.1387511 L27.0048926,18.5624301 L27.0048926,25.3827497 L24.6170004,25.3827497 L24.6170004,27.0995349 L31.2812486,27.0995349 Z M42.915661,27.0995349 L42.915661,25.3827497 L40.5745902,25.3827497 L40.5745902,16.1745379 L39.201162,16.1745379 L35.6427344,18.89018 L36.5791628,20.1387511 L38.6393051,18.5624301 L38.6393051,25.3827497 L36.2514128,25.3827497 L36.2514128,27.0995349 L42.915661,27.0995349 Z" id="01011011"></path>
            </g>
        </g>
    </g>
</svg>