<svg height="512pt" viewBox="-80 0 512 512" width="512pt" xmlns="http://www.w3.org/2000/svg"><path d="m341.011719 469.261719h-300.214844c-22.53125 0-40.796875-18.265625-40.796875-40.792969v-387.671875c0-22.53125 18.265625-40.796875 40.796875-40.796875h300.214844c6.074219 0 11 4.925781 11 11v447.261719c0 6.078125-4.925781 11-11 11zm0 0" fill="#005ca0"/><path d="m340.660156 0h-41.464844c6.269532 0 11.347657 5.082031 11.347657 11.347656v446.566406c0 6.269532-5.078125 11.347657-11.347657 11.347657h41.464844c6.269532 0 11.351563-5.078125 11.351563-11.347657v-446.566406c0-6.265625-5.082031-11.347656-11.351563-11.347656zm0 0" fill="#005182"/><path d="m341.011719 469.261719h-300.214844c-22.53125 0-40.796875-18.265625-40.796875-40.792969v-12.605469c0-22.53125 18.265625-40.796875 40.796875-40.796875h311.214844v83.195313c0 6.078125-4.925781 11-11 11zm0 0" fill="#fad200"/><path d="m212.5 412.003906h-161.011719c-4.273437 0-7.738281-3.464844-7.738281-7.738281s3.464844-7.738281 7.738281-7.738281h161.011719c4.273438 0 7.738281 3.464844 7.738281 7.738281s-3.464843 7.738281-7.738281 7.738281zm0 0" fill="#fab700"/><path d="m309.449219 412.003906h-60.59375c-4.273438 0-7.738281-3.464844-7.738281-7.738281s3.464843-7.738281 7.738281-7.738281h60.59375c4.273437 0 7.738281 3.464844 7.738281 7.738281s-3.464844 7.738281-7.738281 7.738281zm0 0" fill="#fab700"/><g fill="#ea9a94"><path d="m78.441406 279.183594c11.109375 0 12.558594-8.5 12.75-13.136719.097656-2.414063-.480468-3.1875-2.703125-3.1875h-7.441406c-3.089844 0-3.863281-2.804687-3.863281-5.507813 0-2.707031.871094-5.410156 3.863281-5.410156h13.71875c7.054687 0 8.792969 3.089844 8.984375 8.308594.675781 16.617188-5.988281 30.238281-24.828125 30.238281-19.804687 0-27.4375-15.554687-27.4375-34.875 0-19.710937 7.246094-33.71875 26.957031-34.78125 13.523438 0 21.925782 6.28125 24.148438 17.679688.582031 3.09375-.675782 5.796875-5.601563 5.796875-5.410156 0-7.054687-1.0625-7.730469-3.574219-1.449218-5.507813-4.347656-8.597656-10.820312-8.597656-12.074219 0-13.71875 13.332031-13.71875 23.472656.003906 8.503906 1.355469 23.574219 13.722656 23.574219zm0 0"/><path d="m127.222656 266.335938c0 7.339843 4.058594 12.65625 11.59375 12.65625s11.6875-5.316407 11.6875-12.65625v-40.382813c0-3.476563 3.1875-4.445313 6.378906-4.445313 3.1875 0 6.375.96875 6.375 4.445313v39.222656c0 17.96875-10.144531 25.410157-24.441406 25.410157-14.203125 0-24.34375-7.441407-24.34375-25.410157v-39.222656c0-3.476563 3.1875-4.445313 6.375-4.445313s6.375.96875 6.375 4.445313zm0 0"/><path d="m188.660156 285.851562c0 3.574219-3.285156 4.539063-6.472656 4.539063-3.191406 0-6.378906-.964844-6.378906-4.539063v-59.898437c0-3.476563 3.1875-4.441406 6.378906-4.441406 3.1875 0 6.472656.964843 6.472656 4.441406zm0 0"/><path d="m210.683594 289.523438c-4.929688 0-9.46875-1.257813-9.46875-8.597657v-50.527343c0-7.246094 4.539062-8.5 9.46875-8.5h13.332031c19.03125 0 26.757813 15.84375 26.757813 33.8125s-7.535157 33.8125-26.757813 33.8125zm3.285156-54.390626v41.058594c0 1.253906.578125 1.640625 1.640625 1.640625h8.40625c10.820313 0 13.621094-12.65625 13.621094-22.121093 0-9.46875-3.09375-22.222657-13.621094-22.222657h-8.40625c-1.0625 0-1.640625.386719-1.640625 1.644531zm0 0"/><path d="m273.277344 235.132812v13.621094h19.613281c3.1875 0 4.054687 2.898438 4.054687 5.796875 0 2.894531-.867187 5.792969-4.054687 5.792969h-19.613281v15.941406c0 1.257813.484375 1.644532 1.644531 1.644532h21.542969c3.285156 0 4.058594 2.894531 4.058594 5.792968 0 2.898438-.871094 5.796875-4.058594 5.796875h-26.566406c-4.832032 0-9.46875-1.253906-9.46875-8.5v-50.625c0-7.246093 4.636718-8.5 9.46875-8.5h26.566406c3.1875 0 4.058594 2.898438 4.058594 5.796875 0 2.898438-.773438 5.796875-4.058594 5.796875h-21.542969c-1.160156 0-1.644531.386719-1.644531 1.644531zm0 0"/></g><path d="m159.957031 101.109375c0 34.183594-27.710937 61.894531-61.894531 61.894531s-61.894531-27.710937-61.894531-61.894531 27.710937-61.894531 61.894531-61.894531 61.894531 27.710937 61.894531 61.894531zm0 0" fill="#ffded5"/><path d="m316.476562 101.109375c0 34.183594-27.710937 61.894531-61.894531 61.894531-34.183593 0-61.894531-27.710937-61.894531-61.894531s27.710938-61.894531 61.894531-61.894531c34.183594 0 61.894531 27.710937 61.894531 61.894531zm0 0" fill="#ffded5"/><path d="m98.0625 39.214844c-3.53125 0-6.984375.3125-10.351562.878906 29.253906 4.929688 51.542968 30.363281 51.542968 61.015625 0 30.65625-22.289062 56.089844-51.542968 61.019531 3.367187.566406 6.820312.878906 10.351562.878906 34.183594 0 61.894531-27.710937 61.894531-61.898437 0-34.183594-27.710937-61.894531-61.894531-61.894531zm0 0" fill="#f7c6ba"/><path d="m254.582031 39.214844c-3.527343 0-6.984375.3125-10.351562.878906 29.253906 4.929688 51.542969 30.363281 51.542969 61.015625 0 30.65625-22.289063 56.089844-51.542969 61.019531 3.367187.566406 6.824219.878906 10.351562.878906 34.183594 0 61.894531-27.710937 61.894531-61.898437 0-34.183594-27.710937-61.894531-61.894531-61.894531zm0 0" fill="#f7c6ba"/><path d="m95.925781 130.675781c-1.980469 0-3.960937-.753906-5.472656-2.265625l-26.65625-26.652344c-3.019531-3.023437-3.019531-7.921874 0-10.945312 3.023437-3.019531 7.921875-3.019531 10.945313 0l21.183593 21.183594 62.757813-62.761719c3.023437-3.019531 7.921875-3.019531 10.945312 0 3.019532 3.023437 3.019532 7.921875 0 10.945313l-68.234375 68.230468c-1.507812 1.511719-3.492187 2.265625-5.46875 2.265625zm0 0" fill="#1dc2ff"/><path d="m265.601562 102.46875 22.113282-22.113281c3.019531-3.019531 3.019531-7.921875 0-10.941407-3.023438-3.023437-7.921875-3.023437-10.945313 0l-22.113281 22.109376-22.109375-22.109376c-3.023437-3.023437-7.921875-3.023437-10.945313 0-3.019531 3.019532-3.019531 7.921876 0 10.941407l22.113282 22.113281-22.113282 22.113281c-3.019531 3.019531-3.019531 7.921875 0 10.941407 1.511719 1.511718 3.492188 2.265624 5.472657 2.265624s3.960937-.757812 5.472656-2.265624l22.113281-22.113282 22.109375 22.113282c1.511719 1.511718 3.492188 2.265624 5.472657 2.265624 1.980468 0 3.960937-.757812 5.472656-2.265624 3.019531-3.019532 3.019531-7.921876 0-10.941407zm0 0" fill="#ed500a"/><path d="m310.546875 375.066406v68.941406c0 5.523438-4.480469 10-10 10h-290.882813c7.71875 9.320313 19.378907 15.257813 32.425782 15.257813h298.570312c6.269532 0 11.351563-5.082031 11.351563-11.351563v-82.84375h-41.464844zm0 0" fill="#fab700"/><path d="m102.039062 512-25.78125-18.855469-25.785156 18.855469v-77.585938h51.566406zm0 0" fill="#ff6914"/><path d="m76.257812 434.414062v58.730469l25.78125 18.855469v-77.585938zm0 0" fill="#ed500a"/><path d="m309.449219 442.152344h-279.632813c-4.273437 0-7.738281-3.460938-7.738281-7.738282 0-4.269531 3.464844-7.734374 7.738281-7.734374h279.632813c4.273437 0 7.738281 3.460937 7.738281 7.734374 0 4.277344-3.464844 7.738282-7.738281 7.738282zm0 0" fill="#fab700"/></svg>