<svg height="356pt" viewBox="0 -128 356.9 356" width="356pt" xmlns="http://www.w3.org/2000/svg"><g fill="#d4e1f4"><path d="m346.898438 50.609375c0 22.179687-17.980469 40.160156-40.160157 40.160156-22.179687 0-40.160156-17.980469-40.160156-40.160156s17.980469-40.160156 40.160156-40.160156c22.179688 0 40.160157 17.980469 40.160157 40.160156zm0 0"/><path d="m218.609375 50.609375c0 22.179687-17.980469 40.160156-40.160156 40.160156-22.179688 0-40.160157-17.980469-40.160157-40.160156s17.980469-40.160156 40.160157-40.160156c22.179687 0 40.160156 17.980469 40.160156 40.160156zm0 0"/><path d="m90.320312 50.609375c0 22.179687-17.980468 40.160156-40.160156 40.160156-22.179687 0-40.160156-17.980469-40.160156-40.160156s17.980469-40.160156 40.160156-40.160156c22.179688 0 40.160156 17.980469 40.160156 40.160156zm0 0"/></g><path d="m306.738281 100.769531c-27.699219 0-50.160156-22.457031-50.160156-50.160156s22.460937-50.160156 50.160156-50.160156c27.703125 0 50.160157 22.457031 50.160157 50.160156.003906 27.703125-22.457032 50.160156-50.160157 50.160156zm0-80.320312c-16.65625 0-30.160156 13.503906-30.160156 30.160156s13.503906 30.160156 30.160156 30.160156c16.660157 0 30.160157-13.503906 30.160157-30.160156s-13.5-30.160156-30.160157-30.160156zm0 0" fill="#0635c9"/><path d="m178.449219 100.769531c-27.703125 0-50.160157-22.457031-50.160157-50.160156s22.457032-50.160156 50.160157-50.160156 50.160156 22.457031 50.160156 50.160156-22.457031 50.160156-50.160156 50.160156zm0-80.320312c-16.65625 0-30.160157 13.503906-30.160157 30.160156s13.503907 30.160156 30.160157 30.160156 30.160156-13.503906 30.160156-30.160156-13.503906-30.160156-30.160156-30.160156zm0 0" fill="#0635c9"/><path d="m50.160156 100.769531c-27.703125 0-50.160156-22.457031-50.160156-50.160156s22.457031-50.160156 50.160156-50.160156 50.160156 22.457031 50.160156 50.160156c-.03125 27.691406-22.46875 50.128906-50.160156 50.160156zm0-80.320312c-16.65625 0-30.160156 13.503906-30.160156 30.160156s13.503906 30.160156 30.160156 30.160156 30.160156-13.503906 30.160156-30.160156c-.023437-16.648437-13.511718-30.136719-30.160156-30.160156zm0 0" fill="#0635c9"/></svg>