<?xml version="1.0" encoding="UTF-8"?>
<svg width="388px" height="378px" viewBox="0 0 388 378" version="1.1" xmlns="http://www.w3.org/2000/svg" xmlns:xlink="http://www.w3.org/1999/xlink">
    <title>SS_Platform</title>
    <defs>
        <path d="M232.328936,37.1751749 L155.150772,37.1751749 C147.402421,37.1751749 139.852459,39.5667987 133.583825,44.0069442 L71.1454692,88.2343248 C64.8764038,92.6744703 60.2104009,98.935664 57.8159423,106.120627 L33.9666684,177.681391 C31.5722098,184.865934 31.5722098,192.605073 33.9666684,199.790036 L57.8159423,271.350801 C60.2104009,278.535343 64.8764038,284.796537 71.1454692,289.237103 L133.583825,333.464063 C139.852459,337.904629 147.402421,340.295832 155.150772,340.295832 L232.328936,340.295832 C240.077718,340.295832 247.627249,337.904629 253.896315,333.464063 L316.334239,289.237103 C322.603304,284.796537 327.269307,278.535343 329.663766,271.350801 L353.513039,199.790036 C355.907498,192.605073 355.907498,184.865934 353.513039,177.681391 L329.663766,106.120627 C327.269307,98.935664 322.603304,92.6744703 316.334239,88.2343248 L253.896315,44.0069442 C247.627249,39.5667987 240.077718,37.1751749 232.328936,37.1751749" id="path-1"></path>
        <filter x="-5.4%" y="-5.1%" width="110.8%" height="111.5%" filterUnits="objectBoundingBox" id="filter-2">
            <feOffset dx="0" dy="2" in="SourceAlpha" result="shadowOffsetOuter1"></feOffset>
            <feGaussianBlur stdDeviation="5.5" in="shadowOffsetOuter1" result="shadowBlurOuter1"></feGaussianBlur>
            <feColorMatrix values="0 0 0 0 0.380541064   0 0 0 0 0.374384489   0 0 0 0 0.434924139  0 0 0 0.279365166 0" type="matrix" in="shadowBlurOuter1"></feColorMatrix>
        </filter>
        <polygon id="path-3" points="0 0.012243 23.0031853 0.012243 23.0031853 16.4265897 0 16.4265897"></polygon>
        <polygon id="path-5" points="0 23.6133333 76.8611433 23.6133333 76.8611433 0.07623 0 0.07623"></polygon>
        <polygon id="path-7" points="0 0 34.1261682 0 34.1261682 33.5 0 33.5"></polygon>
        <path d="M0,32.7446818 L0,67.6400656 C0,73.2239183 3.00572727,78.402287 7.92592011,81.2934725 L36.4912037,98.0788211 C41.7218651,101.153213 48.2781349,101.153213 53.5087963,98.0788211 L82.0740799,81.2934725 C86.9942727,78.402287 90,73.2239183 90,67.6400656 L90,32.7446818 C90,27.1608291 86.9942727,21.9824603 82.0740799,19.0912749 L53.5087963,2.30539835 C48.2781349,-0.768466117 41.7218651,-0.768466117 36.4912037,2.30539835 L7.92592011,19.0912749 C3.00572727,21.9824603 0,27.1608291 0,32.7446818" id="path-9"></path>
        <filter x="-37.2%" y="-34.4%" width="174.4%" height="166.7%" filterUnits="objectBoundingBox" id="filter-10">
            <feMorphology radius="6" operator="dilate" in="SourceAlpha" result="shadowSpreadOuter1"></feMorphology>
            <feOffset dx="0" dy="-1" in="shadowSpreadOuter1" result="shadowOffsetOuter1"></feOffset>
            <feGaussianBlur stdDeviation="5" in="shadowOffsetOuter1" result="shadowBlurOuter1"></feGaussianBlur>
            <feColorMatrix values="0 0 0 0 0.132449513   0 0 0 0 0.185970704   0 0 0 0 0.44446216  0 0 0 0.235440341 0" type="matrix" in="shadowBlurOuter1"></feColorMatrix>
        </filter>
    </defs>
    <g id="SS_Platform" stroke="none" stroke-width="1" fill="none" fill-rule="evenodd">
        <g id="Group-23">
            <g id="Fill-1-Copy">
                <use fill="black" fill-opacity="1" filter="url(#filter-2)" xlink:href="#path-1"></use>
                <use fill="#FFFFFF" fill-rule="evenodd" xlink:href="#path-1"></use>
            </g>
            <g id="Group" transform="translate(259.000000, 232.000000)" fill-rule="nonzero">
                <g id="Shape">
                    <path d="M33.6706972,13.1087776 C34.2226145,13.3863926 34.8111924,13.5874362 35.4195422,13.7061396 C36.1850579,13.8792316 36.9683572,13.9652582 37.7539495,13.9625182 C38.4798171,13.9737617 39.2035415,13.8822317 39.9027545,13.6907569 C40.5133548,13.521832 41.0849726,13.2389145 41.5862465,12.8575266 C42.0474403,12.5043797 42.4240131,12.056292 42.6894043,11.5448683 C42.9597888,11.0070406 43.095979,10.4138931 43.0867503,9.81431305 C43.095864,9.06285334 42.8483219,8.33001314 42.3835525,7.73251913 C41.9164968,7.12746573 41.1322614,6.6506016 40.0308463,6.30192676 L37.8820413,5.62765115 C37.0690506,5.37127259 36.5122435,5.09438374 36.2116199,4.80723975 C35.9164865,4.53400526 35.752323,4.15150762 35.7593775,3.75352387 C35.7183703,3.20729311 35.9983856,2.68590561 36.4808741,2.41010021 C37.1040131,2.1009112 37.7990348,1.95768728 38.4963591,1.99476694 C39.4999601,1.98062587 40.4951988,2.17549161 41.4163289,2.56649113 C41.5965786,2.66410631 41.7946621,2.72595895 41.9992772,2.74851991 C42.2293196,2.74851991 42.3443408,2.59469277 42.3443408,2.28191093 L42.3443408,1.58456124 C42.3539291,1.4099917 42.3072883,1.23688645 42.2110207,1.08975062 C42.0852446,0.938238489 41.928522,0.814226469 41.750936,0.725693062 C41.5475225,0.621592386 41.3349097,0.535782051 41.1157053,0.469314501 C40.8542935,0.38214579 40.5615123,0.302668436 40.2530464,0.233446225 C39.9445804,0.164224013 39.6178157,0.10782073 39.2727521,0.0642363747 C38.9337878,0.0215145439 38.5923838,0 38.250632,0.000141734505 C37.6053248,-0.00399257819 36.9627267,0.0823396709 36.3423258,0.256520295 C35.7758209,0.416364608 35.2441439,0.677084636 34.773855,1.02565598 C34.3297656,1.35592561 33.9596185,1.77217723 33.6863819,2.24858171 C33.4039085,2.75406828 33.2614974,3.32335268 33.2733513,3.89965965 C33.274481,4.68184895 33.5412161,5.44138913 34.0314455,6.05836713 C34.5333562,6.71640543 35.34199,7.21890741 36.457347,7.56587307 L38.6584344,8.24271247 C39.4008439,8.4871267 39.9097255,8.74350526 40.1850793,9.01184815 C40.4599255,9.29001402 40.6080139,9.66559521 40.5954958,10.0527451 C40.6130199,10.6258449 40.3129718,11.1633798 39.8112604,11.4576996 C39.2884368,11.7858642 38.5512555,11.9499465 37.5944883,11.9499465 C36.9884558,11.9503154 36.3840038,11.8893157 35.7907469,11.7679177 C35.2164033,11.6577811 34.6562058,11.4858213 34.1203255,11.2551606 C33.9599929,11.1850838 33.8319012,11.133808 33.7360502,11.1013334 C33.6477689,11.0670856 33.5538806,11.0488432 33.4589537,11.0474939 C33.2289113,11.0474939 33.1138901,11.2038848 33.1138901,11.5166667 L33.1138901,12.2704197 C33.1003099,12.6359292 33.3235539,12.9700012 33.6706972,13.10365" fill="#000000"></path>
                    <path d="M8.21999817,5.9113417 C7.69402736,5.8351829 7.16335085,5.79564416 6.6318409,5.79301397 C5.09196638,5.79301397 3.86765404,6.18058014 2.9589039,6.95571248 C2.05690694,7.71646336 1.5554761,8.84653271 1.59836527,10.0219439 C1.59836527,11.2223701 1.96565897,12.1792813 2.70024637,12.8926774 C3.43483377,13.6060735 4.43238966,13.9627716 5.69291405,13.9627716 C7.40326057,13.9892355 9.0303499,13.2299929 10.103025,11.9048982 C10.2582196,12.2341579 10.4134141,12.5274049 10.5608489,12.7794944 C10.7101697,13.0348852 10.8908969,13.2707843 11.0988565,13.4817437 C11.2131608,13.6090343 11.3748283,13.6843117 11.5463341,13.6901034 C11.6872056,13.6841242 11.8235043,13.6386441 11.9394935,13.5589139 L12.8758338,12.9184008 C13.0389633,12.8265059 13.147006,12.6614963 13.1655302,12.475958 C13.1602862,12.3555616 13.1237478,12.2385733 13.0594807,12.1364089 C12.8675558,11.793876 12.7048923,11.4359203 12.5732045,11.0663147 C12.4453801,10.6348986 12.3877478,10.18593 12.4024905,9.73641399 L12.4024905,4.87983263 C12.4024905,3.24725301 11.9877763,2.02539065 11.1583478,1.21424552 C10.3289193,0.403100403 9.02356091,-0.00161471121 7.24227269,0 C6.45724884,-0.00354703611 5.67496331,0.0924039212 4.91435487,0.285630126 C4.26263611,0.447870077 3.62913501,0.675399446 3.02356829,0.964728368 C2.85967184,1.0327904 2.71558923,1.14069996 2.60454308,1.27855407 C2.52279053,1.43725589 2.4861242,1.61513181 2.49849349,1.79302244 L2.49849349,2.52356751 C2.49849349,2.83739322 2.60454308,2.99430607 2.81405568,2.99430607 C2.89370837,2.99013917 2.97265052,2.97719833 3.04943404,2.95572094 C3.22591468,2.90065485 3.39870077,2.83449827 3.56674911,2.75765062 C4.09111158,2.54639524 4.63062314,2.37442642 5.18077213,2.24318225 C5.70917971,2.11513402 6.25092983,2.04951472 6.79479515,2.04768428 C7.95013214,2.04768428 8.76404119,2.27748015 9.23652229,2.73707189 C9.70900338,3.19666362 9.94524393,3.99323214 9.94524393,5.12677744 L9.94524393,6.22259506 C9.3503316,6.08883328 8.77524968,5.98508216 8.21999817,5.9113417 L8.21999817,5.9113417 Z M9.94007078,8.53513036 C9.94743391,8.96825678 9.89875182,9.40052645 9.79522256,9.82130127 C9.70079201,10.1747372 9.52351312,10.5008984 9.27790749,10.7730677 C8.89878217,11.2104434 8.40961459,11.5397911 7.8604642,11.7274066 C7.36166462,11.9022422 6.83736178,11.9943593 6.30851899,12.0000748 C5.73348743,12.0377884 5.16718805,11.8451205 4.73588117,11.4650277 C4.36858747,11.1100445 4.18235404,10.5827145 4.18235404,9.88818216 C4.14286277,9.23053925 4.41575346,8.59253701 4.91952802,8.16471314 C5.41787487,7.76514271 6.16539515,7.56535749 7.16208885,7.56535749 C7.63176919,7.56630533 8.10090397,7.59723703 8.56659927,7.6579618 C9.0302871,7.72008826 9.49044603,7.80594693 9.94524393,7.91519598 L9.94007078,8.53513036 Z" fill="#000000"></path>
                    <path d="M17.5665082,13.610071 C17.610359,13.8379888 17.7176511,14.0477334 17.8752264,14.2135819 C18.0444707,14.3247707 18.2442986,14.3756788 18.4441865,14.3585299 L19.7198817,14.3585299 C19.9301395,14.3783615 20.1404794,14.3214804 20.3143557,14.1977694 C20.4672494,14.0274446 20.5668403,13.8134365 20.6001114,13.5837168 L22.878503,3.74306367 L25.1747544,13.5837168 C25.2073064,13.8131362 25.3059931,14.0271117 25.4579588,14.1977694 C25.6329808,14.3210599 25.8439657,14.3778716 26.0549841,14.3585299 L27.3306793,14.3585299 C27.5305371,14.3752898 27.7302467,14.3244119 27.8996394,14.2135819 C28.0581461,14.0480652 28.1663417,13.8382882 28.210909,13.610071 L31.7828556,1.79021847 C31.8255044,1.66793709 31.8604464,1.54293267 31.8874626,1.41598902 C31.9026988,1.33696584 31.9112358,1.25672096 31.9129766,1.17616593 C31.9278071,1.07297214 31.8944396,0.968621276 31.823023,0.894852621 C31.7516064,0.821083966 31.6505826,0.786617486 31.5506791,0.801936484 L30.1729283,0.801936484 C29.9684896,0.782396863 29.7636235,0.834372047 29.5912113,0.949519927 C29.4390938,1.12206869 29.3358269,1.33449281 29.2926986,1.56357247 L26.7413081,11.8048093 L24.4016831,1.56357247 C24.3695769,1.3373519 24.269642,1.12721274 24.1159274,0.96269702 C23.9372938,0.848882652 23.7280641,0.797161507 23.518902,0.815113577 L22.3299541,0.815113577 C22.120792,0.797161507 21.9115624,0.848882652 21.7329287,0.96269702 C21.5782022,1.12647668 21.4780967,1.33697445 21.447173,1.56357247 L19.1509216,11.6598612 L16.6607646,1.56357247 C16.6154546,1.33917042 16.51232,1.13157112 16.3622519,0.96269702 C16.1898396,0.84754914 15.9849735,0.795573956 15.7805349,0.815113577 L14.3313451,0.815113577 C14.2312734,0.800027698 14.1301627,0.834462646 14.0584012,0.908069173 C13.9866397,0.981675699 13.952594,1.08587223 13.9664963,1.18934302 C13.9863555,1.39859821 14.0300306,1.60470508 14.0966172,1.80339556 L17.5665082,13.610071 Z" fill="#000000"></path>
                    <path d="M39.6322551,20.4588841 C34.2994176,22.7080326 28.5750186,23.8805181 22.7879651,23.9089731 C14.7587085,23.9089731 6.98540529,21.7036824 0.70175055,18.046127 C0.151450848,17.7259629 -0.255514978,18.3022584 0.189843851,18.7018232 C6.24128611,24.16504 14.1131998,27.1702121 22.2632607,27.1285438 C28.3626291,27.1285438 35.4474178,25.2101202 40.3335672,21.6012298 C41.1423798,21.0044439 40.4487463,20.1079842 39.6220169,20.4588841" fill="#F8991D"></path>
                    <path d="M36.9876627,18.1350679 C36.5573098,18.4420246 36.6315969,18.8660411 37.108059,18.8088119 C38.6834578,18.6163136 42.1928827,18.1896958 42.817919,19.0013102 C43.4429553,19.8129246 42.1237189,23.1634353 41.537107,24.6644017 C41.3577933,25.1170328 41.7420369,25.2991257 42.1467735,24.9557504 C44.7698765,22.7290135 45.4487069,18.0596294 44.9107659,17.383284 C44.3728248,16.7069387 39.7875178,16.1398492 36.9927859,18.1350679" fill="#F8991D"></path>
                </g>
            </g>
            <g id="OpenID" transform="translate(114.000000, 267.500000)">
                <g id="Group-18">
                    <polygon id="Fill-1" fill="#F8931E" points="15.400077 0.256769333 11.550077 2.13762267 11.550077 21.3801793 11.550077 23.7938727 15.400077 21.9815493"></polygon>
                    <polyline id="Fill-2" fill="#B3B3B3" points="24.883397 8.49007133 25.414697 14.0078913 17.969567 12.3883247"></polyline>
                    <g id="Group-17" transform="translate(0.000000, 0.180488)">
                        <g id="Group-5" transform="translate(0.000000, 7.186667)">
                            <mask id="mask-4" fill="white">
                                <use xlink:href="#path-3"></use>
                            </mask>
                            <g id="Clip-4"></g>
                            <path d="M16.075752,0.0132696667 L16.075752,2.45750633 C17.6878753,2.736503 19.1298287,3.267033 20.280722,3.978513 L23.0031853,2.296063 C21.1479987,1.14927633 18.7535553,0.336926333 16.075752,0.0132696667 M3.84994867,8.184253 C3.84994867,5.456143 6.822662,3.15897633 10.8741453,2.45750633 L10.8741453,0.012243 C4.67692867,0.761453 -5.13333333e-05,4.13507967 -5.13333333e-05,8.184253 C-5.13333333e-05,12.3794697 5.020092,15.8490897 11.5499487,16.4265897 L11.5499487,14.0128963 C7.15658533,13.4620897 3.84994867,11.0619997 3.84994867,8.184253" id="Fill-3" fill="#B3B3B3" mask="url(#mask-4)"></path>
                        </g>
                        <path d="M29.743252,12.1475457 C29.9567987,11.4768757 30.2771187,10.8832057 30.7044687,10.3665357 C31.131562,9.85012233 31.6631187,9.437659 32.2991387,9.12940233 C32.9351587,8.821659 33.6753853,8.66740233 34.5198187,8.66740233 C35.364252,8.66740233 36.1047353,8.821659 36.7404987,9.12940233 C37.376262,9.437659 37.9080753,9.85012233 38.3354253,10.3665357 C38.7625187,10.8832057 39.0828387,11.4768757 39.296642,12.1475457 C39.5101887,12.8182157 39.616962,13.516349 39.616962,14.2414323 C39.616962,14.9667723 39.5101887,15.6649057 39.296642,16.335319 C39.0828387,17.0062457 38.7625187,17.6001723 38.3354253,18.1165857 C37.9080753,18.6335123 37.376262,19.0431523 36.7404987,19.346019 C36.1047353,19.649399 35.364252,19.8008323 34.5198187,19.8008323 C33.6753853,19.8008323 32.9351587,19.649399 32.2991387,19.346019 C31.6631187,19.0431523 31.131562,18.6335123 30.7044687,18.1165857 C30.2771187,17.6001723 29.9567987,17.0062457 29.743252,16.335319 C29.5294487,15.6649057 29.4226753,14.9667723 29.4226753,14.2414323 C29.4226753,13.516349 29.5294487,12.8182157 29.743252,12.1475457 M31.0473753,15.8289157 C31.186232,16.3504623 31.404912,16.8199057 31.7031587,17.2372457 C32.0011487,17.6548423 32.383582,17.990049 32.8507153,18.243379 C33.317592,18.4964523 33.8737887,18.6232457 34.5198187,18.6232457 C35.165592,18.6232457 35.7217887,18.4964523 36.1891787,18.243379 C36.6560553,17.990049 37.0387453,17.6548423 37.3364787,17.2372457 C37.634982,16.8199057 37.8531487,16.3504623 37.9925187,15.8289157 C38.131632,15.307369 38.2011887,14.7781223 38.2011887,14.2414323 C38.2011887,13.704999 38.131632,13.176009 37.9925187,12.6544623 C37.8531487,12.1324023 37.634982,11.6632157 37.3364787,11.2458757 C37.0387453,10.8285357 36.6560553,10.493329 36.1891787,10.2397423 C35.7217887,9.98641233 35.165592,9.859619 34.5198187,9.859619 C33.8737887,9.859619 33.317592,9.98641233 32.8507153,10.2397423 C32.383582,10.493329 32.0011487,10.8285357 31.7031587,11.2458757 C31.404912,11.6632157 31.186232,12.1324023 31.0473753,12.6544623 C30.9080053,13.176009 30.8387053,13.704999 30.8387053,14.2414323 C30.8387053,14.7781223 30.9080053,15.307369 31.0473753,15.8289157" id="Fill-6" fill="#000000"></path>
                        <path d="M42.0014723,11.856922 L42.0014723,12.9000153 L42.0312457,12.9000153 C42.2401723,12.4731787 42.5679357,12.162612 43.015049,11.968572 C43.4621623,11.7750453 43.9539357,11.6780253 44.490369,11.6780253 C45.0868623,11.6780253 45.6058423,11.7873653 46.048079,12.0060453 C46.490059,12.2247253 46.8578623,12.519892 47.150719,12.8930853 C47.4438323,13.2655087 47.665079,13.6954253 47.8139457,14.1818087 C47.963069,14.668962 48.037759,15.1853753 48.037759,15.7320753 C48.037759,16.2787753 47.965379,16.7951887 47.8216457,17.2818287 C47.6771423,17.768982 47.458719,18.1937653 47.1658623,18.5561787 C46.872749,18.9191053 46.504689,19.2045187 46.0629657,19.4134453 C45.620729,19.6218587 45.1066257,19.726322 44.520399,19.726322 C44.3314923,19.726322 44.1202557,19.706302 43.8869457,19.6665187 C43.653379,19.6267353 43.4221223,19.562312 43.1939457,19.4724787 C42.9652557,19.3834153 42.7491423,19.262012 42.5456057,19.1077553 C42.3418123,18.9537553 42.170359,18.7627953 42.0312457,18.5341053 L42.0014723,18.5341053 L42.0014723,22.498322 L40.7345657,22.498322 L40.7345657,11.856922 L42.0014723,11.856922 Z M46.554739,14.591962 C46.460029,14.2490553 46.3165523,13.9431087 46.1225123,13.6751487 C45.928729,13.406932 45.680019,13.1933853 45.3771523,13.034252 C45.074029,12.8753753 44.719059,12.7960653 44.3114723,12.7960653 C43.884379,12.7960653 43.5219657,12.8805087 43.223719,13.0493953 C42.925729,13.218282 42.6821523,13.4395287 42.4932457,13.7123653 C42.3048523,13.9857153 42.1677923,14.2960253 42.0836057,14.6440653 C41.9989057,14.9918487 41.9568123,15.344252 41.9568123,15.702302 C41.9568123,16.0798587 42.0014723,16.4450953 42.091049,16.7977553 C42.180369,17.150672 42.322049,17.460982 42.5158323,17.728942 C42.7096157,17.9971587 42.960379,18.2135287 43.268379,18.3775387 C43.5761223,18.5410353 43.949059,18.6234253 44.3861623,18.6234253 C44.8232657,18.6234253 45.1885023,18.538982 45.4816157,18.3700953 C45.774729,18.200952 46.0108623,17.977652 46.1895023,17.6994253 C46.3686557,17.4211987 46.497759,17.1031887 46.577069,16.7453953 C46.6566357,16.3881153 46.696419,16.020312 46.696419,15.6424987 C46.696419,15.2847053 46.6489357,14.9348687 46.554739,14.591962 L46.554739,14.591962 Z" id="Fill-8" fill="#000000"></path>
                        <path d="M54.6846557,19.0705387 C54.1081823,19.507642 53.383099,19.726322 52.5086357,19.726322 C51.8926357,19.726322 51.358769,19.6267353 50.9065223,19.428332 C50.4545323,19.2294153 50.074409,18.9511887 49.766409,18.5933953 C49.458409,18.2358587 49.2271523,17.8087653 49.073409,17.3118587 C48.9191523,16.8152087 48.8321423,16.2738987 48.8126357,15.6871587 C48.8126357,15.1011887 48.9019557,14.5644987 49.0808523,14.077602 C49.2594923,13.5907053 49.5105123,13.1684887 49.8336557,12.8106953 C50.156029,12.4531587 50.538719,12.1751887 50.9809557,11.9760153 C51.4229357,11.7773553 51.9072657,11.6780253 52.4339457,11.6780253 C53.1195023,11.6780253 53.6885323,11.8194487 54.140779,12.1030653 C54.5925123,12.3861687 54.955439,12.7460153 55.228789,13.1833753 C55.5016257,13.620992 55.6905323,14.097622 55.7952523,14.6140353 C55.8992023,15.1307053 55.9415523,15.6227353 55.921789,16.0898687 L50.1539757,16.0898687 C50.1439657,16.427642 50.183749,16.747962 50.273069,17.0510853 C50.3626457,17.3542087 50.5066357,17.6224253 50.7055523,17.855992 C50.9042123,18.0895587 51.1575423,18.275642 51.4652857,18.4144987 C51.7732857,18.5538687 52.1362123,18.6234253 52.5532957,18.6234253 C53.0899857,18.6234253 53.529399,18.498942 53.8725623,18.251002 C54.2152123,18.0025487 54.441079,17.6247353 54.5506757,17.1180753 L55.8021823,17.1180753 C55.6332957,17.9825287 55.260359,18.6334353 54.6846557,19.0705387 M54.3792223,14.1225187 C54.264749,13.854302 54.1110057,13.6230453 53.9169657,13.429262 C53.723439,13.2354787 53.4944923,13.0817353 53.2316657,12.967262 C52.968069,12.8530453 52.677779,12.7960653 52.359769,12.7960653 C52.0320057,12.7960653 51.736069,12.8530453 51.4729857,12.967262 C51.209389,13.0817353 50.9832657,13.2380453 50.7948723,13.436962 C50.605709,13.6353653 50.4565857,13.866622 50.347759,14.1297053 C50.238419,14.3930453 50.173739,14.673582 50.1539757,14.9718287 L54.580449,14.9718287 C54.560429,14.673582 54.493439,14.3904787 54.3792223,14.1225187" id="Fill-10" fill="#000000"></path>
                        <path d="M57.9784847,11.856922 L57.9784847,13.0791687 L58.0080013,13.0791687 C58.5346813,12.1454153 59.3693613,11.6780253 60.5120413,11.6780253 C61.018958,11.6780253 61.440918,11.7478387 61.778948,11.886952 C62.1167213,12.0260653 62.3898147,12.2198487 62.5987413,12.4677887 C62.806898,12.7164987 62.953968,13.011922 63.0381547,13.354572 C63.122598,13.6974787 63.1646913,14.077602 63.1646913,14.494942 L63.1646913,19.562312 L61.8980413,19.562312 L61.8980413,14.3460753 C61.8980413,13.868932 61.758928,13.491632 61.480958,13.2134053 C61.202988,12.9351787 60.8197847,12.7960653 60.3331447,12.7960653 C59.9458347,12.7960653 59.6101147,12.8553553 59.3270113,12.9747053 C59.0436513,13.0940553 58.807518,13.262942 58.6191247,13.481622 C58.4304747,13.7000453 58.2887947,13.9561987 58.194598,14.2490553 C58.099888,14.5421687 58.052918,14.8624887 58.052918,15.210272 L58.052918,19.562312 L56.7860113,19.562312 L56.7860113,11.856922 L57.9784847,11.856922 Z" id="Fill-12" fill="#000000"></path>
                        <mask id="mask-6" fill="white">
                            <use xlink:href="#path-5"></use>
                        </mask>
                        <g id="Clip-15"></g>
                        <polygon id="Fill-14" fill="#000000" mask="url(#mask-6)" points="64.89329 19.5623633 66.4584433 19.5623633 66.4584433 8.92096333 64.89329 8.92096333"></polygon>
                        <path d="M71.7492417,8.920912 C73.3885717,8.920912 74.6506017,9.33799533 75.5348183,10.1726753 C76.419035,11.0073553 76.8612717,12.2793953 76.8612717,13.988282 C76.8612717,14.8825087 76.761685,15.6748387 76.5632817,16.365272 C76.364365,17.0562187 76.0566217,17.637312 75.6392817,18.1090653 C75.2219417,18.581332 74.690385,18.9414353 74.044355,19.189632 C73.3985817,19.438342 72.6334583,19.562312 71.7492417,19.562312 L68.097645,19.562312 L68.097645,8.920912 L71.7492417,8.920912 Z M71.8685917,18.3698387 C72.0274683,18.3698387 72.226385,18.3575187 72.4645717,18.332622 C72.7032717,18.307982 72.9566017,18.2484353 73.2245617,18.1537253 C73.4932917,18.0595287 73.7589417,17.9227253 74.0217683,17.7440853 C74.285365,17.5651887 74.521755,17.321612 74.729655,17.013612 C74.9388383,16.7058687 75.110035,16.320612 75.2442717,15.858612 C75.3785083,15.3963553 75.4452417,14.8378487 75.4452417,14.1818087 C75.4452417,13.546302 75.3831283,12.9775287 75.259415,12.4754887 C75.134675,11.973962 74.931395,11.5463553 74.648035,11.1936953 C74.364675,10.8410353 74.0002083,10.5728187 73.5528383,10.3890453 C73.105725,10.205272 72.5541483,10.1131287 71.8981083,10.1131287 L69.513675,10.1131287 L69.513675,18.3698387 L71.8685917,18.3698387 Z" id="Fill-16" fill="#000000" mask="url(#mask-6)"></path>
                    </g>
                </g>
                <path d="M31.6352358,29.3498333 C32.0459025,29.3498333 32.4159303,29.2771111 32.7453191,29.1316667 C33.074708,28.9862222 33.3484858,28.7766111 33.5666525,28.5028333 L33.5666525,28.5028333 L32.7581525,27.7713333 C32.4672636,28.1221111 32.1143469,28.2975 31.6994025,28.2975 C31.4555691,28.2975 31.2384719,28.2440278 31.0481108,28.1370833 C30.8577497,28.0301389 30.7101664,27.8793472 30.6053608,27.6847083 C30.5005553,27.4900694 30.4481525,27.2665556 30.4481525,27.0141667 C30.4481525,26.7617778 30.5005553,26.5382639 30.6053608,26.343625 C30.7101664,26.1489861 30.8577497,25.9981944 31.0481108,25.89125 C31.2384719,25.7843056 31.4555691,25.7308333 31.6994025,25.7308333 C32.1143469,25.7308333 32.4672636,25.9062222 32.7581525,26.257 L32.7581525,26.257 L33.5666525,25.5255 C33.3484858,25.2517222 33.074708,25.0421111 32.7453191,24.8966667 C32.4159303,24.7512222 32.0459025,24.6785 31.6352358,24.6785 C31.1646803,24.6785 30.7422497,24.7779583 30.3679441,24.976875 C29.9936386,25.1757917 29.6995414,25.4527778 29.4856525,25.8078333 C29.2717636,26.1628889 29.1648191,26.565 29.1648191,27.0141667 C29.1648191,27.4633333 29.2717636,27.8654444 29.4856525,28.2205 C29.6995414,28.5755556 29.9936386,28.8525417 30.3679441,29.0514583 C30.7422497,29.250375 31.1646803,29.3498333 31.6352358,29.3498333 Z M36.9589303,29.3498333 C37.4337637,29.3498333 37.860472,29.2493056 38.2390553,29.04825 C38.6176387,28.8471944 38.9149442,28.5691389 39.130972,28.2140833 C39.3469998,27.8590278 39.4550137,27.4590556 39.4550137,27.0141667 C39.4550137,26.5692778 39.3469998,26.1693056 39.130972,25.81425 C38.9149442,25.4591944 38.6176387,25.1811389 38.2390553,24.9800833 C37.860472,24.7790278 37.4337637,24.6785 36.9589303,24.6785 C36.484097,24.6785 36.0573887,24.7790278 35.6788053,24.9800833 C35.300222,25.1811389 35.0029165,25.4591944 34.7868887,25.81425 C34.5708609,26.1693056 34.462847,26.5692778 34.462847,27.0141667 C34.462847,27.4590556 34.5708609,27.8590278 34.7868887,28.2140833 C35.0029165,28.5691389 35.300222,28.8471944 35.6788053,29.04825 C36.0573887,29.2493056 36.484097,29.3498333 36.9589303,29.3498333 Z M36.9589303,28.2975 C36.7322081,28.2975 36.5268748,28.2440278 36.3429303,28.1370833 C36.1589859,28.0301389 36.0135415,27.8793472 35.906597,27.6847083 C35.7996526,27.4900694 35.7461803,27.2665556 35.7461803,27.0141667 C35.7461803,26.7617778 35.7996526,26.5382639 35.906597,26.343625 C36.0135415,26.1489861 36.1589859,25.9981944 36.3429303,25.89125 C36.5268748,25.7843056 36.7322081,25.7308333 36.9589303,25.7308333 C37.1856526,25.7308333 37.3909859,25.7843056 37.5749303,25.89125 C37.7588748,25.9981944 37.9043192,26.1489861 38.0112637,26.343625 C38.1182081,26.5382639 38.1716803,26.7617778 38.1716803,27.0141667 C38.1716803,27.2665556 38.1182081,27.4900694 38.0112637,27.6847083 C37.9043192,27.8793472 37.7588748,28.0301389 37.5749303,28.1370833 C37.3909859,28.2440278 37.1856526,28.2975 36.9589303,28.2975 Z M42.0259582,29.26 L42.0259582,26.8665833 L44.0087082,29.26 L45.0546249,29.26 L45.0546249,24.7683333 L43.8097915,24.7683333 L43.8097915,27.16175 L41.8270415,24.7683333 L40.7811249,24.7683333 L40.7811249,29.26 L42.0259582,29.26 Z M47.8565694,29.26 L47.8565694,26.8665833 L49.8393194,29.26 L50.8852361,29.26 L50.8852361,24.7683333 L49.6404027,24.7683333 L49.6404027,27.16175 L47.6576527,24.7683333 L46.6117361,24.7683333 L46.6117361,29.26 L47.8565694,29.26 Z M56.0485139,29.26 L56.0485139,28.27825 L53.7000139,28.27825 L53.7000139,27.4569167 L55.6955973,27.4569167 L55.6955973,26.50725 L53.7000139,26.50725 L53.7000139,25.7500833 L55.9650973,25.7500833 L55.9650973,24.7683333 L52.4423473,24.7683333 L52.4423473,29.26 L56.0485139,29.26 Z M59.6461251,29.3498333 C60.0567918,29.3498333 60.4268196,29.2771111 60.7562085,29.1316667 C61.0855974,28.9862222 61.3593751,28.7766111 61.5775418,28.5028333 L61.5775418,28.5028333 L60.7690418,27.7713333 C60.4781529,28.1221111 60.1252362,28.2975 59.7102918,28.2975 C59.4664585,28.2975 59.2493612,28.2440278 59.0590001,28.1370833 C58.868639,28.0301389 58.7210557,27.8793472 58.6162501,27.6847083 C58.5114446,27.4900694 58.4590418,27.2665556 58.4590418,27.0141667 C58.4590418,26.7617778 58.5114446,26.5382639 58.6162501,26.343625 C58.7210557,26.1489861 58.868639,25.9981944 59.0590001,25.89125 C59.2493612,25.7843056 59.4664585,25.7308333 59.7102918,25.7308333 C60.1252362,25.7308333 60.4781529,25.9062222 60.7690418,26.257 L60.7690418,26.257 L61.5775418,25.5255 C61.3593751,25.2517222 61.0855974,25.0421111 60.7562085,24.8966667 C60.4268196,24.7512222 60.0567918,24.6785 59.6461251,24.6785 C59.1755696,24.6785 58.753139,24.7779583 58.3788335,24.976875 C58.0045279,25.1757917 57.7104307,25.4527778 57.4965418,25.8078333 C57.2826529,26.1628889 57.1757085,26.565 57.1757085,27.0141667 C57.1757085,27.4633333 57.2826529,27.8654444 57.4965418,28.2205 C57.7104307,28.5755556 58.0045279,28.8525417 58.3788335,29.0514583 C58.753139,29.250375 59.1755696,29.3498333 59.6461251,29.3498333 Z M64.9890697,29.26 L64.9890697,25.77575 L66.3622363,25.77575 L66.3622363,24.7683333 L62.3389863,24.7683333 L62.3389863,25.77575 L63.7185697,25.77575 L63.7185697,29.26 L64.9890697,29.26 Z" id="CONNECT" fill="#808080" fill-rule="nonzero"></path>
            </g>
            <g id="kong-inc_mtls-auth" transform="translate(176.500000, 71.000000)">
                <mask id="mask-8" fill="white">
                    <use xlink:href="#path-7"></use>
                </mask>
                <g id="Mask"></g>
            </g>
            <g id="Group" transform="translate(73.500000, 140.000000)" fill-rule="nonzero">
                <g id="ACME" transform="translate(0.000000, 0.000000)">
                    <path d="M15.5389475,22.6430228 C16.2681809,22.6430228 16.9974144,22.6430228 17.7244839,22.6430228 C18.3931282,22.6430228 18.7869575,22.2859797 18.7739742,21.7276942 C18.7609908,21.1694086 18.3649975,20.8621352 17.7331395,20.8621352 C16.2573614,20.8534796 14.7823047,20.8534796 13.3079692,20.8621352 C12.6869307,20.8621352 12.2844457,21.2299977 12.2800841,21.7558248 C12.2757902,22.2816519 12.6869307,22.6451867 13.3014775,22.6516784 C14.0458583,22.6495145 14.7924029,22.6430228 15.5389475,22.6430228 Z" id="Path" fill="#5AB264"></path>
                    <path d="M27.6978872,22.6430228 L27.8082459,22.6430228 C28.300622,22.6478031 28.7036469,22.2525287 28.7084273,21.7601526 C28.7132076,21.2677766 28.3179332,20.8647516 27.8255571,20.8599713 C27.1352738,20.8340045 26.4449906,20.8318406 25.7547073,20.8599713 C25.2790202,20.8907991 24.9117405,21.2903648 24.921006,21.7669597 C24.9302715,22.2435546 25.3128038,22.6285431 25.7893296,22.6408589 C26.1160782,22.6581701 26.4384989,22.6408589 26.7717391,22.6408589 L27.6978872,22.6430228 Z" id="Path" fill="#5AB264"></path>
                    <path d="M29.8293262,17.4345216 C29.6670338,17.4193744 29.5004137,17.4345216 29.3359575,17.4345216 C23.9218862,17.4345216 18.5070935,17.4345216 13.0915795,17.4345216 C12.089695,17.4345216 11.7477992,16.8372859 12.2411678,15.9695631 C12.6393249,15.2756733 13.0389246,14.5810622 13.439967,13.8857298 C15.5173085,10.2676933 17.5953714,6.64893552 19.6741555,3.02945641 C20.1264101,2.24612554 20.8123655,2.19851979 21.2386533,2.93640882 C23.1140311,6.18225497 24.9814746,9.43459282 26.8409838,12.6934224 C27.2045186,13.3425916 26.8972451,13.903041 26.1593561,13.9917608 C25.8505799,14.0166789 25.5405936,14.0231821 25.2310441,14.0112359 C23.4263536,14.0112359 21.6238271,13.9831052 19.8213005,13.9895969 C19.2110814,13.9895969 18.8453828,14.3488039 18.8367272,14.8551559 C18.8267062,15.105275 18.9241194,15.3477416 19.1043992,15.5214056 C19.284679,15.6950696 19.5306165,15.7833538 19.7801865,15.7639928 C22.8976414,15.7639928 26.0158176,15.7639928 29.1347151,15.7639928 C29.5977891,15.7639928 29.9548322,15.5238002 30.0002741,15.0866929 C30.0033732,14.7307785 29.9058595,14.3812293 29.7189674,14.0783167 C27.2651077,9.81976656 24.789609,5.57636369 22.3898468,1.28535508 C22.1561458,0.865558974 21.835889,0.389501538 21.3793067,0.190422974 C20.5137477,-0.181767385 19.3344236,2.60208521e-18 18.8562023,0.839592205 C16.012841,5.84252308 13.1608242,10.8367984 10.2395627,15.7964513 C9.64881867,16.8004997 9.59039344,17.5838306 10.2633655,18.5207982 C10.5987696,18.9860361 10.9255182,19.2175731 11.5054427,19.2132453 L13.7494043,19.2132453 C15.9912021,19.2132453 18.2329998,19.2132453 20.4769614,19.2132453 L29.3922189,19.2132453 C29.5363832,19.2206672 29.680834,19.2206672 29.8249984,19.2132453 C30.3049832,19.1887348 30.6771877,18.7847919 30.6624267,18.3044084 C30.647209,17.8444153 30.288233,17.4695885 29.8293262,17.4345216 Z" id="Path" fill="#5AB264"></path>
                    <path d="M21.3143897,9.93228923 C21.6995635,10.5922779 22.0717538,11.2609223 22.4634193,11.9165832 C22.652641,12.2994551 23.1136821,12.4601939 23.4999262,12.2779541 C23.9175584,12.0832033 24.2875848,11.7434714 24.0885063,11.2522667 C23.7143573,10.3962618 23.2805089,9.56761145 22.7901678,8.77244021 C22.554303,8.37428308 22.3141104,7.98045374 22.0739177,7.58662441 C21.7752999,7.09758359 21.5026488,6.52198687 21.119639,6.09353518 C20.570009,5.48115221 19.9230037,5.87714544 19.5832718,6.47654503 C18.0872974,9.06312376 16.5970933,11.6504238 15.1126597,14.2384451 C14.7642722,14.8465003 14.8486642,15.3788191 15.3290494,15.6622896 C15.8094347,15.9457602 16.3049672,15.7488455 16.6663381,15.1234792 C17.6631735,13.3923612 18.6600089,11.6569155 19.6568443,9.91714195 C20.148049,9.08836923 20.823185,9.08836923 21.3143897,9.93228923 Z" id="Path" fill="#5AB264"></path>
                    <path d="M9.40429826,14.0350388 C10.2799554,12.5231958 11.1505635,11.0084676 12.0161225,9.49085415 C12.3104125,8.97151877 12.2801179,8.21199077 11.5984903,8.02373169 C11.1809117,7.88328452 10.7244626,8.07890557 10.5381805,8.47815015 C9.64016308,10.0404841 8.73781785,11.6006542 7.8506199,13.1694798 C7.53901867,13.7191097 7.66668862,14.2514285 8.12759877,14.493785 C8.58850892,14.7361415 9.08836923,14.5803409 9.40429826,14.0350388 Z" id="Path" fill="#5AB264"></path>
                    <path d="M12.8795175,6.21687733 C13.3490833,6.46788944 13.8554353,6.29044985 14.1648726,5.75596718 C14.9640721,4.37107282 15.7618289,2.98185067 16.5581432,1.58830072 C16.9065307,0.971589949 16.7745329,0.445762872 16.0885774,0.153636718 C15.6557979,-0.0324584615 15.2857715,0.214225846 15.0499067,0.625366359 C14.2341173,2.04488308 13.4161641,3.4622359 12.6025387,4.88824431 C12.2909374,5.44220205 12.4142796,5.96802913 12.8795175,6.21687733 Z" id="Path" fill="#5AB264"></path>
                    <path d="M32.8371436,14.4981128 C33.0580019,14.3814695 33.2191193,14.1767354 33.28057,13.9346447 C33.3420206,13.692554 33.2980536,13.4357626 33.1595643,13.227905 C32.8162259,12.6090304 32.4671171,11.9930409 32.1122379,11.3799366 C31.8071284,10.8562734 31.5193301,10.1183844 30.9761918,9.80029149 C30.9245343,9.76923711 30.8693159,9.74453413 30.8117356,9.72671897 C30.0500437,9.51032923 29.5133971,10.442969 29.8552929,11.0575159 C30.4222341,12.0940228 31.0194697,13.1132185 31.6210332,14.1280864 C31.7261853,14.3453278 31.9172656,14.5087998 32.1481657,14.5790559 C32.3790659,14.649312 32.6288136,14.619971 32.8371436,14.4981128 Z" id="Path" fill="#5AB264"></path>
                    <path d="M27.8666712,7.55849374 C28.502857,8.48680574 29.9418488,7.75324451 29.4116939,6.71240985 C29.11524,6.13032144 28.7798359,5.56554421 28.4336123,5.00942256 C28.2831556,4.71637466 27.9827183,4.53081448 27.65332,4.52748779 C27.3239217,4.52416111 27.019798,4.70361566 26.8634534,4.99356509 C26.7071088,5.28351452 26.7242855,5.63621854 26.9080646,5.9096039 C27.196717,6.47661704 27.5167489,7.02710075 27.8666712,7.55849374 L27.8666712,7.55849374 Z" id="Path" fill="#5AB264"></path>
                    <path d="M25.0103266,2.57720185 C25.1869001,2.80552424 25.4656659,2.93080794 25.753637,2.91126239 C26.041608,2.89171685 26.3008883,2.72991418 26.4449906,2.47982646 C26.8453116,1.81118215 25.8975245,0.0995392821 25.1206853,0.0995392821 C24.8129467,0.0922721465 24.5233314,0.244655927 24.355029,0.502396492 C24.1867266,0.760137056 24.1636709,1.08658194 24.2940765,1.36541928 C24.4842963,1.79613158 24.7247109,2.20287532 25.0103266,2.57720185 L25.0103266,2.57720185 Z" id="Path" fill="#5AB264"></path>
                    <path d="M21.8229056,22.6408699 C22.0623692,22.6420468 22.2922431,22.5468505 22.4607555,22.37671 C22.6292679,22.2065694 22.7222495,21.9757909 22.7187592,21.7363497 C22.7128028,21.2445128 22.3105233,20.8499438 21.8186632,20.8535058 C21.3268032,20.8570678 20.9302805,21.2574216 20.9314454,21.7492932 C20.9326154,22.2411648 21.3310342,22.6396318 21.8229056,22.6408699 L21.8229056,22.6408699 Z" id="Path" fill="#5AB264"></path>
                    <path d="M25.6876265,29.3034991 C26.9859649,29.3034991 28.2843034,29.3034991 29.5826418,29.3034991 C30.3897756,29.3034991 30.7706215,29.6627061 30.7663302,30.4806593 C30.7533104,32.5341979 30.7663302,34.5920644 30.7663302,36.6412753 C30.7663302,37.2406749 30.612657,37.7643381 29.9007348,37.7535186 C29.1888125,37.7426991 29.0351758,37.2363471 29.0459953,36.6239641 C29.0459953,35.1849723 29.0200285,33.7416527 29.0589787,32.2961692 C29.0849454,31.3592016 28.6738049,30.9978308 27.7606402,30.9978308 C26.8474755,30.9978308 26.4623017,31.4111352 26.4796129,32.3199721 C26.5077436,33.6875553 26.4796129,35.0573024 26.4796129,36.4313772 C26.4796129,37.0632353 26.5055797,37.7729936 25.6140539,37.7426991 C24.7658062,37.7145684 24.7636423,37.0156295 24.7636423,36.3837715 C24.7636423,34.9794021 24.7441672,33.5707048 24.7636423,32.1684993 C24.7787895,31.3267432 24.3719768,31.0108142 23.5756626,31.0086503 C22.7793483,31.0064864 22.2362101,31.2077288 22.2491934,32.1490242 C22.2686685,33.6248023 22.2491934,35.1027442 22.2491934,36.5785223 C22.2491934,37.216872 22.0998845,37.7881409 21.3252092,37.7513547 C20.6284343,37.7167323 20.5570256,37.1519551 20.5570256,36.5698667 C20.5570256,34.5531143 20.5786646,32.5363618 20.5570256,30.5109538 C20.5440423,29.6151003 20.9616745,29.284024 21.8055945,29.2948435 C23.0931134,29.3186464 24.3914519,29.3034991 25.6876265,29.3034991 Z" id="Path" fill="#4C4C4A"></path>
                    <path d="M33.3002176,33.5404103 C33.3002176,32.5320341 33.3175288,31.5236578 33.3002176,30.5109538 C33.2829065,29.705984 33.6204745,29.3013352 34.4449194,29.305663 C35.7107994,29.305663 36.9745155,29.2861879 38.2382316,29.305663 C38.8527785,29.305663 39.4824726,29.2299266 40.0818722,29.4181856 C40.4201005,29.4932956 40.6885864,29.7501082 40.7786472,30.0846661 C40.8890059,30.6775739 40.3328843,31.0129781 39.8157128,31.0173058 C38.6277331,31.0281253 37.4354256,30.9545528 36.2539376,31.0605838 C35.8817473,31.0930423 35.1525138,31.0173058 35.1049081,31.8287674 C35.0573024,32.6402289 35.6848326,32.6770152 36.2842322,32.6835069 C37.4008033,32.6835069 38.5173744,32.6835069 39.6339454,32.6835069 C40.2311811,32.6835069 40.8911698,32.7419321 40.9106449,33.5144435 C40.93012,34.3800025 40.2203616,34.3973136 39.5928314,34.4038053 C38.4762603,34.4038053 37.3531975,34.3345606 36.2474459,34.4449194 C35.8254859,34.4881973 35.1178915,34.3194133 35.1049081,35.2282503 C35.1049081,36.013745 35.6848326,36.0808258 36.2863961,36.0938092 C37.4029672,36.0938092 38.5195383,36.0938092 39.6339454,36.0938092 C40.2441645,36.0938092 40.8781865,36.1673817 40.908481,36.9290736 C40.9387756,37.6907655 40.3134092,37.807616 39.6988624,37.807616 C37.9677444,37.807616 36.2366265,37.807616 34.5055085,37.807616 C33.6399495,37.807616 33.2612675,37.4246062 33.2893982,36.5547194 C33.3240205,35.550671 33.3002176,34.5422948 33.3002176,33.5404103 Z" id="Path" fill="#4C4C4A"></path>
                    <path d="M0.0238028718,33.5404103 C0.0238028718,32.5341979 0.0454418462,31.5258217 0.0238028718,30.5109538 C-4.05925293e-16,29.705984 0.335404103,29.2948435 1.15768513,29.2969989 C2.95372,29.2969989 4.75119747,29.2969989 6.55011754,29.2969989 C7.29882605,29.2969989 7.67101641,29.6302476 7.66452472,30.4114146 C7.66452472,31.731392 7.66452472,33.0513694 7.66452472,34.3713469 C7.66452472,35.1763167 8.04969846,37.4462451 6.87470215,37.7080767 C6.21471344,37.8552217 5.91393169,37.2926084 5.96153744,36.6867171 C6.04160164,35.6480464 5.40974359,35.2498892 4.44680923,35.3169701 C4.05199998,35.344017 3.65580269,35.344017 3.26099344,35.3169701 C2.27425621,35.2585448 1.64888985,35.5333598 1.74626523,36.6975366 C1.79387097,37.3099196 1.49308923,37.8660412 0.830936615,37.7080767 C0.504188103,37.6280125 0.119014359,37.0437602 0.0779003077,36.6564226 C-0.0454418462,35.6307352 0.0238028718,34.5812449 0.0238028718,33.5404103 Z M3.82577067,33.6204745 L4.25855015,33.6204745 C5.7364921,33.6204745 5.93989846,33.4581822 5.94422626,32.322136 C5.94855405,31.1860898 5.76029497,31.0237975 4.29750031,31.0064864 C3.86472082,31.0064864 3.43194133,31.0216336 3.00998133,31.0064864 C2.1119639,30.971864 1.72462626,31.3570377 1.72462626,32.2875136 C1.72462626,33.2179895 2.05353867,33.6377856 2.97103118,33.6118189 C3.24584615,33.609655 3.53797231,33.6161467 3.82577067,33.6183106 L3.82577067,33.6204745 Z" id="Shape" fill="#4C4C4A"></path>
                    <path d="M10.2612016,33.5642131 C10.2612016,32.553673 10.2612016,31.5452968 10.2612016,30.5347567 C10.2612016,29.7492619 10.5728029,29.3013352 11.4015756,29.3034913 L16.9130224,29.3034913 C17.6747143,29.3034913 18.0360851,29.6800172 18.0101184,30.443873 C17.9863155,31.1233368 18.1248049,31.9261428 17.5362248,32.4238392 C17.1878373,32.7202931 16.4542761,32.5363618 16.3742119,32.0429932 C16.1989362,31.0540921 15.5476031,31.0086503 14.7772556,31.0064864 C11.6655711,31.0064864 11.9771723,30.9069471 11.9641889,33.819553 C11.9641889,34.1073514 11.9858279,34.3973136 11.9641889,34.685112 C11.8733052,35.7237828 12.3753294,36.1176121 13.3728862,36.0894814 C14.5264964,36.0260174 15.6830116,36.0375826 16.8351221,36.1241038 C17.2440987,36.1652178 17.869465,36.6196363 17.9322181,36.9680238 C18.0512324,37.6539793 17.4042271,37.7946326 16.8243026,37.7967965 C15.021776,37.7967965 13.2214133,37.7967965 11.414559,37.7967965 C10.6030974,37.7967965 10.2395627,37.3878199 10.2525461,36.5850139 C10.2720211,35.5831294 10.2612016,34.5725893 10.2612016,33.5642131 Z" id="Path" fill="#4C4C4A"></path>
                    <path d="M3.82577067,33.6161467 C3.53797231,33.6161467 3.25233785,33.6161467 2.96021169,33.6161467 C2.04271918,33.6421134 1.71380677,33.1833672 1.71380677,32.2918414 C1.71380677,31.4003157 2.10114441,30.9761918 2.99916185,31.0108142 C3.43194133,31.0281253 3.86472082,31.0108142 4.28668082,31.0108142 C5.74947549,31.0108142 5.93989846,31.1687787 5.93340677,32.3264638 C5.92691508,33.4841489 5.71701703,33.6074911 4.24773067,33.6248023 L3.82577067,33.6161467 Z" id="Path" fill="#FBFBFB"></path>
                </g>
            </g>
            <g id="Group-3" stroke="#B2C8D5" stroke-dasharray="3,9" stroke-linecap="round" stroke-width="2">
                <path d="M193.739854,377.471007 C300.739421,377.471007 387.479708,292.971244 387.479708,188.735503 C387.479708,84.4997632 300.739421,-5.96855898e-13 193.739854,-5.96855898e-13 C86.7402872,-5.96855898e-13 -2.84217094e-13,84.4997632 -2.84217094e-13,188.735503 C-2.84217094e-13,292.971244 86.7402872,377.471007 193.739854,377.471007 Z" id="Oval-3-Copy-2"></path>
            </g>
            <g id="Group" transform="translate(219.000000, 280.000000)" fill-rule="nonzero">
                <g id="google-cloud-seeklogo.com">
                    <path d="M23.55424,7.86082573 L26.6329318,4.78213398 L26.8381041,3.48579903 C21.227893,-1.61556262 12.3097449,-1.0371233 7.2523784,4.69276019 C5.84757743,6.28419466 4.80539053,8.26826505 4.24964053,10.317083 L5.35228617,10.1617165 L11.5095313,9.14636942 L11.9849002,8.66020922 C14.7238056,5.65221408 19.3547789,5.24754175 22.5171721,7.80686942 L23.55424,7.86082573 Z" id="Shape" fill="#EA4335"></path>
                    <path d="M31.0186252,10.2265471 C30.3109675,7.62059563 28.8581592,5.2779233 26.838118,3.48588204 L22.5171859,7.80681408 C24.3417393,9.29766845 25.3811592,11.5436345 25.3366107,13.8993117 L25.3366107,14.6663214 C27.4604141,14.6663214 29.1823121,16.3880811 29.1823121,18.5118845 C29.1823121,20.6358262 27.4604141,22.3144209 25.3366107,22.3144209 L17.6345549,22.3144209 L16.8783364,23.1353869 L16.8783364,27.7479597 L17.6345549,28.471666 L25.3366107,28.471666 C30.8609068,28.5146927 35.3741447,24.1144864 35.4171714,18.5901903 C35.4431811,15.241717 33.7922563,12.1025665 31.0186252,10.2265471" id="Shape" fill="#4285F4"></path>
                    <path d="M9.94323495,28.4717352 L17.6344995,28.4717352 L17.6344995,22.3143517 L9.94323495,22.3143517 C9.39523252,22.3142133 8.86452379,22.1964779 8.36618883,21.9687546 L7.27502621,22.3035604 L4.17475194,25.3822522 L3.90469369,26.4301114 C5.64333204,27.74291 7.76464515,28.481143 9.94323495,28.4717352" id="Shape" fill="#34A853"></path>
                    <path d="M9.94323495,8.49812366 C4.41880049,8.53111529 -0.0327334951,13.0363289 0.00019368932,18.560625 C0.0185941748,21.6455425 1.45936602,24.5494988 3.90469369,26.4300837 L8.36618883,21.9687269 C6.43054078,21.0942197 5.57042184,18.8162949 6.44492913,16.8807852 C7.31929806,14.9452755 9.59736117,14.0851566 11.5327325,14.9595255 C12.3856573,15.3448289 13.0686888,16.0279988 13.4539922,16.8807852 L17.9154874,12.4194284 C16.0171937,9.93785316 13.067582,8.4869818 9.94323495,8.49812366" id="Shape" fill="#FBBC05"></path>
                </g>
            </g>
            <g id="Group" transform="translate(78.500000, 209.500000)" fill-rule="nonzero">
                <g id="Oauth_logo">
                    <g>
                        <path d="M17.1549604,0.0920682402 C25.3434496,-0.4738286 30.7728753,3.51995511 33.8772927,8.38591702 C35.433887,10.8257007 36.9611407,14.5312415 36.968214,18.3385476 C36.9757184,22.4752831 35.6311174,26.0576342 33.8772927,28.6861117 C32.0747317,31.3877273 29.7432993,33.6191167 26.8238202,35.0842798 C21.9436499,37.5334827 15.1234195,37.6004644 10.6561791,35.2422531 C5.68113053,32.6160535 1.85598529,28.8676025 0.43256624,22.3669919 C-0.137073159,19.765541 -0.202548952,16.4042049 0.591067075,13.5202365 C0.777302486,12.843709 1.11573821,12.1317207 1.38363304,11.466521 C2.67103537,8.26986877 4.8623125,5.49012815 7.56535109,3.56754412 C8.65150801,2.7950383 9.96917746,2.02671883 11.1317434,1.51382865 C12.5782643,0.87571717 15.0137167,0.240006675 17.1549604,0.0920682402 Z" id="Path" fill="#FFFFFF"></path>
                        <path d="M32.6874863,18.7985543 C32.6874863,26.5117922 26.4137935,32.7641766 18.6749254,32.7641766 C10.9360573,32.7641766 4.66248779,26.5117922 4.66248779,18.7985543 C4.66248779,11.085501 10.9360573,4.83262399 18.6749254,4.83262399 C26.4137317,4.83262399 32.6874863,11.085501 32.6874863,18.7985543 Z" id="Path" fill="#000000"></path>
                        <path d="M17.1549604,0.0920682402 C25.3434496,-0.4738286 30.7728753,3.51995511 33.8772927,8.38591702 C35.433887,10.8257007 36.9611407,14.5312415 36.968214,18.3385476 C36.9757184,22.4752831 35.6311174,26.0576342 33.8772927,28.6861117 C32.0747317,31.3877273 29.7432993,33.6191167 26.8238202,35.0842798 C21.9436499,37.5334827 15.1234195,37.6004644 10.6561791,35.2422531 C5.68113053,32.6160535 1.85598529,28.8676025 0.43256624,22.3669919 C-0.137073159,19.765541 -0.202548952,16.4042049 0.591067075,13.5202365 C0.777302486,12.843709 1.11573821,12.1317207 1.38363304,11.466521 C2.67103537,8.26986877 4.8623125,5.49012815 7.56535109,3.56754412 C8.65150801,2.7950383 9.96917746,2.02671883 11.1317434,1.51382865 C12.5782643,0.87571717 15.0137167,0.240006675 17.1549604,0.0920682402 Z M14.3810723,1.43490353 C11.3395982,2.22083031 9.10952972,3.62886193 7.169099,5.14740103 C4.37099698,7.3371117 2.58721401,10.3928438 1.54213387,14.0731433 C0.37944437,18.1676458 1.12630082,23.1224445 2.7309519,26.2374628 C4.39496359,29.4678521 6.62923255,31.9754179 9.78442454,33.7414445 C12.8540656,35.4595743 17.1715147,36.5628022 21.6724195,35.7161733 C25.6713845,34.9639836 28.7085347,33.2276924 31.1827785,30.6608405 C34.4931357,27.2264894 37.1537384,20.9008438 35.3832359,14.2311167 C34.9099571,12.4485293 34.2912109,10.5906491 33.3226015,9.01781053 C32.7992893,8.16810338 32.0313694,7.33218657 31.2620289,6.49017493 C28.3584863,3.3121764 23.6656633,0.573622315 17.6304629,0.960921829 C16.4819187,1.03461401 15.4725414,1.152817 14.3810723,1.43490353 Z" id="Shape" fill="#000000"></path>
                        <g id="hashpattern" transform="translate(1.111853, 1.454451)" fill="#FFFFFF">
                            <g id="Group" transform="translate(0.000000, 0.369384)">
                                <polygon id="Path" points="18.4541113 33.7677092 34.6462749 17.6297991 34.5589204 17.5427334 18.3667568 33.6806435"></polygon>
                                <polygon id="Path" points="17.0385988 32.4896393 33.3013651 16.2812998 33.2140105 16.1942343 16.9512442 32.4025737"></polygon>
                                <polygon id="Path" points="15.6230246 31.211754 31.9565171 14.9328621 31.8691623 14.8457968 15.5356699 31.1246886"></polygon>
                                <polygon id="Path" points="14.2074503 29.9336842 30.6116072 13.5844246 30.5242526 13.4973591 14.1200957 29.8466186"></polygon>
                                <polygon id="Path" points="12.7919378 28.6556758 29.2667592 12.2359254 29.1794044 12.14886 12.704583 28.5686104"></polygon>
                                <polygon id="Path" points="11.376364 27.3779748 27.9217881 10.8874873 27.8344323 10.8004229 11.2890083 27.2909104"></polygon>
                                <polygon id="Path" points="9.96078924 26.0996591 26.5769395 9.53905016 26.4895847 9.45198478 9.87343446 26.0125938"></polygon>
                                <polygon id="Path" points="8.54521512 24.8216507 25.231968 8.19055083 25.1446129 8.10348578 8.45786001 24.7345856"></polygon>
                                <polygon id="Path" points="7.12964123 23.5436419 23.8867497 6.84211282 23.7993938 6.75504858 7.04228532 23.4565777"></polygon>
                                <polygon id="Path" points="5.71412823 22.2655725 22.54221 5.4936757 22.4548551 5.40661049 5.62677328 22.1785073"></polygon>
                                <polygon id="Path" points="4.29855402 20.9876257 21.1973003 4.14523801 21.1099451 4.05817297 4.21119891 20.9005607"></polygon>
                                <polygon id="Path" points="2.88297973 19.7096174 19.8524522 2.79673885 19.7650971 2.7096738 2.79562461 19.6225523"></polygon>
                                <polygon id="Path" points="1.46740536 18.4315476 18.5075423 1.44830132 18.4201873 1.36123612 1.3800504 18.3444824"></polygon>
                                <polygon id="Path" points="0.0518310672 17.1535393 17.1626324 0.0998637148 17.0752774 0.0127985148 -0.0355238885 17.0664741"></polygon>
                            </g>
                            <g id="Group">
                                <polygon id="Path" points="-0.041022601 17.6860672 16.4746903 34.147558 16.5620476 34.0604952 0.046334788 17.5990044"></polygon>
                                <polygon id="Path" points="1.2983279 16.3320887 17.846161 32.8256544 17.9335185 32.7385918 1.38568545 16.2450261"></polygon>
                                <polygon id="Path" points="2.63767857 14.9781104 19.2176318 31.5036279 19.3049892 31.4165651 2.72503595 14.8910476"></polygon>
                                <polygon id="Path" points="3.97702916 13.6241321 20.5891644 30.1817244 20.6765218 30.0946616 4.06438654 13.5370693"></polygon>
                                <polygon id="Path" points="5.31631806 12.2701538 21.9605735 28.8596979 22.0479307 28.7726349 5.40367527 12.1830908"></polygon>
                                <polygon id="Path" points="6.6556688 10.9161756 23.332168 27.537733 23.4195249 27.4506697 6.74302569 10.8291123"></polygon>
                                <polygon id="Path" points="7.99501939 9.5621972 24.7036388 26.2157679 24.7909956 26.1287046 8.08237627 9.47513392"></polygon>
                                <polygon id="Path" points="9.33430837 8.20821899 26.0751097 24.8937415 26.1624663 24.8066778 9.42166492 8.12115539"></polygon>
                                <polygon id="Path" points="10.673659 6.8542407 27.4466423 23.5717765 27.5339987 23.4847127 10.7610154 6.76717694"></polygon>
                                <polygon id="Path" points="12.0130097 5.50026241 28.8180514 22.2496884 28.9054077 22.1626244 12.1003659 5.41319849"></polygon>
                                <polygon id="Path" points="13.3523602 4.14628396 30.1895839 20.9278464 30.2769403 20.8407826 13.4397166 4.05922019"></polygon>
                                <polygon id="Path" points="14.6916492 2.79230576 31.5610549 19.6058199 31.6484109 19.5187558 14.7790052 2.70524167"></polygon>
                                <polygon id="Path" points="16.0309998 1.43838895 32.9325256 18.2839164 33.0198817 18.1968523 16.1183558 1.35132486"></polygon>
                                <polygon id="Path" points="17.3704122 0.0844106618 34.3040583 16.9618899 34.3914142 16.8748256 17.4577681 -0.00265359027"></polygon>
                            </g>
                        </g>
                        <path d="M30.3109621,6.56916161 C28.8536316,5.11668056 27.0619421,3.80782865 24.9217484,3.0146373 C22.7033544,2.19244928 20.193902,1.49942266 17.2342109,1.75078872 C12.5195831,2.15132449 9.20934942,4.25958572 6.69353472,6.72713499 C4.93137093,8.45542285 3.60585674,10.5732881 2.73089013,13.0462548 C1.44620566,16.6773646 1.52415891,20.9632698 2.96864138,24.6576674 C4.20075991,27.808947 6.21741452,30.3506807 9.07110902,32.3196225 C11.7538252,34.1706691 15.6041725,35.6062814 19.928725,35.2422531 C25.1959437,34.7988688 29.0498736,32.1055643 31.578907,29.00212 C32.2260055,28.2081899 32.8693978,27.3107706 33.2431658,26.2375243 C33.6093978,25.4642182 33.7886533,24.9385227 33.9564813,24.657729 C34.6589254,23.0889536 35.0310873,21.4337423 35.1452376,19.6024578 C35.4963978,13.9698388 33.3219838,9.57022484 30.3109621,6.56916161 Z M28.7586299,23.7300202 C28.7485614,23.7514445 28.7395431,23.7713912 28.7290422,23.7934927 C28.4677568,24.5387257 28.0176416,25.1618771 27.5652409,25.7132448 C25.7965297,27.8682332 23.1015831,29.7384262 19.4181374,30.0463696 C16.3938352,30.2990285 13.7012359,29.3022448 11.8252309,28.0169104 C10.1950072,26.8999536 8.95578514,25.517348 8.08681018,23.855734 C8.03381185,23.755754 7.52915409,22.5969337 7.52767162,22.5459586 C6.83924925,20.4177506 6.77951803,16.9956508 7.48610067,14.9420585 C7.95764992,13.5714578 8.74354474,12.0885027 9.78442454,10.9136142 C11.2215564,9.29133965 12.6597384,8.2518305 14.935887,7.51706344 C15.9751608,7.18153932 16.9055347,6.84004348 18.1852159,6.80618324 C21.3058169,6.72337958 24.4835548,8.11983715 26.1897551,9.64976561 C27.757715,11.055704 29.54471,13.7943812 29.9939604,16.3638189 C30.456306,19.0084262 29.9628903,21.5904844 28.7586299,23.7300202 Z" id="Shape" fill="#000000"></path>
                        <g id="OAUTH" transform="translate(8.833055, 2.808860)" fill="#FFFFFF">
                            <g id="Group">
                                <path d="M0.30890985,4.88535441 L0.304400668,4.87925957 C-0.146270451,4.26368053 -0.0140217028,3.40252246 0.649692821,2.9197371 C1.31340735,2.43701331 2.16601336,2.57251581 2.61668447,3.18803328 L2.62119366,3.19412812 C3.07186477,3.80970715 2.93961603,4.67092679 2.2759015,5.15365058 C1.61218698,5.63637438 0.759580968,5.50093344 0.30890985,4.88535441 Z M2.01727212,3.64280699 L2.01276294,3.63671215 C1.78631553,3.32741431 1.36467613,3.22103161 1.03593823,3.46014642 C0.710227045,3.69704493 0.684901503,4.11906656 0.911348915,4.42842596 L0.915858097,4.4345208 C1.14236728,4.74381864 1.56394491,4.85020133 1.88965609,4.61330283 C2.21845576,4.37418802 2.2437813,3.95216639 2.01727212,3.64280699 Z" id="Shape"></path>
                                <path d="M4.65396995,0.850630616 L5.33127379,0.634048253 L7.23001002,2.83397837 L6.47660601,3.07487854 L6.14663272,2.68271547 L5.16863439,2.9954609 L5.13280801,3.50465724 L4.39391987,3.7409401 L4.65396995,0.850630616 Z M5.76829382,2.20245424 L5.25449416,1.5743777 L5.19958097,2.38431448 L5.76829382,2.20245424 Z" id="Shape"></path>
                                <path d="M8.44975777,1.51244426 L8.45570451,0.0224093178 L9.20509349,0.0253643927 L9.19922538,1.50025458 C9.19768114,1.88318303 9.39095826,2.06590516 9.6876995,2.06713644 C9.98444073,2.06830616 10.1791386,1.89469551 10.1805593,1.52315641 L10.1865509,0.0293660566 L10.9359399,0.0323211314 L10.9300718,1.50339434 C10.9266745,2.36024293 10.4344942,2.73369052 9.67744574,2.730692 C8.9204591,2.72759567 8.44650083,2.34275874 8.44975777,1.51244426 Z" id="Path"></path>
                                <polygon id="Path" points="13.6423756 1.25208985 12.878409 1.01968552 13.067177 0.403244592 15.3009516 1.08272712 15.1121836 1.69916805 14.348217 1.46682529 13.7597379 3.38860899 13.0539583 3.17393511"></polygon>
                                <polygon id="Path" points="17.2962337 1.94290017 17.9105943 2.35039268 17.3584975 3.17732113 18.1470484 3.70036938 18.699207 2.87337937 19.3135676 3.28087188 17.8383239 5.49034443 17.2239015 5.08285191 17.7845225 4.24324126 16.9959098 3.72019301 16.4353506 4.55980366 15.82099 4.15231115"></polygon>
                            </g>
                            <g id="Group" transform="translate(0.555927, 25.549085)">
                                <path d="M18.9105209,0.546873544 L18.9152154,0.552845258 C19.3892354,1.15081697 19.2900334,2.01653078 18.6452821,2.52418802 C18.0005309,3.03184526 17.1432922,2.92891015 16.6692721,2.33093844 L16.6645776,2.32496672 C16.1905576,1.72693344 16.2898214,0.861281198 16.9345109,0.35362396 C17.5792621,-0.153971714 18.4365008,-0.0510981697 18.9105209,0.546873544 Z M17.2508331,1.85369384 L17.2555275,1.85966556 C17.4937112,2.16015973 17.9191185,2.25041265 18.2385292,1.99892346 C18.5549132,1.74977371 18.5641169,1.32707488 18.3258715,1.0265807 L18.321177,1.02060899 C18.0830551,0.720114809 17.657586,0.629861897 17.341202,0.879011647 C17.0217913,1.13050083 17.0126494,1.55319967 17.2508331,1.85369384 Z" id="Shape"></path>
                                <path d="M14.7448397,4.75163727 L14.0777279,4.99770882 L12.0836811,2.88322962 L12.8257195,2.60945424 L13.1727412,2.98684193 L14.1359766,2.63149418 L14.1492571,2.12125125 L14.8770267,1.85277038 L14.7448397,4.75163727 Z M13.5718965,3.45004992 L14.1129366,4.05491681 L14.1320234,3.24337937 L13.5718965,3.45004992 Z" id="Shape"></path>
                                <path d="M10.9263038,4.24699667 L10.992212,5.73555408 L10.2435643,5.76849085 L10.1782738,4.2950782 C10.1613489,3.91251913 9.95948581,3.73927787 9.66305342,3.75232945 C9.36662104,3.76538103 9.18050918,3.94816473 9.1969399,4.31933444 L9.26303339,5.81164725 L8.51438564,5.84458403 L8.44928047,4.37498835 C8.41135392,3.51900166 8.88500334,3.12240599 9.64124875,3.0891614 C10.3975559,3.05585524 10.8895509,3.41748253 10.9263038,4.24699667 Z" id="Path"></path>
                                <polygon id="Path" points="5.72425209 4.73372213 6.49556928 4.94125458 6.327 5.56354409 4.07172955 4.95683028 4.24029883 4.3344792 5.01161603 4.54201165 5.53709015 2.60175874 6.24966444 2.79346922"></polygon>
                                <polygon id="Path" points="2.07854758 4.19300499 1.44547078 3.81487854 1.95784975 2.96277038 1.14539399 2.47739933 0.633015025 3.32950749 0 2.95138103 1.36906177 0.674803661 2.00207679 1.05299168 1.48185309 1.91808985 2.29437062 2.4034609 2.81459432 1.53836273 3.44760935 1.91655075"></polygon>
                            </g>
                        </g>
                    </g>
                    <path d="M16.6559044,22.6454775 L15.9000573,25.0932931 C15.635349,25.9048711 14.8850613,26.4494592 14.0319566,26.4494592 C13.8271874,26.4494592 13.6236919,26.4172001 13.4312095,26.3549159 C12.4086648,26.0489551 11.8306723,24.9547041 12.1432997,23.9159655 L15.7575278,12.5056828 C16.0167072,11.7040776 16.7784373,11.145619 17.6140384,11.145619 L19.5356912,11.145619 C20.3747954,11.145619 21.1370236,11.6947459 21.3913167,12.4822604 L25.1923202,23.8884041 C25.5275853,24.9170683 24.9721429,26.0226987 23.9521148,26.3536291 C23.7514471,26.4185562 23.5436842,26.4514908 23.3345843,26.4514908 C22.4861357,26.4514908 21.7404769,25.9152027 21.4804205,25.1174905 L20.6663939,22.6454775 L16.6559044,22.6454775 L16.6559044,22.6454775 Z" id="Path" fill="#000000"></path>
                    <path d="M23.3345843,26.0821065 C23.5047275,26.0821065 23.6738788,26.0552926 23.8375379,26.0023398 C24.6617958,25.7349236 25.1122343,24.8383078 24.8402142,24.0036797 L21.039056,12.5970593 C20.8337112,11.9611526 20.2144236,11.5150033 19.5356912,11.5150033 L17.6140384,11.5150033 C16.9400356,11.5150033 16.320327,11.9693396 16.1106168,12.617933 L12.4975079,24.0246298 C12.2440234,24.8669134 12.7127297,25.7542646 13.5416761,26.0023447 C13.7012239,26.0539327 13.8661327,26.0800749 14.0319566,26.0800749 C14.7243403,26.0800749 15.3324641,25.6386749 15.5467148,24.9818704 L16.3821912,22.2760932 L20.9348248,22.2760932 L20.976678,22.4031917 L21.8327284,25.0028239 C22.0431891,25.6484014 22.6462156,26.0821065 23.3345843,26.0821065 Z" id="Path" fill="#FFFFFF"></path>
                </g>
            </g>
            <g id="PKI-Copy" transform="translate(113.961538, 81.110503)">
                <path d="M11.8409487,12.9814078 L11.8409487,11.4188693 L12.882641,11.4188693 C13.4234103,11.4188693 13.8930256,11.3292154 14.2914872,11.1499078 C14.6899487,10.9706001 14.9973333,10.7158693 15.213641,10.3857154 C15.4299487,10.0555616 15.5381026,9.66563852 15.5381026,9.21594621 C15.5381026,8.76625391 15.4299487,8.37490775 15.213641,8.04190775 C14.9973333,7.70890775 14.6899487,7.45275391 14.2914872,7.27344621 C13.8930256,7.09413852 13.4234103,7.00448468 12.882641,7.00448468 L12.882641,7.00448468 L10.1503333,7.00448468 L10.1503333,12.9814078 L11.8409487,12.9814078 Z M12.7801795,10.0868693 L11.8409487,10.0868693 L11.8409487,8.33648468 L12.7801795,8.33648468 C13.1274103,8.33648468 13.3892564,8.41333083 13.5657179,8.56702314 C13.7421795,8.72071544 13.8304103,8.93702314 13.8304103,9.21594621 C13.8304103,9.49486929 13.7421795,9.70975391 13.5657179,9.86060006 C13.3892564,10.0114462 13.1274103,10.0868693 12.7801795,10.0868693 L12.7801795,10.0868693 Z M19.4544103,12.9814078 L19.4544103,11.487177 L20.0862564,10.8126385 L21.7939487,12.9814078 L23.7577949,12.9814078 L21.1877179,9.65140775 L23.6297179,7.00448468 L21.7683333,7.00448468 L19.4544103,9.48917698 L19.4544103,7.00448468 L17.7808718,7.00448468 L17.7808718,12.9814078 L19.4544103,12.9814078 Z M27.3154872,12.9814078 L27.3154872,7.00448468 L25.6248718,7.00448468 L25.6248718,12.9814078 L27.3154872,12.9814078 Z" id="PKI" fill="#EDA32D" fill-rule="nonzero"></path>
                <rect id="Rectangle" stroke="#F5B54F" stroke-width="2.5" x="1.25" y="1.25" width="34.5" height="34.5" rx="8"></rect>
                <path d="M26.1079886,21.4752815 L26.1079886,20.513762 C26.1079886,18.2244374 24.2378361,16.3542849 21.9485114,16.3542849 C19.6591868,16.3542849 17.7890343,18.2244374 17.7890343,20.513762 L17.7890343,21.4752815 C16.660494,21.5720135 15.7899058,22.5070898 15.7899058,23.6678741 L15.7899058,29.1467213 C15.7899058,30.3719936 16.773348,31.3554359 17.9986204,31.3554359 L25.9145245,31.3554359 C27.1397968,31.3554359 28.1232391,30.3719936 28.1232391,29.1467213 L28.1232391,23.6678741 C28.1232391,22.5070898 27.2365289,21.5720135 26.1079886,21.4752815 Z M23.996006,21.4591595 L19.9010169,21.4591595 L19.9010169,20.529884 C19.9010169,19.4013437 20.8199711,18.4823895 21.9485114,18.4823895 C23.0770517,18.4823895 23.996006,19.4013437 23.996006,20.529884 L23.996006,21.4591595 Z" id="Shape" fill="#5B7899" fill-rule="nonzero"></path>
                <g id="Group" transform="translate(8.876761, 22.718072)">
                    <g id="Group-7" transform="translate(0.000000, 0.505859)">
                        <path d="M3.64380025,-0.486448175 C4.63705773,-0.486448175 5.57060943,-0.100056827 6.27362253,0.602956277 C6.39856434,0.727898087 6.51382785,0.860732364 6.6188933,1.0006191 L6.6188933,1.0006191 L10.8590786,1.0006191 L12.8920897,2.72249289 L11.2112272,5.59369381 L9.74573858,4.77457625 L8.93418441,5.66326996 L7.72091368,4.82062931 L7.36090421,5.21487385 C6.02070843,6.34702419 4.87396839,6.96252204 3.64380025,6.96252204 C2.64828678,6.96252204 1.71293981,6.5748839 1.00944033,5.87138421 C0.306775497,5.1678416 -0.0806848575,4.23254292 -0.0806847846,3.2377061 C-0.0802458846,2.24271997 0.306929678,1.30790122 1.01047238,0.604358509 C1.71368813,-0.0988572337 2.64911745,-0.486448175 3.64380025,-0.486448175 Z" id="Path" stroke="#FFFFFF" stroke-width="1.5" fill="#EDA32D" fill-rule="nonzero"></path>
                        <circle id="Oval" fill="#FFFFFF" cx="3.59484919" cy="3.23803693" r="1.22648457"></circle>
                    </g>
                </g>
            </g>
            <g id="mTLS-Copy" transform="translate(185.000000, 58.000000)">
                <g id="noun_code_587999" transform="translate(9.487179, 18.500000)" fill-rule="nonzero">
                    <path d="M17.06562,5.84746261 L13.8024255,2.58426816 C13.4844568,2.26629941 12.9673561,2.26629941 12.6493874,2.58426816 C12.3314186,2.90223691 12.3314186,3.41933761 12.6493874,3.73730636 L15.3344568,6.4223758 L12.6461755,9.11065705 C12.3282068,9.4286258 12.3282068,9.9457265 12.6461755,10.2636952 C12.8966964,10.5142161 13.5165749,10.5463341 13.7992137,10.2636952 L17.0624082,7.0005008 C17.3835887,6.68253205 17.3835887,6.16864316 17.06562,5.84746261 Z" id="Path" fill="#5B7899"></path>
                    <path d="M4.68923611,2.58426816 C4.37126736,2.26629941 3.85416667,2.26629941 3.53619792,2.58426816 L0.269791667,5.84746261 C-0.0481770833,6.16543136 -0.0481770833,6.68253205 0.269791667,7.0005008 L3.53298611,10.2669071 C3.815625,10.5495459 4.43550347,10.5174279 4.68602431,10.2669071 C5.00399306,9.9489383 5.00399306,9.43183761 4.68602431,9.11386886 L2.00095486,6.42879941 L4.68923611,3.74051816 C5.00720486,3.41933761 5.00720486,2.90544872 4.68923611,2.58426816 Z" id="Path" fill="#5B7899"></path>
                    <path d="M10.4610172,0.387612053 C10.0306352,0.25271622 9.57455886,0.490389831 9.43966303,0.923983581 L6.08128796,11.4133545 C5.94639213,11.8437364 6.18085393,12.3158719 6.61765949,12.4347087 C7.08337129,12.5599691 7.52981227,12.2484239 7.63901365,11.8983371 L10.9973887,1.40896622 C11.1290727,0.978584276 10.8913991,0.522507887 10.4610172,0.387612053 Z" id="Path" fill="#3F75EF"></path>
                </g>
                <path d="M7.561686,14.2516151 L7.561686,11.9547689 C7.561686,11.6075382 7.635686,11.3485382 7.783686,11.1777689 C7.931686,11.0069997 8.13091677,10.9216151 8.38137831,10.9216151 C8.84814754,10.9216151 9.08153215,11.2375382 9.08153215,11.8693843 L9.08153215,11.8693843 L9.08153215,14.2516151 L10.7038398,14.2516151 L10.7038398,11.9547689 C10.7038398,11.6075382 10.7778398,11.3485382 10.9258398,11.1777689 C11.0738398,11.0069997 11.2702245,10.9216151 11.5149937,10.9216151 C11.7369937,10.9216151 11.909186,10.9984612 12.0315706,11.1521535 C12.1539552,11.3058459 12.2151475,11.5449228 12.2151475,11.8693843 L12.2151475,11.8693843 L12.2151475,14.2516151 L13.8374552,14.2516151 L13.8374552,11.604692 C13.8374552,10.9159228 13.6681091,10.4007689 13.3294168,10.0592305 C12.9907245,9.71769201 12.5367629,9.54692278 11.9675322,9.54692278 C11.6373783,9.54692278 11.3328398,9.60953816 11.0539168,9.73476893 C10.7749937,9.8599997 10.5444552,10.0393074 10.3623014,10.272692 C10.2029168,10.0279228 9.99514754,9.84576893 9.73899369,9.72623047 C9.48283984,9.60669201 9.19253215,9.54692278 8.86807061,9.54692278 C8.58914754,9.54692278 8.33157061,9.59388431 8.09533984,9.68780739 C7.85910907,9.78173047 7.65560907,9.92261508 7.48483984,10.1104612 L7.48483984,10.1104612 L7.48483984,9.62376893 L5.93937831,9.62376893 L5.93937831,14.2516151 L7.561686,14.2516151 Z M18.3761219,14.2516151 L18.3761219,9.61523047 L20.2033527,9.61523047 L20.2033527,8.27469201 L14.8497373,8.27469201 L14.8497373,9.61523047 L16.6855065,9.61523047 L16.6855065,14.2516151 L18.3761219,14.2516151 Z M25.8520193,14.2516151 L25.8520193,12.9110766 L23.0001732,12.9110766 L23.0001732,8.27469201 L21.3095578,8.27469201 L21.3095578,14.2516151 L25.8520193,14.2516151 Z M29.0757629,14.3711535 C29.6449937,14.3711535 30.1288398,14.2843459 30.5273014,14.1107305 C30.9257629,13.9371151 31.2246091,13.7051535 31.4238398,13.4148459 C31.6230706,13.1245382 31.722686,12.8000766 31.722686,12.4414612 C31.722686,12.0259228 31.6131091,11.697192 31.3939552,11.4552689 C31.1748014,11.2133459 30.9158014,11.0368843 30.6169552,10.9258843 C30.3181091,10.8148843 29.9409937,10.7109997 29.4856091,10.6142305 C29.0814552,10.5288459 28.7883014,10.4463074 28.6061475,10.3666151 C28.4239937,10.2869228 28.3329168,10.1673843 28.3329168,10.0079997 C28.3329168,9.84861508 28.4097629,9.71911508 28.5634552,9.6194997 C28.7171475,9.51988431 28.9619168,9.47007662 29.2977629,9.47007662 C29.8328398,9.47007662 30.3849937,9.62376893 30.9542245,9.93115355 L30.9542245,9.93115355 L31.4750706,8.6759997 C31.1847629,8.50523047 30.8489168,8.37573047 30.4675322,8.2874997 C30.0861475,8.19926893 29.6990706,8.15515355 29.3063014,8.15515355 C28.7313783,8.15515355 28.2461091,8.24053816 27.8504937,8.41130739 C27.4548783,8.58207662 27.1574552,8.81403816 26.9582245,9.10719201 C26.7589937,9.40034585 26.6593783,9.72907662 26.6593783,10.0933843 C26.6593783,10.5089228 26.7675322,10.8390766 26.9838398,11.0838459 C27.2001475,11.3286151 27.4591475,11.5064997 27.7608398,11.6174997 C28.0625322,11.7284997 28.4382245,11.8323843 28.8879168,11.9291535 C29.2977629,12.0202305 29.595186,12.1070382 29.780186,12.1895766 C29.965186,12.2721151 30.057686,12.3987689 30.057686,12.5695382 C30.057686,12.8939997 29.7332245,13.0562305 29.0843014,13.0562305 C28.7427629,13.0562305 28.3955322,13.0021535 28.0426091,12.8939997 C27.689686,12.7858459 27.3794552,12.6435382 27.1119168,12.4670766 L27.1119168,12.4670766 L26.5569168,13.713692 C26.8415322,13.9129228 27.2115322,14.0723074 27.6669168,14.1918459 C28.1223014,14.3113843 28.5919168,14.3711535 29.0757629,14.3711535 Z" id="mTLS" fill="#3F75EF" fill-rule="nonzero"></path>
                <rect id="Rectangle" stroke="#3F75EF" stroke-width="2.5" x="1.25" y="1.25" width="34.5" height="34.5" rx="8"></rect>
            </g>
            <g id="X509-Copy" transform="translate(253.500000, 96.500000)">
                <path d="M8.97961538,13.7772561 L10.2006154,11.92441 L11.4386923,13.7772561 L13.3854615,13.7772561 L11.1654615,10.686333 L13.2488462,7.80033303 L11.4216154,7.80033303 L10.2433077,9.52510226 L9.04792308,7.80033303 L7.14384615,7.80033303 L9.22723077,10.7546407 L7.04992308,13.7772561 L8.97961538,13.7772561 Z M16.2164359,13.8967946 C16.791359,13.8967946 17.2737821,13.8042946 17.6637051,13.6192946 C18.0536282,13.4342946 18.3439359,13.1866792 18.5346282,12.8764484 C18.7253205,12.5662176 18.8206667,12.2261023 18.8206667,11.8561023 C18.8206667,11.2868715 18.6200128,10.8314869 18.2187051,10.4899484 C17.8173974,10.14841 17.198359,9.97764073 16.3615897,9.97764073 L16.3615897,9.97764073 L15.9602821,9.97764073 L16.0371282,9.10671765 L18.4449744,9.10671765 L18.4449744,7.80033303 L14.6368205,7.80033303 L14.3379744,11.2925638 L15.9602821,11.2925638 C16.3928974,11.2925638 16.6945897,11.3437946 16.865359,11.4462561 C17.0361282,11.5487176 17.1215128,11.6995638 17.1215128,11.8987946 C17.1215128,12.0980253 17.0347051,12.2531407 16.8610897,12.3641407 C16.6874744,12.4751407 16.4555128,12.5306407 16.1652051,12.5306407 C15.8748974,12.5306407 15.5860128,12.4879484 15.2985513,12.4025638 C15.0110897,12.3171792 14.7478205,12.1947946 14.5087436,12.03541 L14.5087436,12.03541 L13.9025128,13.3076407 C14.1985128,13.4954869 14.552859,13.6406407 14.9655513,13.7431023 C15.3782436,13.8455638 15.7952051,13.8967946 16.2164359,13.8967946 Z M22.4201026,13.8967946 C22.9267179,13.8967946 23.3792564,13.77441 23.7777179,13.5296407 C24.1761795,13.2848715 24.4878333,12.9276792 24.7126795,12.4580638 C24.9375256,11.9884484 25.0499487,11.4320253 25.0499487,10.7887946 C25.0499487,10.1455638 24.9375256,9.58914073 24.7126795,9.11952534 C24.4878333,8.64990996 24.1761795,8.29271765 23.7777179,8.04794842 C23.3792564,7.80317919 22.9267179,7.68079457 22.4201026,7.68079457 C21.9077949,7.68079457 21.4524103,7.80317919 21.0539487,8.04794842 C20.6554872,8.29271765 20.3438333,8.64990996 20.1189872,9.11952534 C19.894141,9.58914073 19.7817179,10.1455638 19.7817179,10.7887946 C19.7817179,11.4320253 19.894141,11.9884484 20.1189872,12.4580638 C20.3438333,12.9276792 20.6554872,13.2848715 21.0539487,13.5296407 C21.4524103,13.77441 21.9077949,13.8967946 22.4201026,13.8967946 Z M22.4201026,12.5135638 C22.1297949,12.5135638 21.9006795,12.3755253 21.7327564,12.0994484 C21.5648333,11.8233715 21.4808718,11.3864869 21.4808718,10.7887946 C21.4808718,10.1911023 21.5648333,9.75421765 21.7327564,9.47814073 C21.9006795,9.2020638 22.1297949,9.06402534 22.4201026,9.06402534 C22.7047179,9.06402534 22.9309872,9.2020638 23.0989103,9.47814073 C23.2668333,9.75421765 23.3507949,10.1911023 23.3507949,10.7887946 C23.3507949,11.3864869 23.2668333,11.8233715 23.0989103,12.0994484 C22.9309872,12.3755253 22.7047179,12.5135638 22.4201026,12.5135638 Z M27.8809231,13.8967946 C28.5127692,13.8967946 29.0691923,13.7687176 29.5501923,13.5125638 C30.0311923,13.25641 30.4040385,12.8821407 30.6687308,12.3897561 C30.9334231,11.8973715 31.0657692,11.3096407 31.0657692,10.6265638 C31.0657692,9.67594842 30.8181538,8.94733303 30.3229231,8.44071765 C29.8276923,7.93410226 29.1503077,7.68079457 28.2907692,7.68079457 C27.8581538,7.68079457 27.4639615,7.76475611 27.1081923,7.93267919 C26.7524231,8.10060226 26.4706538,8.33967919 26.2628846,8.64990996 C26.0551154,8.96014073 25.9512308,9.31733303 25.9512308,9.72148688 C25.9512308,10.0914869 26.0437308,10.4202176 26.2287308,10.7076792 C26.4137308,10.9951407 26.6627692,11.2171407 26.9758462,11.3736792 C27.2889231,11.5302176 27.6333077,11.6084869 28.009,11.6084869 C28.5611538,11.6084869 29.008,11.463333 29.3495385,11.1730253 C29.304,11.6227176 29.1488846,11.9656792 28.8841923,12.20191 C28.6195,12.4381407 28.2736923,12.5562561 27.8467692,12.5562561 C27.4027692,12.5562561 27.0356154,12.4537946 26.7453077,12.2488715 L26.7453077,12.2488715 L26.1305385,13.461333 C26.3468462,13.5979484 26.6086923,13.7046792 26.9160769,13.7815253 C27.2234615,13.8583715 27.5450769,13.8967946 27.8809231,13.8967946 Z M28.4103077,10.3960253 C28.1655385,10.3960253 27.9677308,10.3277176 27.8168846,10.1911023 C27.6660385,10.0544869 27.5906154,9.87233303 27.5906154,9.64464073 C27.5906154,9.41125611 27.6660385,9.22625611 27.8168846,9.08964073 C27.9677308,8.95302534 28.1626923,8.88471765 28.4017692,8.88471765 C28.6579231,8.88471765 28.8614231,8.95444842 29.0122692,9.09390996 C29.1631154,9.23337149 29.2385385,9.41410226 29.2385385,9.63610226 C29.2385385,9.86379457 29.1616923,10.0473715 29.008,10.186833 C28.8543077,10.3262946 28.6550769,10.3960253 28.4103077,10.3960253 Z" id="X509" fill="#DC4B40" fill-rule="nonzero"></path>
                <rect id="Rectangle" stroke="#DC4B40" stroke-width="2.5" x="1.25" y="1.25" width="34.5" height="34.5" rx="8"></rect>
                <g id="Group" transform="translate(8.064103, 18.513434)">
                    <g id="noun_documents_721777" transform="translate(10.050944, 0.000000)" fill="#DC4B40" fill-rule="nonzero">
                        <path d="M6.22057018,3.96922368 L7.95430803,3.96922368 C8.23045041,3.96922368 8.45430803,3.74536606 8.45430803,3.46922368 C8.45430803,3.33741228 8.40225907,3.21093292 8.30948407,3.11730042 L6.07585882,0.863030149 C5.88149696,0.666871842 5.56491782,0.665415529 5.36875952,0.859777382 C5.27399971,0.953669357 5.22068824,1.08153461 5.22068278,1.21493297 L5.22061106,2.96922369 C5.2205476,3.52150843 5.66824454,3.96924199 6.22052929,3.96926457 C6.22054292,3.96926457 6.22055655,3.96926457 6.22057018,3.96922368 Z" id="Path"></path>
                        <path d="M2.92053947,-3.98963513e-13 L1,-3.98963513e-13 C0.44771525,-3.9886206e-13 6.96933258e-14,0.44771525 6.97609611e-14,1 L6.97609611e-14,11.204807 C6.98285965e-14,11.7570918 0.44771525,12.204807 1,12.204807 L8.15360526,12.204807 C8.70589001,12.204807 9.15360526,11.7570918 9.15360526,11.204807 L9.15360526,6.26860526 C9.15360526,5.71632051 8.70589001,5.26860526 8.15360526,5.26860526 L6.53707237,5.26860526 L6.53707237,5.26860526 L4.92053947,5.26860526 C4.36825472,5.26860526 3.92053947,4.82089001 3.92053947,4.26860526 L3.92053947,1 C3.92053947,0.44771525 3.47282422,-3.99064966e-13 2.92053947,-3.98963513e-13 Z" id="Path"></path>
                    </g>
                    <g id="Group-7" transform="translate(0.000000, 4.300731)">
                        <path d="M3.64380025,-0.486448175 C4.63705773,-0.486448175 5.57060943,-0.100056827 6.27362253,0.602956277 C6.39856434,0.727898087 6.51382785,0.860732364 6.6188933,1.0006191 L6.6188933,1.0006191 L10.8590786,1.0006191 L12.8920897,2.72249289 L11.2112272,5.59369381 L9.74573858,4.77457625 L8.93418441,5.66326996 L7.72091368,4.82062931 L7.36090421,5.21487385 C6.02070843,6.34702419 4.87396839,6.96252204 3.64380025,6.96252204 C2.64828678,6.96252204 1.71293981,6.5748839 1.00944033,5.87138421 C0.306775497,5.1678416 -0.0806848575,4.23254292 -0.0806847846,3.2377061 C-0.0802458846,2.24271997 0.306929678,1.30790122 1.01047238,0.604358509 C1.71368813,-0.0988572337 2.64911745,-0.486448175 3.64380025,-0.486448175 Z" id="Path" stroke="#FFFFFF" stroke-width="1.5" fill="#5B7899" fill-rule="nonzero"></path>
                        <circle id="Oval" fill="#FFFFFF" cx="3.59484919" cy="3.23803693" r="1.22648457"></circle>
                    </g>
                </g>
            </g>
            <g id="SSH-Copy" transform="translate(283.000000, 162.000000)">
                <path d="M10.5725128,13.5753052 C11.1417436,13.5753052 11.6255897,13.4884975 12.0240513,13.3148821 C12.4225128,13.1412667 12.721359,12.9093052 12.9205897,12.6189975 C13.1198205,12.3286898 13.2194359,12.0042283 13.2194359,11.6456129 C13.2194359,11.2300744 13.109859,10.9013436 12.8907051,10.6594206 C12.6715513,10.4174975 12.4125513,10.241036 12.1137051,10.130036 C11.814859,10.019036 11.4377436,9.91515134 10.982359,9.81838211 C10.5782051,9.7329975 10.2850513,9.65045903 10.1028974,9.57076673 C9.92074359,9.49107442 9.82966667,9.37153596 9.82966667,9.21215134 C9.82966667,9.05276673 9.90651282,8.92326673 10.0602051,8.82365134 C10.2138974,8.72403596 10.4586667,8.67422827 10.7945128,8.67422827 C11.3295897,8.67422827 11.8817436,8.82792057 12.4509744,9.13530519 L12.4509744,9.13530519 L12.9718205,7.88015134 C12.6815128,7.70938211 12.3456667,7.57988211 11.9642821,7.49165134 C11.5828974,7.40342057 11.1958205,7.35930519 10.8030513,7.35930519 C10.2281282,7.35930519 9.74285897,7.4446898 9.34724359,7.61545903 C8.95162821,7.78622827 8.65420513,8.0181898 8.45497436,8.31134365 C8.25574359,8.6044975 8.15612821,8.93322827 8.15612821,9.29753596 C8.15612821,9.71307442 8.26428205,10.0432283 8.48058974,10.2879975 C8.69689744,10.5327667 8.95589744,10.7106513 9.25758974,10.8216513 C9.55928205,10.9326513 9.93497436,11.036536 10.3846667,11.1333052 C10.7945128,11.2243821 11.0919359,11.3111898 11.2769359,11.3937283 C11.4619359,11.4762667 11.5544359,11.6029206 11.5544359,11.7736898 C11.5544359,12.0981513 11.2299744,12.2603821 10.5810513,12.2603821 C10.2395128,12.2603821 9.89228205,12.2063052 9.53935897,12.0981513 C9.1864359,11.9899975 8.87620513,11.8476898 8.60866667,11.6712283 L8.60866667,11.6712283 L8.05366667,12.9178436 C8.33828205,13.1170744 8.70828205,13.276459 9.16366667,13.3959975 C9.61905128,13.515536 10.0886667,13.5753052 10.5725128,13.5753052 Z M17.5199744,13.5753052 C18.0892051,13.5753052 18.5730513,13.4884975 18.9715128,13.3148821 C19.3699744,13.1412667 19.6688205,12.9093052 19.8680513,12.6189975 C20.0672821,12.3286898 20.1668974,12.0042283 20.1668974,11.6456129 C20.1668974,11.2300744 20.0573205,10.9013436 19.8381667,10.6594206 C19.6190128,10.4174975 19.3600128,10.241036 19.0611667,10.130036 C18.7623205,10.019036 18.3852051,9.91515134 17.9298205,9.81838211 C17.5256667,9.7329975 17.2325128,9.65045903 17.050359,9.57076673 C16.8682051,9.49107442 16.7771282,9.37153596 16.7771282,9.21215134 C16.7771282,9.05276673 16.8539744,8.92326673 17.0076667,8.82365134 C17.161359,8.72403596 17.4061282,8.67422827 17.7419744,8.67422827 C18.2770513,8.67422827 18.8292051,8.82792057 19.3984359,9.13530519 L19.3984359,9.13530519 L19.9192821,7.88015134 C19.6289744,7.70938211 19.2931282,7.57988211 18.9117436,7.49165134 C18.530359,7.40342057 18.1432821,7.35930519 17.7505128,7.35930519 C17.1755897,7.35930519 16.6903205,7.4446898 16.2947051,7.61545903 C15.8990897,7.78622827 15.6016667,8.0181898 15.4024359,8.31134365 C15.2032051,8.6044975 15.1035897,8.93322827 15.1035897,9.29753596 C15.1035897,9.71307442 15.2117436,10.0432283 15.4280513,10.2879975 C15.644359,10.5327667 15.903359,10.7106513 16.2050513,10.8216513 C16.5067436,10.9326513 16.8824359,11.036536 17.3321282,11.1333052 C17.7419744,11.2243821 18.0393974,11.3111898 18.2243974,11.3937283 C18.4093974,11.4762667 18.5018974,11.6029206 18.5018974,11.7736898 C18.5018974,12.0981513 18.1774359,12.2603821 17.5285128,12.2603821 C17.1869744,12.2603821 16.8397436,12.2063052 16.4868205,12.0981513 C16.1338974,11.9899975 15.8236667,11.8476898 15.5561282,11.6712283 L15.5561282,11.6712283 L15.0011282,12.9178436 C15.2857436,13.1170744 15.6557436,13.276459 16.1111282,13.3959975 C16.5665128,13.515536 17.0361282,13.5753052 17.5199744,13.5753052 Z M24.0575897,13.4557667 L24.0575897,11.1247667 L26.3629744,11.1247667 L26.3629744,13.4557667 L28.0535897,13.4557667 L28.0535897,7.47884365 L26.3629744,7.47884365 L26.3629744,9.72445903 L24.0575897,9.72445903 L24.0575897,7.47884365 L22.3669744,7.47884365 L22.3669744,13.4557667 L24.0575897,13.4557667 Z" id="SSH" fill="#07013C" fill-rule="nonzero"></path>
                <rect id="Rectangle" stroke="#07013C" stroke-width="2.5" x="1.25" y="1.25" width="34.5" height="34.5" rx="8"></rect>
                <polyline id="Path-8" stroke="#5B7899" stroke-width="2.5" stroke-linecap="round" stroke-linejoin="round" points="11.3774414 19.3513196 15.838003 23.8118813 11.3774414 28.272443"></polyline>
                <line x1="20.0702051" y1="28.5191767" x2="26.3206098" y2="28.5191767" id="Line" stroke="#07013C" stroke-width="2.5" stroke-linecap="round"></line>
            </g>
            <g id="Group-6" transform="translate(148.739854, 138.110503)">
                <g id="Fill-1-Copy-21" transform="translate(45.000000, 50.192308) rotate(-180.000000) translate(-45.000000, -50.192308) ">
                    <use fill="black" fill-opacity="1" filter="url(#filter-10)" xlink:href="#path-9"></use>
                    <use fill="#FFFFFF" fill-rule="evenodd" xlink:href="#path-9"></use>
                </g>
                <path d="M36.4488379,30.8227516 C37.1557141,34.4913524 41.2363175,37.6311459 42.6500699,38.4904578 L58.1370845,47.7776364 C59.647229,48.6369483 68.2261354,53.958072 71.5356012,63.641856 C71.6319934,63.8732093 71.8569086,64.0384615 72.0818237,64.0384615 L72.0818237,64.0384615 C72.4031311,64.0384615 72.6923077,63.7740579 72.6923077,63.4105028 L72.6923077,37.2675909 C72.6923077,35.8133707 71.92117,34.458302 70.6680713,33.7642424 L67.7441744,32.1117195 C67.1336904,31.7812149 66.3946835,31.9795177 66.0412454,32.6074763 L61.9927727,39.8455266 C61.6393346,40.4734853 60.868197,40.671788 60.257713,40.308233 L48.3050794,33.2023846 C47.6945954,32.8388296 47.501811,32.0456186 47.8552491,31.4176599 L51.7430681,24.4770638 C52.1286369,23.7830042 51.8394603,22.9236923 51.1325841,22.6262381 C49.9116162,22.0974308 48.4336023,21.5686235 48.3050794,21.5025226 C45.2526595,20.4779584 40.9471409,20.1144034 38.8907738,23.2211464 C37.4448907,25.4024766 35.9347462,28.0465132 36.4488379,30.8227516 Z" id="Shape" fill="#DC4B40" fill-rule="nonzero"></path>
                <path d="M55.2820128,69.5618637 C54.5751351,65.893263 50.4945225,62.7534695 49.0807669,61.8941576 L33.5937175,52.606979 C32.0835695,51.7476671 23.5046438,46.4265434 20.1951706,36.7427593 C20.0987782,36.5114061 19.8738625,36.3461538 19.6489469,36.3461538 L19.6489469,36.3461538 C19.3276388,36.3461538 19.0384615,36.6105575 19.0384615,36.9741125 L19.0384615,63.150075 C19.0384615,64.6042951 19.8096009,65.9593639 21.0627024,66.6534235 L23.986606,68.3059464 C24.5970913,68.6364509 25.3360999,68.4381482 25.6895388,67.8101895 L29.7058898,60.5721393 C30.0593286,59.9441806 30.830468,59.7458778 31.4409534,60.1094329 L43.3936139,67.2152813 C44.0040993,67.5788363 44.1968841,68.3720473 43.8434452,69.000006 L39.9877483,75.9075516 C39.6021786,76.6016112 39.8913559,77.4609231 40.5982336,77.7583772 C41.8192043,78.2871846 43.2972215,78.8159919 43.4257447,78.8820928 C46.4460407,79.906657 50.7515689,80.270212 52.8079406,77.163469 C54.2859578,74.9821388 55.7961058,72.3381022 55.2820128,69.5618637 Z" id="Shape" fill="#DC4B40" fill-rule="nonzero"></path>
            </g>
        </g>
    </g>
</svg>